<svg width="1955" height="999" viewBox="0 0 1955 999" fill="none" xmlns="http://www.w3.org/2000/svg">
<path d="M1870.27 0.773174C1870.01 0.57988 1869.73 0.386587 1869.43 0.199334C1869.73 0.392627 1870 0.585921 1870.27 0.773174Z" fill="#A4CAEF" fill-opacity="0.1"/>
<path d="M1670.11 386.629C1670.11 390.706 1668.83 393.95 1666.05 396.904C1619.53 446.375 1573.05 495.894 1526.57 545.395C1513.72 559.071 1500.53 572.42 1488.16 586.519C1484.83 590.324 1480.32 592.058 1476.46 591.182C1476.24 591.133 1476.03 591.079 1475.82 591.013C1475.55 590.934 1475.28 590.837 1475.02 590.723C1474.91 590.68 1474.81 590.632 1474.71 590.584C1474.35 590.421 1474 590.227 1473.66 590.004C1473.56 589.931 1473.45 589.859 1473.35 589.78C1472.47 589.158 1471.67 588.343 1471 587.328C1470.91 587.201 1470.82 587.068 1470.74 586.935C1470.39 586.38 1470.08 585.764 1469.81 585.093C1469.76 584.966 1469.7 584.839 1469.66 584.713C1469.48 584.266 1469.33 583.788 1469.19 583.293C1469.16 583.166 1469.12 583.033 1469.09 582.9C1469.07 582.852 1469.06 582.798 1469.05 582.743V582.731C1469.04 582.369 1469.01 581.795 1469 581.439C1469.01 581.42 1469.01 581.396 1469.01 581.378C1469.09 580.943 1469.19 580.52 1469.32 580.116C1469.38 579.898 1469.46 579.693 1469.53 579.488C1469.61 579.276 1469.69 579.077 1469.78 578.877C1469.86 578.678 1469.96 578.479 1470.05 578.286C1471.1 576.159 1472.71 574.371 1474.4 572.583C1506.29 538.691 1538.13 504.737 1569.99 470.814C1595.95 443.173 1621.9 415.526 1647.92 387.946C1649.92 385.832 1650.81 383.754 1650.81 380.794C1650.71 341.876 1650.78 302.957 1650.7 264.033C1650.7 259.291 1651.96 255.48 1656.48 253.444C1662.61 250.683 1669.3 254.821 1670.02 261.725C1670.11 262.619 1670.06 263.531 1670.06 264.437C1670.06 305.168 1670.04 345.899 1670.11 386.629Z" fill="#A4CAEF" fill-opacity="0.1"/>
<path d="M1873 4.96522C1873 5.7082 1872.77 6.48137 1872.3 7.29079C1872.19 7.49616 1872.05 7.69549 1871.91 7.90087C1871.48 8.52303 1870.9 9.16332 1870.21 9.82776C1849.77 29.3746 1829.34 48.9395 1808.84 68.4198C1807.07 70.0991 1806.44 71.7723 1806.44 74.1703C1806.5 143.575 1806.47 212.979 1806.54 282.378C1806.54 285.615 1805.65 288.007 1803.39 290.393C1743.33 353.576 1683.33 416.831 1623.33 480.068C1590.31 514.855 1557.28 549.624 1524.26 584.392C1521.62 587.177 1518.92 587.521 1516.66 585.425C1514.52 583.438 1514.77 580.442 1517.31 577.766C1567.94 524.429 1618.57 471.098 1669.19 417.767C1711.11 373.6 1753.02 329.414 1794.98 285.283C1796.43 283.761 1796.88 282.239 1796.88 280.203C1796.84 210.599 1796.86 140.995 1796.78 71.3917C1796.78 68.2809 1798.05 65.303 1800.31 63.1647C1821.59 42.9474 1842.78 22.6153 1863.99 2.32556C1864.77 1.58863 1865.6 0.918144 1866.4 0.217455H1866.41C1867.4 0.13893 1868.12 0.0785254 1869.12 0C1869.22 0.0664446 1869.32 0.126849 1869.43 0.199334C1869.73 0.386587 1870.01 0.57988 1870.27 0.773174C1870.39 0.86982 1870.52 0.966467 1870.64 1.06311C1870.76 1.15976 1870.88 1.25641 1870.99 1.35305C1871.1 1.4497 1871.21 1.54635 1871.31 1.64299C1871.42 1.73964 1871.51 1.84233 1871.61 1.93897C1871.7 2.03562 1871.79 2.13227 1871.87 2.22891C1871.96 2.3316 1872.03 2.42825 1872.11 2.52489C1872.2 2.65174 1872.29 2.77859 1872.37 2.90544C1872.42 2.97793 1872.46 3.05041 1872.5 3.1229C1872.56 3.23162 1872.62 3.34639 1872.67 3.46116C1872.71 3.54573 1872.74 3.63029 1872.78 3.7209C1872.85 3.92023 1872.91 4.12561 1872.95 4.33702C1872.98 4.54239 1873 4.75381 1873 4.96522Z" fill="#A4CAEF" fill-opacity="0.1"/>
<path d="M1933.4 310.616C1931.9 311.027 1930.25 311.009 1928.66 311.015C1894.55 311.033 1860.44 311.045 1826.33 310.979C1824.14 310.973 1822.66 311.607 1821.17 313.226C1780.89 356.578 1740.56 399.894 1700.24 443.204C1671.66 473.883 1643.08 504.562 1614.5 535.229C1610.26 539.772 1604.52 540.207 1600.39 536.383C1596.2 532.511 1596.25 526.495 1600.5 521.934C1657.03 461.228 1713.56 400.534 1770.09 339.822C1783.49 325.44 1796.92 311.076 1810.2 296.585C1813.34 293.154 1816.79 291.583 1821.49 291.631C1839.3 291.819 1857.1 291.704 1874.91 291.704C1892.71 291.704 1911.92 291.692 1930.43 291.716C1935.37 291.728 1939.6 295.238 1940.25 299.713C1940.98 304.763 1938.22 309.288 1933.4 310.616Z" fill="#A4CAEF" fill-opacity="0.1"/>
<path d="M1772.39 281.447C1772.39 283.749 1771.71 285.355 1770.08 286.95C1761.54 295.28 1753.1 303.718 1744.62 312.114C1743.87 312.857 1743.09 313.57 1741.74 314.857V311.178C1741.74 267.138 1741.76 223.091 1741.7 179.05C1741.69 176.839 1742.35 175.329 1743.92 173.807C1752.55 165.423 1761.06 156.918 1769.63 148.461C1770.32 147.773 1771.05 147.114 1772.34 145.888V149.615C1772.34 193.559 1772.33 237.503 1772.39 281.447Z" fill="#A4CAEF" fill-opacity="0.1"/>
<path d="M1726.3 329.384C1726.3 330.822 1725.78 332.658 1724.82 333.637C1715.83 342.8 1706.69 351.818 1697.59 360.873C1697.2 361.265 1696.76 361.604 1695.99 362.268C1695.92 360.83 1695.84 359.87 1695.84 358.91C1695.84 314.863 1695.85 270.816 1695.79 226.775C1695.79 224.583 1696.4 223.061 1697.97 221.526C1706.57 213.106 1715.05 204.571 1723.58 196.078C1724.28 195.377 1725.02 194.725 1726.36 193.481V196.948C1726.36 241.091 1726.38 285.241 1726.3 329.384Z" fill="#A4CAEF" fill-opacity="0.1"/>
<path d="M1889.59 369.674C1888.71 370.749 1888.29 371.365 1887.78 371.89C1880.44 379.296 1873.13 386.732 1865.69 394.029C1864.68 395.013 1862.96 395.756 1861.56 395.762C1827.88 395.859 1794.18 395.841 1760.49 395.829C1759.63 395.829 1758.77 395.714 1757.29 395.605C1762.1 390.791 1766.47 386.406 1770.84 382.014C1774.31 378.535 1777.68 374.953 1781.29 371.631C1782.41 370.61 1784.17 369.758 1785.64 369.758C1819.23 369.649 1852.83 369.674 1886.41 369.674H1889.59Z" fill="#A4CAEF" fill-opacity="0.1"/>
<path d="M1930.31 326.068C1929.42 327.016 1928.92 327.584 1928.38 328.122C1921.11 335.455 1913.87 342.824 1906.51 350.066C1905.56 351.003 1903.99 351.836 1902.71 351.842C1868.7 351.939 1834.7 351.915 1800.7 351.909C1800.05 351.909 1799.39 351.776 1798.29 351.655C1800.02 349.776 1800.68 348.913 1802.47 347.523C1809.41 342.111 1815.52 335.739 1820.93 328.78C1822.68 326.533 1824.34 325.82 1826.75 325.82C1860.15 325.875 1893.56 325.856 1926.96 325.862C1927.9 325.862 1928.85 325.977 1930.31 326.068Z" fill="#A4CAEF" fill-opacity="0.1"/>
<path d="M1771.17 118.96C1769.84 120.808 1769.09 122.355 1767.91 123.448C1752.09 138.229 1736.21 152.949 1720.34 167.676C1697.86 188.546 1675.37 209.403 1652.89 230.267C1651.56 231.493 1650.28 232.768 1648.86 233.885C1646.67 235.625 1643.83 235.389 1642.14 233.45C1640.35 231.402 1640.38 228.775 1642.54 226.727C1649.01 220.578 1655.55 214.513 1662.09 208.443C1695.15 177.757 1728.23 147.09 1761.27 116.393C1763.09 114.708 1765.08 113.361 1767.39 114.726C1768.83 115.583 1769.76 117.329 1771.17 118.96Z" fill="#A4CAEF" fill-opacity="0.1"/>
<path d="M1760.04 91.6452C1759.51 92.962 1758.33 94.0856 1757.25 95.0883C1740.83 110.395 1724.38 125.671 1707.93 140.947C1685.45 161.811 1662.98 182.674 1640.47 203.502C1639.21 204.668 1637.66 205.513 1635.72 206.878C1634.07 205.447 1632.33 204.523 1631.49 203.079C1630.35 201.086 1631.09 199.002 1632.82 197.401C1638.54 192.085 1644.27 186.758 1649.99 181.442C1672.41 160.651 1694.82 139.872 1717.22 119.081C1728.68 108.444 1740.13 97.7944 1751.57 87.1391C1753.6 85.2545 1755.82 84.4028 1758.32 86.0699C1760.33 87.4049 1760.9 89.513 1760.04 91.6452Z" fill="#A4CAEF" fill-opacity="0.1"/>
<path d="M1954.13 334.126C1953.33 335.376 1952.2 336.427 1951.16 337.508C1929.07 360.492 1906.99 383.476 1884.86 406.417C1883.75 407.565 1882.24 408.332 1880.47 409.601C1878.84 408.266 1876.86 407.432 1876.39 406.067C1875.87 404.557 1876.17 402.165 1877.1 400.866C1879.06 398.118 1881.65 395.81 1884.01 393.358C1904.5 372.041 1925.01 350.737 1945.51 329.426C1946.07 328.852 1946.61 328.248 1947.24 327.765C1949.4 326.14 1951.55 326.267 1953.47 328.103C1955.32 329.867 1955.44 332.036 1954.13 334.126Z" fill="#A4CAEF" fill-opacity="0.1"/>
<path d="M1870.27 407.773C1870.01 407.58 1869.73 407.387 1869.43 407.199C1869.73 407.393 1870 407.586 1870.27 407.773Z" fill="#A4CAEF" fill-opacity="0.1"/>
<path d="M1670.11 793.629C1670.11 797.706 1668.83 800.95 1666.05 803.904C1619.53 853.375 1573.05 902.894 1526.57 952.395C1513.72 966.071 1500.53 979.42 1488.16 993.519C1484.83 997.324 1480.32 999.058 1476.46 998.182C1476.24 998.133 1476.03 998.079 1475.82 998.013C1475.55 997.934 1475.28 997.837 1475.02 997.723C1474.91 997.68 1474.81 997.632 1474.71 997.584C1474.35 997.421 1474 997.227 1473.66 997.004C1473.56 996.931 1473.45 996.859 1473.35 996.78C1472.47 996.158 1471.67 995.343 1471 994.328C1470.91 994.201 1470.82 994.068 1470.74 993.935C1470.39 993.38 1470.08 992.764 1469.81 992.093C1469.76 991.966 1469.7 991.839 1469.66 991.713C1469.48 991.266 1469.33 990.788 1469.19 990.293C1469.16 990.166 1469.12 990.033 1469.09 989.9C1469.07 989.852 1469.06 989.798 1469.05 989.743V989.731C1469.04 989.369 1469.01 988.795 1469 988.439C1469.01 988.42 1469.01 988.396 1469.01 988.378C1469.09 987.943 1469.19 987.52 1469.32 987.116C1469.38 986.898 1469.46 986.693 1469.53 986.488C1469.61 986.276 1469.69 986.077 1469.78 985.877C1469.86 985.678 1469.96 985.479 1470.05 985.286C1471.1 983.159 1472.71 981.371 1474.4 979.583C1506.29 945.691 1538.13 911.737 1569.99 877.814C1595.95 850.173 1621.9 822.526 1647.92 794.946C1649.92 792.832 1650.81 790.754 1650.81 787.794C1650.71 748.876 1650.78 709.957 1650.7 671.033C1650.7 666.291 1651.96 662.48 1656.48 660.444C1662.61 657.683 1669.3 661.821 1670.02 668.725C1670.11 669.619 1670.06 670.531 1670.06 671.437C1670.06 712.168 1670.04 752.899 1670.11 793.629Z" fill="#A4CAEF" fill-opacity="0.1"/>
<path d="M1873 411.965C1873 412.708 1872.77 413.481 1872.3 414.291C1872.19 414.496 1872.05 414.695 1871.91 414.901C1871.48 415.523 1870.9 416.163 1870.21 416.828C1849.77 436.375 1829.34 455.939 1808.84 475.42C1807.07 477.099 1806.44 478.772 1806.44 481.17C1806.5 550.575 1806.47 619.979 1806.54 689.378C1806.54 692.615 1805.65 695.007 1803.39 697.393C1743.33 760.576 1683.33 823.831 1623.33 887.068C1590.31 921.855 1557.28 956.624 1524.26 991.392C1521.62 994.177 1518.92 994.521 1516.66 992.425C1514.52 990.438 1514.77 987.442 1517.31 984.766C1567.94 931.429 1618.57 878.098 1669.19 824.767C1711.11 780.6 1753.02 736.414 1794.98 692.283C1796.43 690.761 1796.88 689.239 1796.88 687.203C1796.84 617.599 1796.86 547.995 1796.78 478.392C1796.78 475.281 1798.05 472.303 1800.31 470.165C1821.59 449.947 1842.78 429.615 1863.99 409.326C1864.77 408.589 1865.6 407.918 1866.4 407.217H1866.41C1867.4 407.139 1868.12 407.079 1869.12 407C1869.22 407.066 1869.32 407.127 1869.43 407.199C1869.73 407.387 1870.01 407.58 1870.27 407.773C1870.39 407.87 1870.52 407.966 1870.64 408.063C1870.76 408.16 1870.88 408.256 1870.99 408.353C1871.1 408.45 1871.21 408.546 1871.31 408.643C1871.42 408.74 1871.51 408.842 1871.61 408.939C1871.7 409.036 1871.79 409.132 1871.87 409.229C1871.96 409.332 1872.03 409.428 1872.11 409.525C1872.2 409.652 1872.29 409.779 1872.37 409.905C1872.42 409.978 1872.46 410.05 1872.5 410.123C1872.56 410.232 1872.62 410.346 1872.67 410.461C1872.71 410.546 1872.74 410.63 1872.78 410.721C1872.85 410.92 1872.91 411.126 1872.95 411.337C1872.98 411.542 1873 411.754 1873 411.965Z" fill="#A4CAEF" fill-opacity="0.1"/>
<path d="M1933.4 717.616C1931.9 718.027 1930.25 718.009 1928.66 718.015C1894.55 718.033 1860.44 718.045 1826.33 717.979C1824.14 717.973 1822.66 718.607 1821.17 720.226C1780.89 763.578 1740.56 806.894 1700.24 850.204C1671.66 880.883 1643.08 911.562 1614.5 942.229C1610.26 946.772 1604.52 947.207 1600.39 943.383C1596.2 939.511 1596.25 933.495 1600.5 928.934C1657.03 868.228 1713.56 807.534 1770.09 746.822C1783.49 732.44 1796.92 718.076 1810.2 703.585C1813.34 700.154 1816.79 698.583 1821.49 698.631C1839.3 698.819 1857.1 698.704 1874.91 698.704C1892.71 698.704 1911.92 698.692 1930.43 698.716C1935.37 698.728 1939.6 702.238 1940.25 706.713C1940.98 711.763 1938.22 716.288 1933.4 717.616Z" fill="#A4CAEF" fill-opacity="0.1"/>
<path d="M1772.39 688.447C1772.39 690.749 1771.71 692.355 1770.08 693.95C1761.54 702.28 1753.1 710.718 1744.62 719.114C1743.87 719.857 1743.09 720.57 1741.74 721.857V718.178C1741.74 674.138 1741.76 630.091 1741.7 586.05C1741.69 583.839 1742.35 582.329 1743.92 580.807C1752.55 572.423 1761.06 563.918 1769.63 555.461C1770.32 554.773 1771.05 554.114 1772.34 552.888V556.615C1772.34 600.559 1772.33 644.503 1772.39 688.447Z" fill="#A4CAEF" fill-opacity="0.1"/>
<path d="M1726.3 736.384C1726.3 737.822 1725.78 739.658 1724.82 740.637C1715.83 749.8 1706.69 758.818 1697.59 767.873C1697.2 768.265 1696.76 768.604 1695.99 769.268C1695.92 767.83 1695.84 766.87 1695.84 765.91C1695.84 721.863 1695.85 677.816 1695.79 633.775C1695.79 631.583 1696.4 630.061 1697.97 628.526C1706.57 620.106 1715.05 611.571 1723.58 603.078C1724.28 602.377 1725.02 601.725 1726.36 600.481V603.948C1726.36 648.091 1726.38 692.241 1726.3 736.384Z" fill="#A4CAEF" fill-opacity="0.1"/>
<path d="M1889.59 776.674C1888.71 777.749 1888.29 778.365 1887.78 778.89C1880.44 786.296 1873.13 793.732 1865.69 801.029C1864.68 802.013 1862.96 802.756 1861.56 802.762C1827.88 802.859 1794.18 802.841 1760.49 802.829C1759.63 802.829 1758.77 802.714 1757.29 802.605C1762.1 797.791 1766.47 793.406 1770.84 789.014C1774.31 785.535 1777.68 781.953 1781.29 778.631C1782.41 777.61 1784.17 776.758 1785.64 776.758C1819.23 776.649 1852.83 776.674 1886.41 776.674H1889.59Z" fill="#A4CAEF" fill-opacity="0.1"/>
<path d="M1930.31 733.068C1929.42 734.016 1928.92 734.584 1928.38 735.122C1921.11 742.455 1913.87 749.824 1906.51 757.066C1905.56 758.003 1903.99 758.836 1902.71 758.842C1868.7 758.939 1834.7 758.915 1800.7 758.909C1800.05 758.909 1799.39 758.776 1798.29 758.655C1800.02 756.776 1800.68 755.913 1802.47 754.523C1809.41 749.111 1815.52 742.739 1820.93 735.78C1822.68 733.533 1824.34 732.82 1826.75 732.82C1860.15 732.875 1893.56 732.856 1926.96 732.862C1927.9 732.862 1928.85 732.977 1930.31 733.068Z" fill="#A4CAEF" fill-opacity="0.1"/>
<path d="M1771.17 525.96C1769.84 527.808 1769.09 529.355 1767.91 530.448C1752.09 545.229 1736.21 559.949 1720.34 574.676C1697.86 595.546 1675.37 616.403 1652.89 637.267C1651.56 638.493 1650.28 639.768 1648.86 640.885C1646.67 642.625 1643.83 642.389 1642.14 640.45C1640.35 638.402 1640.38 635.775 1642.54 633.727C1649.01 627.578 1655.55 621.513 1662.09 615.443C1695.15 584.757 1728.23 554.09 1761.27 523.393C1763.09 521.708 1765.08 520.361 1767.39 521.726C1768.83 522.583 1769.76 524.329 1771.17 525.96Z" fill="#A4CAEF" fill-opacity="0.1"/>
<path d="M1760.04 498.645C1759.51 499.962 1758.33 501.086 1757.25 502.088C1740.83 517.395 1724.38 532.671 1707.93 547.947C1685.45 568.811 1662.98 589.674 1640.47 610.502C1639.21 611.668 1637.66 612.513 1635.72 613.878C1634.07 612.447 1632.33 611.523 1631.49 610.079C1630.35 608.086 1631.09 606.002 1632.82 604.401C1638.54 599.085 1644.27 593.758 1649.99 588.442C1672.41 567.651 1694.82 546.872 1717.22 526.081C1728.68 515.444 1740.13 504.794 1751.57 494.139C1753.6 492.254 1755.82 491.403 1758.32 493.07C1760.33 494.405 1760.9 496.513 1760.04 498.645Z" fill="#A4CAEF" fill-opacity="0.1"/>
<path d="M1954.13 741.126C1953.33 742.376 1952.2 743.427 1951.16 744.508C1929.07 767.492 1906.99 790.476 1884.86 813.417C1883.75 814.565 1882.24 815.332 1880.47 816.601C1878.84 815.266 1876.86 814.432 1876.39 813.067C1875.87 811.557 1876.17 809.165 1877.1 807.866C1879.06 805.118 1881.65 802.81 1884.01 800.358C1904.5 779.041 1925.01 757.737 1945.51 736.426C1946.07 735.852 1946.61 735.248 1947.24 734.765C1949.4 733.14 1951.55 733.267 1953.47 735.103C1955.32 736.867 1955.44 739.036 1954.13 741.126Z" fill="#A4CAEF" fill-opacity="0.1"/>
<path d="M1503.27 0.773174C1503.01 0.57988 1502.73 0.386587 1502.43 0.199334C1502.73 0.392627 1503 0.585921 1503.27 0.773174Z" fill="#A4CAEF" fill-opacity="0.1"/>
<path d="M1303.11 386.629C1303.11 390.706 1301.83 393.95 1299.05 396.904C1252.53 446.375 1206.05 495.894 1159.57 545.395C1146.72 559.071 1133.53 572.42 1121.16 586.519C1117.83 590.324 1113.32 592.058 1109.46 591.182C1109.24 591.133 1109.03 591.079 1108.82 591.013C1108.55 590.934 1108.28 590.837 1108.02 590.723C1107.91 590.68 1107.81 590.632 1107.71 590.584C1107.35 590.421 1107 590.227 1106.66 590.004C1106.56 589.931 1106.45 589.859 1106.35 589.78C1105.47 589.158 1104.67 588.343 1104 587.328C1103.91 587.201 1103.82 587.068 1103.74 586.935C1103.39 586.38 1103.08 585.764 1102.81 585.093C1102.76 584.966 1102.7 584.839 1102.66 584.713C1102.48 584.266 1102.33 583.788 1102.19 583.293C1102.16 583.166 1102.12 583.033 1102.09 582.9C1102.07 582.852 1102.06 582.798 1102.05 582.743V582.731C1102.04 582.369 1102.01 581.795 1102 581.439C1102.01 581.42 1102.01 581.396 1102.01 581.378C1102.09 580.943 1102.19 580.52 1102.32 580.116C1102.38 579.898 1102.46 579.693 1102.53 579.488C1102.61 579.276 1102.69 579.077 1102.78 578.877C1102.86 578.678 1102.96 578.479 1103.05 578.286C1104.1 576.159 1105.71 574.371 1107.4 572.583C1139.29 538.691 1171.13 504.737 1202.99 470.814C1228.95 443.173 1254.9 415.526 1280.92 387.946C1282.92 385.832 1283.81 383.754 1283.81 380.794C1283.71 341.876 1283.78 302.957 1283.7 264.033C1283.7 259.291 1284.96 255.48 1289.48 253.444C1295.61 250.683 1302.3 254.821 1303.02 261.725C1303.11 262.619 1303.06 263.531 1303.06 264.437C1303.06 305.168 1303.04 345.899 1303.11 386.629Z" fill="#A4CAEF" fill-opacity="0.1"/>
<path d="M1506 4.96522C1506 5.7082 1505.77 6.48137 1505.3 7.29079C1505.19 7.49616 1505.05 7.69549 1504.91 7.90087C1504.48 8.52303 1503.9 9.16332 1503.21 9.82776C1482.77 29.3746 1462.34 48.9395 1441.84 68.4198C1440.07 70.0991 1439.44 71.7723 1439.44 74.1703C1439.5 143.575 1439.47 212.979 1439.54 282.378C1439.54 285.615 1438.65 288.007 1436.39 290.393C1376.33 353.576 1316.33 416.831 1256.33 480.068C1223.31 514.855 1190.28 549.624 1157.26 584.392C1154.62 587.177 1151.92 587.521 1149.66 585.425C1147.52 583.438 1147.77 580.442 1150.31 577.766C1200.94 524.429 1251.57 471.098 1302.19 417.767C1344.11 373.6 1386.02 329.414 1427.98 285.283C1429.43 283.761 1429.88 282.239 1429.88 280.203C1429.84 210.599 1429.86 140.995 1429.78 71.3917C1429.78 68.2809 1431.05 65.303 1433.31 63.1647C1454.59 42.9474 1475.78 22.6153 1496.99 2.32556C1497.77 1.58863 1498.6 0.918144 1499.4 0.217455H1499.41C1500.4 0.13893 1501.12 0.0785254 1502.12 0C1502.22 0.0664446 1502.32 0.126849 1502.43 0.199334C1502.73 0.386587 1503.01 0.57988 1503.27 0.773174C1503.39 0.86982 1503.52 0.966467 1503.64 1.06311C1503.76 1.15976 1503.88 1.25641 1503.99 1.35305C1504.1 1.4497 1504.21 1.54635 1504.31 1.64299C1504.42 1.73964 1504.51 1.84233 1504.61 1.93897C1504.7 2.03562 1504.79 2.13227 1504.87 2.22891C1504.96 2.3316 1505.03 2.42825 1505.11 2.52489C1505.2 2.65174 1505.29 2.77859 1505.37 2.90544C1505.42 2.97793 1505.46 3.05041 1505.5 3.1229C1505.56 3.23162 1505.62 3.34639 1505.67 3.46116C1505.71 3.54573 1505.74 3.63029 1505.78 3.7209C1505.85 3.92023 1505.91 4.12561 1505.95 4.33702C1505.98 4.54239 1506 4.75381 1506 4.96522Z" fill="#A4CAEF" fill-opacity="0.1"/>
<path d="M1566.4 310.616C1564.9 311.027 1563.25 311.009 1561.66 311.015C1527.55 311.033 1493.44 311.045 1459.33 310.979C1457.14 310.973 1455.66 311.607 1454.17 313.226C1413.89 356.578 1373.56 399.894 1333.24 443.204C1304.66 473.883 1276.08 504.562 1247.5 535.229C1243.26 539.772 1237.52 540.207 1233.39 536.383C1229.2 532.511 1229.25 526.495 1233.5 521.934C1290.03 461.228 1346.56 400.534 1403.09 339.822C1416.49 325.44 1429.92 311.076 1443.2 296.585C1446.34 293.154 1449.79 291.583 1454.49 291.631C1472.3 291.819 1490.1 291.704 1507.91 291.704C1525.71 291.704 1544.92 291.692 1563.43 291.716C1568.37 291.728 1572.6 295.238 1573.25 299.713C1573.98 304.763 1571.22 309.288 1566.4 310.616Z" fill="#A4CAEF" fill-opacity="0.1"/>
<path d="M1405.39 281.447C1405.39 283.749 1404.71 285.355 1403.08 286.95C1394.54 295.28 1386.1 303.718 1377.62 312.114C1376.87 312.857 1376.09 313.57 1374.74 314.857V311.178C1374.74 267.138 1374.76 223.091 1374.7 179.05C1374.69 176.839 1375.35 175.329 1376.92 173.807C1385.55 165.423 1394.06 156.918 1402.63 148.461C1403.32 147.773 1404.05 147.114 1405.34 145.888V149.615C1405.34 193.559 1405.33 237.503 1405.39 281.447Z" fill="#A4CAEF" fill-opacity="0.1"/>
<path d="M1359.3 329.384C1359.3 330.822 1358.78 332.658 1357.82 333.637C1348.83 342.8 1339.69 351.818 1330.59 360.873C1330.2 361.265 1329.76 361.604 1328.99 362.268C1328.92 360.83 1328.84 359.87 1328.84 358.91C1328.84 314.863 1328.85 270.816 1328.79 226.775C1328.79 224.583 1329.4 223.061 1330.97 221.526C1339.57 213.106 1348.05 204.571 1356.58 196.078C1357.28 195.377 1358.02 194.725 1359.36 193.481V196.948C1359.36 241.091 1359.38 285.241 1359.3 329.384Z" fill="#A4CAEF" fill-opacity="0.1"/>
<path d="M1522.59 369.674C1521.71 370.749 1521.29 371.365 1520.78 371.89C1513.44 379.296 1506.13 386.732 1498.69 394.029C1497.68 395.013 1495.96 395.756 1494.56 395.762C1460.88 395.859 1427.18 395.841 1393.49 395.829C1392.63 395.829 1391.77 395.714 1390.29 395.605C1395.1 390.791 1399.47 386.406 1403.84 382.014C1407.31 378.535 1410.68 374.953 1414.29 371.631C1415.41 370.61 1417.17 369.758 1418.64 369.758C1452.23 369.649 1485.83 369.674 1519.41 369.674H1522.59Z" fill="#A4CAEF" fill-opacity="0.1"/>
<path d="M1563.31 326.068C1562.42 327.016 1561.92 327.584 1561.38 328.122C1554.11 335.455 1546.87 342.824 1539.51 350.066C1538.56 351.003 1536.99 351.836 1535.71 351.842C1501.7 351.939 1467.7 351.915 1433.7 351.909C1433.05 351.909 1432.39 351.776 1431.29 351.655C1433.02 349.776 1433.68 348.913 1435.47 347.523C1442.41 342.111 1448.52 335.739 1453.93 328.78C1455.68 326.533 1457.34 325.82 1459.75 325.82C1493.15 325.875 1526.56 325.856 1559.96 325.862C1560.9 325.862 1561.85 325.977 1563.31 326.068Z" fill="#A4CAEF" fill-opacity="0.1"/>
<path d="M1404.17 118.96C1402.84 120.808 1402.09 122.355 1400.91 123.448C1385.09 138.229 1369.21 152.949 1353.34 167.676C1330.86 188.546 1308.37 209.403 1285.89 230.267C1284.56 231.493 1283.28 232.768 1281.86 233.885C1279.67 235.625 1276.83 235.389 1275.14 233.45C1273.35 231.402 1273.38 228.775 1275.54 226.727C1282.01 220.578 1288.55 214.513 1295.09 208.443C1328.15 177.757 1361.23 147.09 1394.27 116.393C1396.09 114.708 1398.08 113.361 1400.39 114.726C1401.83 115.583 1402.76 117.329 1404.17 118.96Z" fill="#A4CAEF" fill-opacity="0.1"/>
<path d="M1393.04 91.6452C1392.51 92.962 1391.33 94.0856 1390.25 95.0883C1373.83 110.395 1357.38 125.671 1340.93 140.947C1318.45 161.811 1295.98 182.674 1273.47 203.502C1272.21 204.668 1270.66 205.513 1268.72 206.878C1267.07 205.447 1265.33 204.523 1264.49 203.079C1263.35 201.086 1264.09 199.002 1265.82 197.401C1271.54 192.085 1277.27 186.758 1282.99 181.442C1305.41 160.651 1327.82 139.872 1350.22 119.081C1361.68 108.444 1373.13 97.7944 1384.57 87.1391C1386.6 85.2545 1388.82 84.4028 1391.32 86.0699C1393.33 87.4049 1393.9 89.513 1393.04 91.6452Z" fill="#A4CAEF" fill-opacity="0.1"/>
<path d="M1587.13 334.126C1586.33 335.376 1585.2 336.427 1584.16 337.508C1562.07 360.492 1539.99 383.476 1517.86 406.417C1516.75 407.565 1515.24 408.332 1513.47 409.601C1511.84 408.266 1509.86 407.432 1509.39 406.067C1508.87 404.557 1509.17 402.165 1510.1 400.866C1512.06 398.118 1514.65 395.81 1517.01 393.358C1537.5 372.041 1558.01 350.737 1578.51 329.426C1579.07 328.852 1579.61 328.248 1580.24 327.765C1582.4 326.14 1584.55 326.267 1586.47 328.103C1588.32 329.867 1588.44 332.036 1587.13 334.126Z" fill="#A4CAEF" fill-opacity="0.1"/>
<path d="M1503.27 407.975C1503.01 407.782 1502.73 407.588 1502.43 407.401C1502.73 407.595 1503 407.788 1503.27 407.975Z" fill="#A4CAEF" fill-opacity="0.1"/>
<path d="M1303.11 793.567C1303.11 797.641 1301.83 800.883 1299.05 803.834C1252.53 853.271 1206.05 902.757 1159.57 952.224C1146.72 965.89 1133.53 979.231 1121.16 993.319C1117.83 997.122 1113.32 998.855 1109.46 997.979C1109.24 997.931 1109.03 997.877 1108.82 997.81C1108.55 997.732 1108.28 997.635 1108.02 997.52C1107.91 997.478 1107.81 997.43 1107.71 997.382C1107.35 997.219 1107 997.026 1106.66 996.802C1106.56 996.73 1106.45 996.657 1106.35 996.579C1105.47 995.957 1104.67 995.142 1104 994.128C1103.91 994.001 1103.82 993.869 1103.74 993.736C1103.39 993.18 1103.08 992.565 1102.81 991.895C1102.76 991.768 1102.7 991.641 1102.66 991.514C1102.48 991.068 1102.33 990.591 1102.19 990.096C1102.16 989.969 1102.12 989.836 1102.09 989.703C1102.07 989.655 1102.06 989.601 1102.05 989.547V989.534C1102.04 989.172 1102.01 988.599 1102 988.243C1102.01 988.225 1102.01 988.2 1102.01 988.182C1102.09 987.748 1102.19 987.325 1102.32 986.921C1102.38 986.703 1102.46 986.498 1102.53 986.293C1102.61 986.082 1102.69 985.882 1102.78 985.683C1102.86 985.484 1102.96 985.285 1103.05 985.092C1104.1 982.967 1105.71 981.18 1107.4 979.394C1139.29 945.524 1171.13 911.594 1202.99 877.694C1228.95 850.072 1254.9 822.444 1280.92 794.882C1282.92 792.77 1283.81 790.693 1283.81 787.735C1283.71 748.844 1283.78 709.952 1283.7 671.054C1283.7 666.316 1284.96 662.507 1289.48 660.473C1295.61 657.714 1302.3 661.849 1303.02 668.748C1303.11 669.642 1303.06 670.553 1303.06 671.459C1303.06 712.161 1303.04 752.864 1303.11 793.567Z" fill="#A4CAEF" fill-opacity="0.1"/>
<path d="M1506 412.164C1506 412.906 1505.77 413.679 1505.3 414.488C1505.19 414.693 1505.05 414.892 1504.91 415.098C1504.48 415.719 1503.9 416.359 1503.21 417.023C1482.77 436.557 1462.34 456.108 1441.84 475.575C1440.07 477.253 1439.44 478.925 1439.44 481.322C1439.5 550.679 1439.47 620.035 1439.54 689.386C1439.54 692.622 1438.65 695.012 1436.39 697.396C1376.33 760.536 1316.33 823.748 1256.33 886.942C1223.31 921.705 1190.28 956.45 1157.26 991.194C1154.62 993.977 1151.92 994.321 1149.66 992.227C1147.52 990.241 1147.77 987.247 1150.31 984.573C1200.94 931.272 1251.57 877.978 1302.19 824.684C1344.11 780.546 1386.02 736.391 1427.98 692.29C1429.43 690.769 1429.88 689.247 1429.88 687.213C1429.84 617.657 1429.86 548.101 1429.78 478.545C1429.78 475.436 1431.05 472.46 1433.31 470.324C1454.59 450.12 1475.78 429.802 1496.99 409.526C1497.77 408.79 1498.6 408.12 1499.4 407.419H1499.41C1500.4 407.341 1501.12 407.281 1502.12 407.202C1502.22 407.269 1502.32 407.329 1502.43 407.401C1502.73 407.588 1503.01 407.782 1503.27 407.975C1503.39 408.071 1503.52 408.168 1503.64 408.265C1503.76 408.361 1503.88 408.458 1503.99 408.554C1504.1 408.651 1504.21 408.747 1504.31 408.844C1504.42 408.941 1504.51 409.043 1504.61 409.14C1504.7 409.236 1504.79 409.333 1504.87 409.43C1504.96 409.532 1505.03 409.629 1505.11 409.725C1505.2 409.852 1505.29 409.979 1505.37 410.106C1505.42 410.178 1505.46 410.25 1505.5 410.323C1505.56 410.432 1505.62 410.546 1505.67 410.661C1505.71 410.745 1505.74 410.83 1505.78 410.92C1505.85 411.12 1505.91 411.325 1505.95 411.536C1505.98 411.741 1506 411.953 1506 412.164Z" fill="#A4CAEF" fill-opacity="0.1"/>
<path d="M1566.4 717.606C1564.9 718.016 1563.25 717.998 1561.66 718.004C1527.55 718.022 1493.44 718.035 1459.33 717.968C1457.14 717.962 1455.66 718.596 1454.17 720.214C1413.89 763.536 1373.56 806.822 1333.24 850.102C1304.66 880.761 1276.08 911.419 1247.5 942.065C1243.26 946.604 1237.52 947.039 1233.39 943.218C1229.2 939.349 1229.25 933.337 1233.5 928.779C1290.03 868.115 1346.56 807.462 1403.09 746.791C1416.49 732.419 1429.92 718.065 1443.2 703.584C1446.34 700.155 1449.79 698.586 1454.49 698.634C1472.3 698.821 1490.1 698.706 1507.91 698.706C1525.71 698.706 1544.92 698.694 1563.43 698.718C1568.37 698.73 1572.6 702.238 1573.25 706.71C1573.98 711.757 1571.22 716.278 1566.4 717.606Z" fill="#A4CAEF" fill-opacity="0.1"/>
<path d="M1405.39 688.457C1405.39 690.757 1404.71 692.362 1403.08 693.956C1394.54 702.28 1386.1 710.713 1377.62 719.103C1376.87 719.845 1376.09 720.558 1374.74 721.843V718.167C1374.74 674.157 1374.76 630.14 1374.7 586.13C1374.69 583.92 1375.35 582.411 1376.92 580.89C1385.55 572.512 1394.06 564.013 1402.63 555.562C1403.32 554.874 1404.05 554.216 1405.34 552.99V556.715C1405.34 600.629 1405.33 644.543 1405.39 688.457Z" fill="#A4CAEF" fill-opacity="0.1"/>
<path d="M1359.3 736.361C1359.3 737.797 1358.78 739.632 1357.82 740.61C1348.83 749.767 1339.69 758.779 1330.59 767.828C1330.2 768.22 1329.76 768.558 1328.99 769.222C1328.92 767.786 1328.84 766.826 1328.84 765.866C1328.84 721.849 1328.85 677.833 1328.79 633.822C1328.79 631.631 1329.4 630.11 1330.97 628.577C1339.57 620.162 1348.05 611.633 1356.58 603.146C1357.28 602.446 1358.02 601.794 1359.36 600.55V604.015C1359.36 648.128 1359.38 692.248 1359.3 736.361Z" fill="#A4CAEF" fill-opacity="0.1"/>
<path d="M1522.59 776.623C1521.71 777.697 1521.29 778.313 1520.78 778.838C1513.44 786.238 1506.13 793.669 1498.69 800.961C1497.68 801.945 1495.96 802.687 1494.56 802.693C1460.88 802.79 1427.18 802.772 1393.49 802.76C1392.63 802.76 1391.77 802.645 1390.29 802.536C1395.1 797.726 1399.47 793.343 1403.84 788.955C1407.31 785.478 1410.68 781.898 1414.29 778.578C1415.41 777.558 1417.17 776.707 1418.64 776.707C1452.23 776.599 1485.83 776.623 1519.41 776.623H1522.59Z" fill="#A4CAEF" fill-opacity="0.1"/>
<path d="M1563.31 733.047C1562.42 733.994 1561.92 734.562 1561.38 735.099C1554.11 742.427 1546.87 749.791 1539.51 757.029C1538.56 757.965 1536.99 758.798 1535.71 758.804C1501.7 758.9 1467.7 758.876 1433.7 758.87C1433.05 758.87 1432.39 758.737 1431.29 758.616C1433.02 756.739 1433.68 755.876 1435.47 754.488C1442.41 749.079 1448.52 742.711 1453.93 735.757C1455.68 733.512 1457.34 732.799 1459.75 732.799C1493.15 732.854 1526.56 732.835 1559.96 732.842C1560.9 732.842 1561.85 732.956 1563.31 733.047Z" fill="#A4CAEF" fill-opacity="0.1"/>
<path d="M1404.17 526.081C1402.84 527.928 1402.09 529.473 1400.91 530.566C1385.09 545.336 1369.21 560.047 1353.34 574.763C1330.86 595.619 1308.37 616.462 1285.89 637.311C1284.56 638.537 1283.28 639.81 1281.86 640.927C1279.67 642.666 1276.83 642.43 1275.14 640.492C1273.35 638.446 1273.38 635.82 1275.54 633.774C1282.01 627.629 1288.55 621.569 1295.09 615.502C1328.15 584.838 1361.23 554.192 1394.27 523.515C1396.09 521.831 1398.08 520.485 1400.39 521.849C1401.83 522.706 1402.76 524.451 1404.17 526.081Z" fill="#A4CAEF" fill-opacity="0.1"/>
<path d="M1393.04 498.785C1392.51 500.101 1391.33 501.223 1390.25 502.225C1373.83 517.521 1357.38 532.787 1340.93 548.053C1318.45 568.902 1295.98 589.751 1273.47 610.565C1272.21 611.73 1270.66 612.575 1268.72 613.939C1267.07 612.508 1265.33 611.585 1264.49 610.142C1263.35 608.15 1264.09 606.068 1265.82 604.468C1271.54 599.156 1277.27 593.832 1282.99 588.52C1305.41 567.743 1327.82 546.978 1350.22 526.201C1361.68 515.572 1373.13 504.93 1384.57 494.282C1386.6 492.398 1388.82 491.547 1391.32 493.213C1393.33 494.547 1393.9 496.654 1393.04 498.785Z" fill="#A4CAEF" fill-opacity="0.1"/>
<path d="M1587.13 741.099C1586.33 742.349 1585.2 743.399 1584.16 744.48C1562.07 767.448 1539.99 790.416 1517.86 813.341C1516.75 814.488 1515.24 815.255 1513.47 816.523C1511.84 815.188 1509.86 814.356 1509.39 812.991C1508.87 811.482 1509.17 809.092 1510.1 807.794C1512.06 805.048 1514.65 802.742 1517.01 800.291C1537.5 778.989 1558.01 757.699 1578.51 736.403C1579.07 735.829 1579.61 735.226 1580.24 734.743C1582.4 733.119 1584.55 733.246 1586.47 735.081C1588.32 736.844 1588.44 739.011 1587.13 741.099Z" fill="#A4CAEF" fill-opacity="0.1"/>
<path d="M1136.27 0.773174C1136.01 0.57988 1135.73 0.386587 1135.43 0.199334C1135.73 0.392627 1136 0.585921 1136.27 0.773174Z" fill="#A4CAEF" fill-opacity="0.1"/>
<path d="M936.106 386.629C936.112 390.706 934.825 393.95 932.049 396.904C885.527 446.375 839.054 495.894 792.569 545.395C779.724 559.071 766.525 572.42 754.162 586.519C750.826 590.324 746.324 592.058 742.459 591.182C742.243 591.133 742.026 591.079 741.816 591.013C741.545 590.934 741.281 590.837 741.023 590.723C740.914 590.68 740.812 590.632 740.71 590.584C740.349 590.421 740.001 590.227 739.664 590.004C739.556 589.931 739.448 589.859 739.346 589.78C738.468 589.158 737.675 588.343 736.995 587.328C736.905 587.201 736.821 587.068 736.743 586.935C736.394 586.38 736.082 585.764 735.805 585.093C735.757 584.966 735.703 584.839 735.655 584.713C735.481 584.266 735.331 583.788 735.192 583.293C735.156 583.166 735.12 583.033 735.09 582.9C735.072 582.852 735.06 582.798 735.048 582.743V582.731C735.036 582.369 735.012 581.795 735 581.439C735.006 581.42 735.006 581.396 735.012 581.378C735.09 580.943 735.192 580.52 735.319 580.116C735.385 579.898 735.457 579.693 735.535 579.488C735.607 579.276 735.691 579.077 735.775 578.877C735.86 578.678 735.956 578.479 736.052 578.286C737.104 576.159 738.708 574.371 740.397 572.583C772.289 538.691 804.133 504.737 835.995 470.814C861.948 443.173 887.895 415.526 913.921 387.946C915.916 385.832 916.812 383.754 916.806 380.794C916.71 341.876 916.776 302.957 916.704 264.033C916.698 259.291 917.96 255.48 922.48 253.444C928.611 250.683 935.3 254.821 936.016 261.725C936.106 262.619 936.064 263.531 936.064 264.437C936.064 305.168 936.04 345.899 936.106 386.629Z" fill="#A4CAEF" fill-opacity="0.1"/>
<path d="M1139 4.96522C1139 5.7082 1138.77 6.48137 1138.3 7.29079C1138.19 7.49616 1138.05 7.69549 1137.91 7.90087C1137.48 8.52303 1136.9 9.16332 1136.21 9.82776C1115.77 29.3746 1095.34 48.9395 1074.84 68.4198C1073.07 70.0991 1072.44 71.7723 1072.44 74.1703C1072.5 143.575 1072.47 212.979 1072.54 282.378C1072.54 285.615 1071.65 288.007 1069.39 290.393C1009.33 353.576 949.335 416.831 889.326 480.068C856.31 514.855 823.282 549.624 790.261 584.392C787.616 587.177 784.917 587.521 782.657 585.425C780.518 583.438 780.77 580.442 783.312 577.766C833.939 524.429 884.566 471.098 935.192 417.767C977.109 373.6 1019.02 329.414 1060.98 285.283C1062.43 283.761 1062.88 282.239 1062.88 280.203C1062.84 210.599 1062.86 140.995 1062.78 71.3917C1062.78 68.2809 1064.05 65.303 1066.31 63.1647C1087.59 42.9474 1108.78 22.6153 1129.99 2.32556C1130.77 1.58863 1131.6 0.918144 1132.4 0.217455H1132.41C1133.4 0.13893 1134.12 0.0785254 1135.12 0C1135.22 0.0664446 1135.32 0.126849 1135.43 0.199334C1135.73 0.386587 1136.01 0.57988 1136.27 0.773174C1136.39 0.86982 1136.52 0.966467 1136.64 1.06311C1136.76 1.15976 1136.88 1.25641 1136.99 1.35305C1137.1 1.4497 1137.21 1.54635 1137.31 1.64299C1137.42 1.73964 1137.51 1.84233 1137.61 1.93897C1137.7 2.03562 1137.79 2.13227 1137.87 2.22891C1137.96 2.3316 1138.03 2.42825 1138.11 2.52489C1138.2 2.65174 1138.29 2.77859 1138.37 2.90544C1138.42 2.97793 1138.46 3.05041 1138.5 3.1229C1138.56 3.23162 1138.62 3.34639 1138.67 3.46116C1138.71 3.54573 1138.74 3.63029 1138.78 3.7209C1138.85 3.92023 1138.91 4.12561 1138.95 4.33702C1138.98 4.54239 1139 4.75381 1139 4.96522Z" fill="#A4CAEF" fill-opacity="0.1"/>
<path d="M1199.4 310.616C1197.9 311.027 1196.25 311.009 1194.66 311.015C1160.55 311.033 1126.44 311.045 1092.33 310.979C1090.14 310.973 1088.66 311.607 1087.17 313.226C1046.89 356.578 1006.56 399.894 966.236 443.204C937.662 473.883 909.082 504.562 880.496 535.229C876.259 539.772 870.525 540.207 866.39 536.383C862.2 532.511 862.249 526.495 866.498 521.934C923.027 461.228 979.562 400.534 1036.09 339.822C1049.49 325.44 1062.92 311.076 1076.2 296.585C1079.34 293.154 1082.79 291.583 1087.49 291.631C1105.3 291.819 1123.1 291.704 1140.91 291.704C1158.71 291.704 1177.92 291.692 1196.43 291.716C1201.37 291.728 1205.6 295.238 1206.25 299.713C1206.98 304.763 1204.22 309.288 1199.4 310.616Z" fill="#A4CAEF" fill-opacity="0.1"/>
<path d="M1038.39 281.447C1038.39 283.749 1037.71 285.355 1036.08 286.95C1027.54 295.28 1019.1 303.718 1010.62 312.114C1009.87 312.857 1009.09 313.57 1007.74 314.857V311.178C1007.74 267.138 1007.76 223.091 1007.7 179.05C1007.69 176.839 1008.35 175.329 1009.92 173.807C1018.55 165.423 1027.06 156.918 1035.63 148.461C1036.32 147.773 1037.05 147.114 1038.34 145.888V149.615C1038.34 193.559 1038.33 237.503 1038.39 281.447Z" fill="#A4CAEF" fill-opacity="0.1"/>
<path d="M992.304 329.384C992.298 330.822 991.775 332.658 990.819 333.637C981.828 342.8 972.692 351.818 963.592 360.873C963.201 361.265 962.756 361.604 961.987 362.268C961.921 360.83 961.843 359.87 961.843 358.91C961.837 314.863 961.855 270.816 961.795 226.775C961.789 224.583 962.402 223.061 963.97 221.526C972.571 213.106 981.052 204.571 989.581 196.078C990.278 195.377 991.024 194.725 992.364 193.481V196.948C992.364 241.091 992.382 285.241 992.304 329.384Z" fill="#A4CAEF" fill-opacity="0.1"/>
<path d="M1155.59 369.674C1154.71 370.749 1154.29 371.365 1153.78 371.89C1146.44 379.296 1139.13 386.732 1131.69 394.029C1130.68 395.013 1128.96 395.756 1127.56 395.762C1093.88 395.859 1060.18 395.841 1026.49 395.829C1025.63 395.829 1024.77 395.714 1023.29 395.605C1028.1 390.791 1032.47 386.406 1036.84 382.014C1040.31 378.535 1043.68 374.953 1047.29 371.631C1048.41 370.61 1050.17 369.758 1051.64 369.758C1085.23 369.649 1118.83 369.674 1152.41 369.674H1155.59Z" fill="#A4CAEF" fill-opacity="0.1"/>
<path d="M1196.31 326.068C1195.42 327.016 1194.92 327.584 1194.38 328.122C1187.11 335.455 1179.87 342.824 1172.51 350.066C1171.56 351.003 1169.99 351.836 1168.71 351.842C1134.7 351.939 1100.7 351.915 1066.7 351.909C1066.05 351.909 1065.39 351.776 1064.29 351.655C1066.02 349.776 1066.68 348.913 1068.47 347.523C1075.41 342.111 1081.52 335.739 1086.93 328.78C1088.68 326.533 1090.34 325.82 1092.75 325.82C1126.15 325.875 1159.56 325.856 1192.96 325.862C1193.9 325.862 1194.85 325.977 1196.31 326.068Z" fill="#A4CAEF" fill-opacity="0.1"/>
<path d="M1037.17 118.96C1035.84 120.808 1035.09 122.355 1033.91 123.448C1018.09 138.229 1002.21 152.949 986.342 167.676C963.856 188.546 941.371 209.403 918.886 230.267C917.563 231.493 916.277 232.768 914.865 233.885C912.671 235.625 909.834 235.389 908.139 233.45C906.348 231.402 906.384 228.775 908.541 226.727C915.009 220.578 921.548 214.513 928.088 208.443C961.151 177.757 994.227 147.09 1027.27 116.393C1029.09 114.708 1031.08 113.361 1033.39 114.726C1034.83 115.583 1035.76 117.329 1037.17 118.96Z" fill="#A4CAEF" fill-opacity="0.1"/>
<path d="M1026.04 91.6452C1025.51 92.962 1024.33 94.0856 1023.25 95.0883C1006.83 110.395 990.381 125.671 973.93 140.947C951.45 161.811 928.977 182.674 906.468 203.502C905.212 204.668 903.661 205.513 901.72 206.878C900.067 205.447 898.33 204.523 897.494 203.079C896.346 201.086 897.085 199.002 898.816 197.401C904.544 192.085 910.266 186.758 915.995 181.442C938.408 160.651 960.821 139.872 983.222 119.081C994.684 108.444 1006.13 97.7944 1017.57 87.1391C1019.6 85.2545 1021.82 84.4028 1024.32 86.0699C1026.33 87.4049 1026.9 89.513 1026.04 91.6452Z" fill="#A4CAEF" fill-opacity="0.1"/>
<path d="M1220.13 334.126C1219.33 335.376 1218.2 336.427 1217.16 337.508C1195.07 360.492 1172.99 383.476 1150.86 406.417C1149.75 407.565 1148.24 408.332 1146.47 409.601C1144.84 408.266 1142.86 407.432 1142.39 406.067C1141.87 404.557 1142.17 402.165 1143.1 400.866C1145.06 398.118 1147.65 395.81 1150.01 393.358C1170.5 372.041 1191.01 350.737 1211.51 329.426C1212.07 328.852 1212.61 328.248 1213.24 327.765C1215.4 326.14 1217.55 326.267 1219.47 328.103C1221.32 329.867 1221.44 332.036 1220.13 334.126Z" fill="#A4CAEF" fill-opacity="0.1"/>
<path d="M1136.27 407.773C1136.01 407.58 1135.73 407.387 1135.43 407.199C1135.73 407.393 1136 407.586 1136.27 407.773Z" fill="#A4CAEF" fill-opacity="0.1"/>
<path d="M936.106 793.629C936.112 797.706 934.825 800.95 932.049 803.904C885.527 853.375 839.054 902.894 792.569 952.395C779.724 966.071 766.525 979.42 754.162 993.519C750.826 997.324 746.324 999.058 742.459 998.182C742.243 998.133 742.026 998.079 741.816 998.013C741.545 997.934 741.281 997.837 741.023 997.723C740.914 997.68 740.812 997.632 740.71 997.584C740.349 997.421 740.001 997.227 739.664 997.004C739.556 996.931 739.448 996.859 739.346 996.78C738.468 996.158 737.675 995.343 736.995 994.328C736.905 994.201 736.821 994.068 736.743 993.935C736.394 993.38 736.082 992.764 735.805 992.093C735.757 991.966 735.703 991.839 735.655 991.713C735.481 991.266 735.331 990.788 735.192 990.293C735.156 990.166 735.12 990.033 735.09 989.9C735.072 989.852 735.06 989.798 735.048 989.743V989.731C735.036 989.369 735.012 988.795 735 988.439C735.006 988.42 735.006 988.396 735.012 988.378C735.09 987.943 735.192 987.52 735.319 987.116C735.385 986.898 735.457 986.693 735.535 986.488C735.607 986.276 735.691 986.077 735.775 985.877C735.86 985.678 735.956 985.479 736.052 985.286C737.104 983.159 738.708 981.371 740.397 979.583C772.289 945.691 804.133 911.737 835.995 877.814C861.948 850.173 887.895 822.526 913.921 794.946C915.916 792.832 916.812 790.754 916.806 787.794C916.71 748.876 916.776 709.957 916.704 671.033C916.698 666.291 917.96 662.48 922.48 660.444C928.611 657.683 935.3 661.821 936.016 668.725C936.106 669.619 936.064 670.531 936.064 671.437C936.064 712.168 936.04 752.899 936.106 793.629Z" fill="#A4CAEF" fill-opacity="0.1"/>
<path d="M1139 411.965C1139 412.708 1138.77 413.481 1138.3 414.291C1138.19 414.496 1138.05 414.695 1137.91 414.901C1137.48 415.523 1136.9 416.163 1136.21 416.828C1115.77 436.375 1095.34 455.939 1074.84 475.42C1073.07 477.099 1072.44 478.772 1072.44 481.17C1072.5 550.575 1072.47 619.979 1072.54 689.378C1072.54 692.615 1071.65 695.007 1069.39 697.393C1009.33 760.576 949.335 823.831 889.326 887.068C856.31 921.855 823.282 956.624 790.261 991.392C787.616 994.177 784.917 994.521 782.657 992.425C780.518 990.438 780.77 987.442 783.312 984.766C833.939 931.429 884.566 878.098 935.192 824.767C977.109 780.6 1019.02 736.414 1060.98 692.283C1062.43 690.761 1062.88 689.239 1062.88 687.203C1062.84 617.599 1062.86 547.995 1062.78 478.392C1062.78 475.281 1064.05 472.303 1066.31 470.165C1087.59 449.947 1108.78 429.615 1129.99 409.326C1130.77 408.589 1131.6 407.918 1132.4 407.217H1132.41C1133.4 407.139 1134.12 407.079 1135.12 407C1135.22 407.066 1135.32 407.127 1135.43 407.199C1135.73 407.387 1136.01 407.58 1136.27 407.773C1136.39 407.87 1136.52 407.966 1136.64 408.063C1136.76 408.16 1136.88 408.256 1136.99 408.353C1137.1 408.45 1137.21 408.546 1137.31 408.643C1137.42 408.74 1137.51 408.842 1137.61 408.939C1137.7 409.036 1137.79 409.132 1137.87 409.229C1137.96 409.332 1138.03 409.428 1138.11 409.525C1138.2 409.652 1138.29 409.779 1138.37 409.905C1138.42 409.978 1138.46 410.05 1138.5 410.123C1138.56 410.232 1138.62 410.346 1138.67 410.461C1138.71 410.546 1138.74 410.63 1138.78 410.721C1138.85 410.92 1138.91 411.126 1138.95 411.337C1138.98 411.542 1139 411.754 1139 411.965Z" fill="#A4CAEF" fill-opacity="0.1"/>
<path d="M1199.4 717.616C1197.9 718.027 1196.25 718.009 1194.66 718.015C1160.55 718.033 1126.44 718.045 1092.33 717.979C1090.14 717.973 1088.66 718.607 1087.17 720.226C1046.89 763.578 1006.56 806.894 966.236 850.204C937.662 880.883 909.082 911.562 880.496 942.229C876.259 946.772 870.525 947.207 866.39 943.383C862.2 939.511 862.249 933.495 866.498 928.934C923.027 868.228 979.562 807.534 1036.09 746.822C1049.49 732.44 1062.92 718.076 1076.2 703.585C1079.34 700.154 1082.79 698.583 1087.49 698.631C1105.3 698.819 1123.1 698.704 1140.91 698.704C1158.71 698.704 1177.92 698.692 1196.43 698.716C1201.37 698.728 1205.6 702.238 1206.25 706.713C1206.98 711.763 1204.22 716.288 1199.4 717.616Z" fill="#A4CAEF" fill-opacity="0.1"/>
<path d="M1038.39 688.447C1038.39 690.749 1037.71 692.355 1036.08 693.95C1027.54 702.28 1019.1 710.718 1010.62 719.114C1009.87 719.857 1009.09 720.57 1007.74 721.857V718.178C1007.74 674.138 1007.76 630.091 1007.7 586.05C1007.69 583.839 1008.35 582.329 1009.92 580.807C1018.55 572.423 1027.06 563.918 1035.63 555.461C1036.32 554.773 1037.05 554.114 1038.34 552.888V556.615C1038.34 600.559 1038.33 644.503 1038.39 688.447Z" fill="#A4CAEF" fill-opacity="0.1"/>
<path d="M992.304 736.384C992.298 737.822 991.775 739.658 990.819 740.637C981.828 749.8 972.692 758.818 963.592 767.873C963.201 768.265 962.756 768.604 961.987 769.268C961.921 767.83 961.843 766.87 961.843 765.91C961.837 721.863 961.855 677.816 961.795 633.775C961.789 631.583 962.402 630.061 963.97 628.526C972.571 620.106 981.052 611.571 989.581 603.078C990.278 602.377 991.024 601.725 992.364 600.481V603.948C992.364 648.091 992.382 692.241 992.304 736.384Z" fill="#A4CAEF" fill-opacity="0.1"/>
<path d="M1155.59 776.674C1154.71 777.749 1154.29 778.365 1153.78 778.89C1146.44 786.296 1139.13 793.732 1131.69 801.029C1130.68 802.013 1128.96 802.756 1127.56 802.762C1093.88 802.859 1060.18 802.841 1026.49 802.829C1025.63 802.829 1024.77 802.714 1023.29 802.605C1028.1 797.791 1032.47 793.406 1036.84 789.014C1040.31 785.535 1043.68 781.953 1047.29 778.631C1048.41 777.61 1050.17 776.758 1051.64 776.758C1085.23 776.649 1118.83 776.674 1152.41 776.674H1155.59Z" fill="#A4CAEF" fill-opacity="0.1"/>
<path d="M1196.31 733.068C1195.42 734.016 1194.92 734.584 1194.38 735.122C1187.11 742.455 1179.87 749.824 1172.51 757.066C1171.56 758.003 1169.99 758.836 1168.71 758.842C1134.7 758.939 1100.7 758.915 1066.7 758.909C1066.05 758.909 1065.39 758.776 1064.29 758.655C1066.02 756.776 1066.68 755.913 1068.47 754.523C1075.41 749.111 1081.52 742.739 1086.93 735.78C1088.68 733.533 1090.34 732.82 1092.75 732.82C1126.15 732.875 1159.56 732.856 1192.96 732.862C1193.9 732.862 1194.85 732.977 1196.31 733.068Z" fill="#A4CAEF" fill-opacity="0.1"/>
<path d="M1037.17 525.96C1035.84 527.808 1035.09 529.355 1033.91 530.448C1018.09 545.229 1002.21 559.949 986.342 574.676C963.856 595.546 941.371 616.403 918.886 637.267C917.563 638.493 916.277 639.768 914.865 640.885C912.671 642.625 909.834 642.389 908.139 640.45C906.348 638.402 906.384 635.775 908.541 633.727C915.009 627.578 921.548 621.513 928.088 615.443C961.151 584.757 994.227 554.09 1027.27 523.393C1029.09 521.708 1031.08 520.361 1033.39 521.726C1034.83 522.583 1035.76 524.329 1037.17 525.96Z" fill="#A4CAEF" fill-opacity="0.1"/>
<path d="M1026.04 498.645C1025.51 499.962 1024.33 501.086 1023.25 502.088C1006.83 517.395 990.381 532.671 973.93 547.947C951.45 568.811 928.977 589.674 906.468 610.502C905.212 611.668 903.661 612.513 901.72 613.878C900.067 612.447 898.33 611.523 897.494 610.079C896.346 608.086 897.085 606.002 898.816 604.401C904.544 599.085 910.266 593.758 915.995 588.442C938.408 567.651 960.821 546.872 983.222 526.081C994.684 515.444 1006.13 504.794 1017.57 494.139C1019.6 492.254 1021.82 491.403 1024.32 493.07C1026.33 494.405 1026.9 496.513 1026.04 498.645Z" fill="#A4CAEF" fill-opacity="0.1"/>
<path d="M1220.13 741.126C1219.33 742.376 1218.2 743.427 1217.16 744.508C1195.07 767.492 1172.99 790.476 1150.86 813.417C1149.75 814.565 1148.24 815.332 1146.47 816.601C1144.84 815.266 1142.86 814.432 1142.39 813.067C1141.87 811.557 1142.17 809.165 1143.1 807.866C1145.06 805.118 1147.65 802.81 1150.01 800.358C1170.5 779.041 1191.01 757.737 1211.51 736.426C1212.07 735.852 1212.61 735.248 1213.24 734.765C1215.4 733.14 1217.55 733.267 1219.47 735.103C1221.32 736.867 1221.44 739.036 1220.13 741.126Z" fill="#A4CAEF" fill-opacity="0.1"/>
<path d="M769.268 0.974793C769.009 0.781632 768.727 0.588471 768.426 0.401346C768.727 0.594507 769.003 0.787668 769.268 0.974793Z" fill="#A4CAEF" fill-opacity="0.1"/>
<path d="M569.106 386.567C569.112 390.641 567.825 393.883 565.049 396.834C518.527 446.271 472.054 495.757 425.569 545.224C412.724 558.89 399.525 572.231 387.162 586.319C383.826 590.122 379.324 591.855 375.459 590.979C375.243 590.931 375.026 590.877 374.816 590.81C374.545 590.732 374.281 590.635 374.023 590.52C373.914 590.478 373.812 590.43 373.71 590.382C373.349 590.219 373.001 590.026 372.664 589.802C372.556 589.73 372.448 589.657 372.346 589.579C371.468 588.957 370.675 588.142 369.995 587.128C369.905 587.001 369.821 586.869 369.743 586.736C369.394 586.18 369.082 585.565 368.805 584.895C368.757 584.768 368.703 584.641 368.655 584.514C368.481 584.068 368.331 583.591 368.192 583.096C368.156 582.969 368.12 582.836 368.09 582.703C368.072 582.655 368.06 582.601 368.048 582.547V582.534C368.036 582.172 368.012 581.599 368 581.243C368.006 581.225 368.006 581.2 368.012 581.182C368.09 580.748 368.192 580.325 368.319 579.921C368.385 579.703 368.457 579.498 368.535 579.293C368.607 579.082 368.691 578.882 368.775 578.683C368.86 578.484 368.956 578.285 369.052 578.092C370.104 575.967 371.708 574.18 373.397 572.394C405.289 538.524 437.133 504.594 468.995 470.694C494.948 443.072 520.895 415.444 546.921 387.882C548.916 385.77 549.812 383.693 549.806 380.735C549.71 341.844 549.776 302.952 549.704 264.054C549.698 259.316 550.96 255.507 555.48 253.473C561.611 250.714 568.3 254.849 569.016 261.748C569.106 262.642 569.064 263.553 569.064 264.459C569.064 305.161 569.04 345.864 569.106 386.567Z" fill="#A4CAEF" fill-opacity="0.1"/>
<path d="M772.002 5.16397C772.002 5.90644 771.768 6.67908 771.299 7.48794C771.185 7.69318 771.053 7.89237 770.909 8.09761C770.476 8.71934 769.905 9.35919 769.208 10.0232C748.766 29.5566 728.342 49.1081 707.84 68.5751C706.067 70.2532 705.442 71.9253 705.442 74.3217C705.502 143.679 705.472 213.035 705.538 282.386C705.544 285.622 704.655 288.012 702.389 290.396C642.326 353.536 582.335 416.748 522.326 479.942C489.31 514.705 456.282 549.45 423.261 584.194C420.616 586.977 417.917 587.321 415.657 585.227C413.518 583.241 413.77 580.247 416.312 577.573C466.939 524.272 517.566 470.978 568.192 417.684C610.109 373.546 652.021 329.391 693.98 285.29C695.429 283.769 695.879 282.247 695.879 280.213C695.837 210.657 695.861 141.101 695.783 71.545C695.777 68.4363 697.051 65.4604 699.305 63.3236C720.589 43.1201 741.776 22.802 762.993 2.52612C763.768 1.78969 764.598 1.11966 765.403 0.419455H765.409C766.401 0.340983 767.116 0.28062 768.12 0.202148C768.222 0.268548 768.324 0.32891 768.426 0.401346C768.727 0.588471 769.009 0.781632 769.268 0.974793C769.394 1.07137 769.52 1.16795 769.64 1.26453C769.761 1.36111 769.881 1.4577 769.989 1.55428C770.103 1.65086 770.211 1.74744 770.314 1.84402C770.416 1.9406 770.512 2.04321 770.608 2.1398C770.698 2.23638 770.788 2.33296 770.872 2.42954C770.957 2.53215 771.035 2.62873 771.107 2.72531C771.203 2.85208 771.293 2.97884 771.365 3.1056C771.419 3.17804 771.462 3.25047 771.498 3.32291C771.564 3.43156 771.618 3.54625 771.672 3.66094C771.708 3.74545 771.744 3.82995 771.78 3.9205C771.852 4.1197 771.906 4.32493 771.948 4.5362C771.984 4.74143 772.002 4.9527 772.002 5.16397Z" fill="#A4CAEF" fill-opacity="0.1"/>
<path d="M832.402 310.606C830.899 311.016 829.247 310.998 827.66 311.004C793.55 311.022 759.44 311.035 725.331 310.968C723.143 310.962 721.664 311.596 720.168 313.214C679.891 356.536 639.561 399.822 599.236 443.102C570.662 473.761 542.082 504.419 513.496 535.065C509.259 539.604 503.525 540.039 499.39 536.218C495.2 532.349 495.249 526.337 499.498 521.779C556.027 461.115 612.562 400.462 669.091 339.791C682.488 325.419 695.915 311.065 709.199 296.584C712.342 293.155 715.792 291.586 720.492 291.634C738.296 291.821 756.105 291.706 773.908 291.706C791.711 291.706 810.921 291.694 829.427 291.718C834.374 291.73 838.605 295.238 839.254 299.71C839.981 304.757 837.223 309.278 832.402 310.606Z" fill="#A4CAEF" fill-opacity="0.1"/>
<path d="M671.387 281.457C671.393 283.757 670.713 285.362 669.085 286.956C660.538 295.28 652.099 303.713 643.624 312.103C642.873 312.845 642.091 313.558 640.745 314.843V311.167C640.745 267.157 640.757 223.14 640.697 179.13C640.691 176.92 641.352 175.411 642.921 173.89C651.546 165.512 660.063 157.013 668.628 148.562C669.319 147.874 670.046 147.216 671.338 145.99V149.715C671.338 193.629 671.326 237.543 671.387 281.457Z" fill="#A4CAEF" fill-opacity="0.1"/>
<path d="M625.304 329.361C625.298 330.797 624.775 332.632 623.819 333.61C614.828 342.767 605.692 351.779 596.592 360.828C596.201 361.22 595.756 361.558 594.987 362.222C594.921 360.786 594.843 359.826 594.843 358.866C594.837 314.849 594.855 270.833 594.795 226.822C594.789 224.631 595.402 223.11 596.97 221.577C605.571 213.162 614.052 204.633 622.581 196.146C623.278 195.446 624.024 194.794 625.364 193.55V197.015C625.364 241.128 625.382 285.248 625.304 329.361Z" fill="#A4CAEF" fill-opacity="0.1"/>
<path d="M788.585 369.623C787.714 370.697 787.293 371.313 786.776 371.838C779.437 379.238 772.135 386.669 764.688 393.961C763.684 394.945 761.959 395.687 760.564 395.693C726.876 395.79 693.181 395.772 659.492 395.76C658.632 395.76 657.773 395.645 656.294 395.536C661.097 390.726 665.472 386.343 669.842 381.955C673.31 378.478 676.682 374.898 680.294 371.578C681.406 370.558 683.173 369.707 684.64 369.707C718.232 369.599 751.825 369.623 785.412 369.623H788.585Z" fill="#A4CAEF" fill-opacity="0.1"/>
<path d="M829.313 326.047C828.423 326.994 827.918 327.562 827.383 328.099C820.111 335.427 812.868 342.791 805.511 350.029C804.555 350.965 802.993 351.798 801.706 351.804C767.705 351.9 733.703 351.876 699.702 351.87C699.047 351.87 698.392 351.737 697.292 351.616C699.023 349.739 699.684 348.876 701.469 347.488C708.411 342.079 714.518 335.711 719.933 328.757C721.682 326.512 723.335 325.799 725.752 325.799C759.152 325.854 792.558 325.835 825.959 325.842C826.902 325.842 827.846 325.956 829.313 326.047Z" fill="#A4CAEF" fill-opacity="0.1"/>
<path d="M670.166 119.081C668.844 120.928 668.087 122.473 666.915 123.566C651.089 138.336 635.209 153.047 619.342 167.763C596.856 188.619 574.371 209.462 551.886 230.311C550.563 231.537 549.277 232.81 547.865 233.927C545.671 235.666 542.834 235.43 541.139 233.492C539.348 231.446 539.384 228.82 541.541 226.774C548.009 220.629 554.548 214.569 561.088 208.502C594.151 177.838 627.227 147.192 660.273 116.515C662.088 114.831 664.078 113.485 666.392 114.849C667.834 115.706 668.76 117.451 670.166 119.081Z" fill="#A4CAEF" fill-opacity="0.1"/>
<path d="M659.041 91.7846C658.512 93.1006 657.328 94.2233 656.252 95.2253C639.825 110.521 623.381 125.787 606.93 141.053C584.45 161.902 561.977 182.751 539.468 203.565C538.212 204.73 536.661 205.575 534.72 206.939C533.067 205.508 531.33 204.585 530.494 203.142C529.346 201.15 530.085 199.068 531.816 197.468C537.544 192.156 543.266 186.832 548.995 181.52C571.408 160.743 593.821 139.978 616.222 119.201C627.684 108.572 639.128 97.9296 650.572 87.2816C652.604 85.3983 654.822 84.5471 657.322 86.2132C659.329 87.5472 659.9 89.6538 659.041 91.7846Z" fill="#A4CAEF" fill-opacity="0.1"/>
<path d="M853.126 334.099C852.333 335.349 851.203 336.399 850.163 337.48C828.075 360.448 805.992 383.416 783.861 406.341C782.749 407.488 781.241 408.255 779.474 409.523C777.839 408.188 775.861 407.356 775.392 405.991C774.869 404.482 775.17 402.092 776.096 400.794C778.061 398.048 780.646 395.742 783.008 393.291C803.504 371.989 824.005 350.699 844.513 329.403C845.066 328.829 845.613 328.226 846.244 327.743C848.396 326.119 850.548 326.246 852.471 328.081C854.316 329.844 854.437 332.011 853.126 334.099Z" fill="#A4CAEF" fill-opacity="0.1"/>
<path d="M769.268 407.975C769.009 407.782 768.727 407.588 768.426 407.401C768.727 407.595 769.003 407.788 769.268 407.975Z" fill="#A4CAEF" fill-opacity="0.1"/>
<path d="M569.106 793.567C569.112 797.641 567.825 800.883 565.049 803.834C518.527 853.271 472.054 902.757 425.569 952.224C412.724 965.89 399.525 979.231 387.162 993.319C383.826 997.122 379.324 998.855 375.459 997.979C375.243 997.931 375.026 997.877 374.816 997.81C374.545 997.732 374.281 997.635 374.023 997.52C373.914 997.478 373.812 997.43 373.71 997.382C373.349 997.219 373.001 997.026 372.664 996.802C372.556 996.73 372.448 996.657 372.346 996.579C371.468 995.957 370.675 995.142 369.995 994.128C369.905 994.001 369.821 993.869 369.743 993.736C369.394 993.18 369.082 992.565 368.805 991.895C368.757 991.768 368.703 991.641 368.655 991.514C368.481 991.068 368.331 990.591 368.192 990.096C368.156 989.969 368.12 989.836 368.09 989.703C368.072 989.655 368.06 989.601 368.048 989.547V989.534C368.036 989.172 368.012 988.599 368 988.243C368.006 988.225 368.006 988.2 368.012 988.182C368.09 987.748 368.192 987.325 368.319 986.921C368.385 986.703 368.457 986.498 368.535 986.293C368.607 986.082 368.691 985.882 368.775 985.683C368.86 985.484 368.956 985.285 369.052 985.092C370.104 982.967 371.708 981.18 373.397 979.394C405.289 945.524 437.133 911.594 468.995 877.694C494.948 850.072 520.895 822.444 546.921 794.882C548.916 792.77 549.812 790.693 549.806 787.735C549.71 748.844 549.776 709.952 549.704 671.054C549.698 666.316 550.96 662.507 555.48 660.473C561.611 657.714 568.3 661.849 569.016 668.748C569.106 669.642 569.064 670.553 569.064 671.459C569.064 712.161 569.04 752.864 569.106 793.567Z" fill="#A4CAEF" fill-opacity="0.1"/>
<path d="M772.002 412.164C772.002 412.906 771.768 413.679 771.299 414.488C771.185 414.693 771.053 414.892 770.909 415.098C770.476 415.719 769.905 416.359 769.208 417.023C748.766 436.557 728.342 456.108 707.84 475.575C706.067 477.253 705.442 478.925 705.442 481.322C705.502 550.679 705.472 620.035 705.538 689.386C705.544 692.622 704.655 695.012 702.389 697.396C642.326 760.536 582.335 823.748 522.326 886.942C489.31 921.705 456.282 956.45 423.261 991.194C420.616 993.977 417.917 994.321 415.657 992.227C413.518 990.241 413.77 987.247 416.312 984.573C466.939 931.272 517.566 877.978 568.192 824.684C610.109 780.546 652.021 736.391 693.98 692.29C695.429 690.769 695.879 689.247 695.879 687.213C695.837 617.657 695.861 548.101 695.783 478.545C695.777 475.436 697.051 472.46 699.305 470.324C720.589 450.12 741.776 429.802 762.993 409.526C763.768 408.79 764.598 408.12 765.403 407.419H765.409C766.401 407.341 767.116 407.281 768.12 407.202C768.222 407.269 768.324 407.329 768.426 407.401C768.727 407.588 769.009 407.782 769.268 407.975C769.394 408.071 769.52 408.168 769.64 408.265C769.761 408.361 769.881 408.458 769.989 408.554C770.103 408.651 770.211 408.747 770.314 408.844C770.416 408.941 770.512 409.043 770.608 409.14C770.698 409.236 770.788 409.333 770.872 409.43C770.957 409.532 771.035 409.629 771.107 409.725C771.203 409.852 771.293 409.979 771.365 410.106C771.419 410.178 771.462 410.25 771.498 410.323C771.564 410.432 771.618 410.546 771.672 410.661C771.708 410.745 771.744 410.83 771.78 410.92C771.852 411.12 771.906 411.325 771.948 411.536C771.984 411.741 772.002 411.953 772.002 412.164Z" fill="#A4CAEF" fill-opacity="0.1"/>
<path d="M832.402 717.606C830.899 718.016 829.247 717.998 827.66 718.004C793.55 718.022 759.44 718.035 725.331 717.968C723.143 717.962 721.664 718.596 720.168 720.214C679.891 763.536 639.561 806.822 599.236 850.102C570.662 880.761 542.082 911.419 513.496 942.065C509.259 946.604 503.525 947.039 499.39 943.218C495.2 939.349 495.249 933.337 499.498 928.779C556.027 868.115 612.562 807.462 669.091 746.791C682.488 732.419 695.915 718.065 709.199 703.584C712.342 700.155 715.792 698.586 720.492 698.634C738.296 698.821 756.105 698.706 773.908 698.706C791.711 698.706 810.921 698.694 829.427 698.718C834.374 698.73 838.605 702.238 839.254 706.71C839.981 711.757 837.223 716.278 832.402 717.606Z" fill="#A4CAEF" fill-opacity="0.1"/>
<path d="M671.387 688.457C671.393 690.757 670.713 692.362 669.085 693.956C660.538 702.28 652.099 710.713 643.624 719.103C642.873 719.845 642.091 720.558 640.745 721.843V718.167C640.745 674.157 640.757 630.14 640.697 586.13C640.691 583.92 641.352 582.411 642.921 580.89C651.546 572.512 660.063 564.013 668.628 555.562C669.319 554.874 670.046 554.216 671.338 552.99V556.715C671.338 600.629 671.326 644.543 671.387 688.457Z" fill="#A4CAEF" fill-opacity="0.1"/>
<path d="M625.304 736.361C625.298 737.797 624.775 739.632 623.819 740.61C614.828 749.767 605.692 758.779 596.592 767.828C596.201 768.22 595.756 768.558 594.987 769.222C594.921 767.786 594.843 766.826 594.843 765.866C594.837 721.849 594.855 677.833 594.795 633.822C594.789 631.631 595.402 630.11 596.97 628.577C605.571 620.162 614.052 611.633 622.581 603.146C623.278 602.446 624.024 601.794 625.364 600.55V604.015C625.364 648.128 625.382 692.248 625.304 736.361Z" fill="#A4CAEF" fill-opacity="0.1"/>
<path d="M788.585 776.623C787.714 777.697 787.293 778.313 786.776 778.838C779.437 786.238 772.135 793.669 764.688 800.961C763.684 801.945 761.959 802.687 760.564 802.693C726.876 802.79 693.181 802.772 659.492 802.76C658.632 802.76 657.773 802.645 656.294 802.536C661.097 797.726 665.472 793.343 669.842 788.955C673.31 785.478 676.682 781.898 680.294 778.578C681.406 777.558 683.173 776.707 684.64 776.707C718.232 776.599 751.825 776.623 785.412 776.623H788.585Z" fill="#A4CAEF" fill-opacity="0.1"/>
<path d="M829.313 733.047C828.423 733.994 827.918 734.562 827.383 735.099C820.111 742.427 812.868 749.791 805.511 757.029C804.555 757.965 802.993 758.798 801.706 758.804C767.705 758.9 733.703 758.876 699.702 758.87C699.047 758.87 698.392 758.737 697.292 758.616C699.023 756.739 699.684 755.876 701.469 754.488C708.411 749.079 714.518 742.711 719.933 735.757C721.682 733.512 723.335 732.799 725.752 732.799C759.152 732.854 792.558 732.835 825.959 732.842C826.902 732.842 827.846 732.956 829.313 733.047Z" fill="#A4CAEF" fill-opacity="0.1"/>
<path d="M670.166 526.081C668.844 527.928 668.087 529.473 666.915 530.566C651.089 545.336 635.209 560.047 619.342 574.763C596.856 595.619 574.371 616.462 551.886 637.311C550.563 638.537 549.277 639.81 547.865 640.927C545.671 642.666 542.834 642.43 541.139 640.492C539.348 638.446 539.384 635.82 541.541 633.774C548.009 627.629 554.548 621.569 561.088 615.502C594.151 584.838 627.227 554.192 660.273 523.515C662.088 521.831 664.078 520.485 666.392 521.849C667.834 522.706 668.76 524.451 670.166 526.081Z" fill="#A4CAEF" fill-opacity="0.1"/>
<path d="M659.041 498.785C658.512 500.101 657.328 501.223 656.252 502.225C639.825 517.521 623.381 532.787 606.93 548.053C584.45 568.902 561.977 589.751 539.468 610.565C538.212 611.73 536.661 612.575 534.72 613.939C533.067 612.508 531.33 611.585 530.494 610.142C529.346 608.15 530.085 606.068 531.816 604.468C537.544 599.156 543.266 593.832 548.995 588.52C571.408 567.743 593.821 546.978 616.222 526.201C627.684 515.572 639.128 504.93 650.572 494.282C652.604 492.398 654.822 491.547 657.322 493.213C659.329 494.547 659.9 496.654 659.041 498.785Z" fill="#A4CAEF" fill-opacity="0.1"/>
<path d="M853.126 741.099C852.333 742.349 851.203 743.399 850.163 744.48C828.075 767.448 805.992 790.416 783.861 813.341C782.749 814.488 781.241 815.255 779.474 816.523C777.839 815.188 775.861 814.356 775.392 812.991C774.869 811.482 775.17 809.092 776.096 807.794C778.061 805.048 780.646 802.742 783.008 800.291C803.504 778.989 824.005 757.699 844.513 736.403C845.066 735.829 845.613 735.226 846.244 734.743C848.396 733.119 850.548 733.246 852.471 735.081C854.316 736.844 854.437 739.011 853.126 741.099Z" fill="#A4CAEF" fill-opacity="0.1"/>
<path d="M401.268 0.974793C401.009 0.781632 400.727 0.588471 400.426 0.401346C400.727 0.594507 401.003 0.787668 401.268 0.974793Z" fill="#A4CAEF" fill-opacity="0.1"/>
<path d="M201.106 386.567C201.112 390.641 199.825 393.883 197.049 396.834C150.527 446.271 104.054 495.757 57.5687 545.224C44.7242 558.89 31.5251 572.231 19.1615 586.319C15.8257 590.122 11.3238 591.855 7.45904 590.979C7.24266 590.931 7.02629 590.877 6.81592 590.81C6.54545 590.732 6.28098 590.635 6.02253 590.52C5.91434 590.478 5.81216 590.43 5.70998 590.382C5.34935 590.219 5.00074 590.026 4.66416 589.802C4.55597 589.73 4.44778 589.657 4.3456 589.579C3.46806 588.957 2.67468 588.142 1.99549 587.128C1.90533 587.001 1.82118 586.869 1.74305 586.736C1.39444 586.18 1.08189 585.565 0.805408 584.895C0.757324 584.768 0.70323 584.641 0.655146 584.514C0.480841 584.068 0.330578 583.591 0.192336 583.096C0.156273 582.969 0.12021 582.836 0.0901577 582.703C0.0721261 582.655 0.0601051 582.601 0.0480841 582.547V582.534C0.0360631 582.172 0.012021 581.599 0 581.243C0.00601051 581.225 0.00601051 581.2 0.012021 581.182C0.0901577 580.748 0.192336 580.325 0.318557 579.921C0.384673 579.703 0.456799 579.498 0.534935 579.293C0.607062 579.082 0.691209 578.882 0.775356 578.683C0.859503 578.484 0.955671 578.285 1.05184 578.092C2.10368 575.967 3.70848 574.18 5.39744 572.394C37.2892 538.524 69.1329 504.594 100.995 470.694C126.948 443.072 152.895 415.444 178.921 387.882C180.916 385.77 181.812 383.693 181.806 380.735C181.71 341.844 181.776 302.952 181.704 264.054C181.698 259.316 182.96 255.507 187.48 253.473C193.611 250.714 200.3 254.849 201.016 261.748C201.106 262.642 201.064 263.553 201.064 264.459C201.064 305.161 201.04 345.864 201.106 386.567Z" fill="#A4CAEF" fill-opacity="0.1"/>
<path d="M404.002 5.16397C404.002 5.90644 403.768 6.67908 403.299 7.48794C403.185 7.69318 403.053 7.89237 402.909 8.09761C402.476 8.71934 401.905 9.35919 401.208 10.0232C380.766 29.5566 360.342 49.1081 339.84 68.5751C338.067 70.2532 337.442 71.9253 337.442 74.3217C337.502 143.679 337.472 213.035 337.538 282.386C337.544 285.622 336.655 288.012 334.389 290.396C274.326 353.536 214.335 416.748 154.326 479.942C121.31 514.705 88.2824 549.45 55.2606 584.194C52.616 586.977 49.9173 587.321 47.6573 585.227C45.5176 583.241 45.77 580.247 48.3125 577.573C98.939 524.272 149.566 470.978 200.192 417.684C242.109 373.546 284.021 329.391 325.98 285.29C327.429 283.769 327.879 282.247 327.879 280.213C327.837 210.657 327.861 141.101 327.783 71.545C327.777 68.4363 329.051 65.4604 331.305 63.3236C352.589 43.1201 373.776 22.802 394.993 2.52612C395.768 1.78969 396.598 1.11966 397.403 0.419455H397.409C398.401 0.340983 399.116 0.28062 400.12 0.202148C400.222 0.268548 400.324 0.32891 400.426 0.401346C400.727 0.588471 401.009 0.781632 401.268 0.974793C401.394 1.07137 401.52 1.16795 401.64 1.26453C401.761 1.36111 401.881 1.4577 401.989 1.55428C402.103 1.65086 402.211 1.74744 402.314 1.84402C402.416 1.9406 402.512 2.04321 402.608 2.1398C402.698 2.23638 402.788 2.33296 402.872 2.42954C402.957 2.53215 403.035 2.62873 403.107 2.72531C403.203 2.85208 403.293 2.97884 403.365 3.1056C403.419 3.17804 403.462 3.25047 403.498 3.32291C403.564 3.43156 403.618 3.54625 403.672 3.66094C403.708 3.74545 403.744 3.82995 403.78 3.9205C403.852 4.1197 403.906 4.32493 403.948 4.5362C403.984 4.74143 404.002 4.9527 404.002 5.16397Z" fill="#A4CAEF" fill-opacity="0.1"/>
<path d="M464.402 310.606C462.899 311.016 461.247 310.998 459.66 311.004C425.55 311.022 391.44 311.035 357.331 310.968C355.143 310.962 353.664 311.596 352.168 313.214C311.891 356.536 271.561 399.822 231.236 443.102C202.662 473.761 174.082 504.419 145.496 535.065C141.259 539.604 135.525 540.039 131.39 536.218C127.2 532.349 127.249 526.337 131.498 521.779C188.027 461.115 244.562 400.462 301.091 339.791C314.488 325.419 327.915 311.065 341.199 296.584C344.342 293.155 347.792 291.586 352.492 291.634C370.296 291.821 388.105 291.706 405.908 291.706C423.711 291.706 442.921 291.694 461.427 291.718C466.374 291.73 470.605 295.238 471.254 299.71C471.981 304.757 469.223 309.278 464.402 310.606Z" fill="#A4CAEF" fill-opacity="0.1"/>
<path d="M303.387 281.457C303.393 283.757 302.713 285.362 301.085 286.956C292.538 295.28 284.099 303.713 275.624 312.103C274.873 312.845 274.091 313.558 272.745 314.843V311.167C272.745 267.157 272.757 223.14 272.697 179.13C272.691 176.92 273.352 175.411 274.921 173.89C283.546 165.512 292.063 157.013 300.628 148.562C301.319 147.874 302.046 147.216 303.338 145.99V149.715C303.338 193.629 303.326 237.543 303.387 281.457Z" fill="#A4CAEF" fill-opacity="0.1"/>
<path d="M257.304 329.361C257.298 330.797 256.775 332.632 255.819 333.61C246.828 342.767 237.692 351.779 228.592 360.828C228.201 361.22 227.756 361.558 226.987 362.222C226.921 360.786 226.843 359.826 226.843 358.866C226.837 314.849 226.855 270.833 226.795 226.822C226.789 224.631 227.402 223.11 228.97 221.577C237.571 213.162 246.052 204.633 254.581 196.146C255.278 195.446 256.024 194.794 257.364 193.55V197.015C257.364 241.128 257.382 285.248 257.304 329.361Z" fill="#A4CAEF" fill-opacity="0.1"/>
<path d="M420.585 369.623C419.714 370.697 419.293 371.313 418.776 371.838C411.437 379.238 404.135 386.669 396.688 393.961C395.684 394.945 393.959 395.687 392.564 395.693C358.876 395.79 325.181 395.772 291.492 395.76C290.632 395.76 289.773 395.645 288.294 395.536C293.097 390.726 297.472 386.343 301.842 381.955C305.31 378.478 308.682 374.898 312.294 371.578C313.406 370.558 315.173 369.707 316.64 369.707C350.232 369.599 383.825 369.623 417.412 369.623H420.585Z" fill="#A4CAEF" fill-opacity="0.1"/>
<path d="M461.313 326.047C460.423 326.994 459.918 327.562 459.383 328.099C452.111 335.427 444.868 342.791 437.511 350.029C436.555 350.965 434.993 351.798 433.706 351.804C399.705 351.9 365.703 351.876 331.702 351.87C331.047 351.87 330.392 351.737 329.292 351.616C331.023 349.739 331.684 348.876 333.469 347.488C340.411 342.079 346.518 335.711 351.933 328.757C353.682 326.512 355.335 325.799 357.752 325.799C391.152 325.854 424.558 325.835 457.959 325.842C458.902 325.842 459.846 325.956 461.313 326.047Z" fill="#A4CAEF" fill-opacity="0.1"/>
<path d="M302.166 119.081C300.844 120.928 300.087 122.473 298.915 123.566C283.089 138.336 267.209 153.047 251.342 167.763C228.856 188.619 206.371 209.462 183.886 230.311C182.563 231.537 181.277 232.81 179.865 233.927C177.671 235.666 174.834 235.43 173.139 233.492C171.348 231.446 171.384 228.82 173.541 226.774C180.009 220.629 186.548 214.569 193.088 208.502C226.151 177.838 259.227 147.192 292.273 116.515C294.088 114.831 296.078 113.485 298.392 114.849C299.834 115.706 300.76 117.451 302.166 119.081Z" fill="#A4CAEF" fill-opacity="0.1"/>
<path d="M291.041 91.7846C290.512 93.1006 289.328 94.2233 288.252 95.2253C271.825 110.521 255.381 125.787 238.93 141.053C216.45 161.902 193.977 182.751 171.468 203.565C170.212 204.73 168.661 205.575 166.72 206.939C165.067 205.508 163.33 204.585 162.494 203.142C161.346 201.15 162.085 199.068 163.816 197.468C169.544 192.156 175.266 186.832 180.995 181.52C203.408 160.743 225.821 139.978 248.222 119.201C259.684 108.572 271.128 97.9296 282.572 87.2816C284.604 85.3983 286.822 84.5471 289.322 86.2132C291.329 87.5472 291.9 89.6538 291.041 91.7846Z" fill="#A4CAEF" fill-opacity="0.1"/>
<path d="M485.126 334.099C484.333 335.349 483.203 336.399 482.163 337.48C460.075 360.448 437.992 383.416 415.861 406.341C414.749 407.488 413.241 408.255 411.474 409.523C409.839 408.188 407.861 407.356 407.392 405.991C406.869 404.482 407.17 402.092 408.096 400.794C410.061 398.048 412.646 395.742 415.008 393.291C435.504 371.989 456.005 350.699 476.513 329.403C477.066 328.829 477.613 328.226 478.244 327.743C480.396 326.119 482.548 326.246 484.471 328.081C486.316 329.844 486.437 332.011 485.126 334.099Z" fill="#A4CAEF" fill-opacity="0.1"/>
<path d="M401.268 407.975C401.009 407.782 400.727 407.588 400.426 407.401C400.727 407.595 401.003 407.788 401.268 407.975Z" fill="#A4CAEF" fill-opacity="0.1"/>
<path d="M201.106 793.567C201.112 797.641 199.825 800.883 197.049 803.834C150.527 853.271 104.054 902.757 57.5687 952.224C44.7242 965.89 31.5251 979.231 19.1615 993.319C15.8257 997.122 11.3238 998.855 7.45904 997.979C7.24266 997.931 7.02629 997.877 6.81592 997.81C6.54545 997.732 6.28098 997.635 6.02253 997.52C5.91434 997.478 5.81216 997.43 5.70998 997.382C5.34935 997.219 5.00074 997.026 4.66416 996.802C4.55597 996.73 4.44778 996.657 4.3456 996.579C3.46806 995.957 2.67468 995.142 1.99549 994.128C1.90533 994.001 1.82118 993.869 1.74305 993.736C1.39444 993.18 1.08189 992.565 0.805408 991.895C0.757324 991.768 0.70323 991.641 0.655146 991.514C0.480841 991.068 0.330578 990.591 0.192336 990.096C0.156273 989.969 0.12021 989.836 0.0901577 989.703C0.0721261 989.655 0.0601051 989.601 0.0480841 989.547V989.534C0.0360631 989.172 0.012021 988.599 0 988.243C0.00601051 988.225 0.00601051 988.2 0.012021 988.182C0.0901577 987.748 0.192336 987.325 0.318557 986.921C0.384673 986.703 0.456799 986.498 0.534935 986.293C0.607062 986.082 0.691209 985.882 0.775356 985.683C0.859503 985.484 0.955671 985.285 1.05184 985.092C2.10368 982.967 3.70848 981.18 5.39744 979.394C37.2892 945.524 69.1329 911.594 100.995 877.694C126.948 850.072 152.895 822.444 178.921 794.882C180.916 792.77 181.812 790.693 181.806 787.735C181.71 748.844 181.776 709.952 181.704 671.054C181.698 666.316 182.96 662.507 187.48 660.473C193.611 657.714 200.3 661.849 201.016 668.748C201.106 669.642 201.064 670.553 201.064 671.459C201.064 712.161 201.04 752.864 201.106 793.567Z" fill="#A4CAEF" fill-opacity="0.1"/>
<path d="M404.002 412.164C404.002 412.906 403.768 413.679 403.299 414.488C403.185 414.693 403.053 414.892 402.909 415.098C402.476 415.719 401.905 416.359 401.208 417.023C380.766 436.557 360.342 456.108 339.84 475.575C338.067 477.253 337.442 478.925 337.442 481.322C337.502 550.679 337.472 620.035 337.538 689.386C337.544 692.622 336.655 695.012 334.389 697.396C274.326 760.536 214.335 823.748 154.326 886.942C121.31 921.705 88.2824 956.45 55.2606 991.194C52.616 993.977 49.9173 994.321 47.6573 992.227C45.5176 990.241 45.77 987.247 48.3125 984.573C98.939 931.272 149.566 877.978 200.192 824.684C242.109 780.546 284.021 736.391 325.98 692.29C327.429 690.769 327.879 689.247 327.879 687.213C327.837 617.657 327.861 548.101 327.783 478.545C327.777 475.436 329.051 472.46 331.305 470.324C352.589 450.12 373.776 429.802 394.993 409.526C395.768 408.79 396.598 408.12 397.403 407.419H397.409C398.401 407.341 399.116 407.281 400.12 407.202C400.222 407.269 400.324 407.329 400.426 407.401C400.727 407.588 401.009 407.782 401.268 407.975C401.394 408.071 401.52 408.168 401.64 408.265C401.761 408.361 401.881 408.458 401.989 408.554C402.103 408.651 402.211 408.747 402.314 408.844C402.416 408.941 402.512 409.043 402.608 409.14C402.698 409.236 402.788 409.333 402.872 409.43C402.957 409.532 403.035 409.629 403.107 409.725C403.203 409.852 403.293 409.979 403.365 410.106C403.419 410.178 403.462 410.25 403.498 410.323C403.564 410.432 403.618 410.546 403.672 410.661C403.708 410.745 403.744 410.83 403.78 410.92C403.852 411.12 403.906 411.325 403.948 411.536C403.984 411.741 404.002 411.953 404.002 412.164Z" fill="#A4CAEF" fill-opacity="0.1"/>
<path d="M464.402 717.606C462.899 718.016 461.247 717.998 459.66 718.004C425.55 718.022 391.44 718.035 357.331 717.968C355.143 717.962 353.664 718.596 352.168 720.214C311.891 763.536 271.561 806.822 231.236 850.102C202.662 880.761 174.082 911.419 145.496 942.065C141.259 946.604 135.525 947.039 131.39 943.218C127.2 939.349 127.249 933.337 131.498 928.779C188.027 868.115 244.562 807.462 301.091 746.791C314.488 732.419 327.915 718.065 341.199 703.584C344.342 700.155 347.792 698.586 352.492 698.634C370.296 698.821 388.105 698.706 405.908 698.706C423.711 698.706 442.921 698.694 461.427 698.718C466.374 698.73 470.605 702.238 471.254 706.71C471.981 711.757 469.223 716.278 464.402 717.606Z" fill="#A4CAEF" fill-opacity="0.1"/>
<path d="M303.387 688.457C303.393 690.757 302.713 692.362 301.085 693.956C292.538 702.28 284.099 710.713 275.624 719.103C274.873 719.845 274.091 720.558 272.745 721.843V718.167C272.745 674.157 272.757 630.14 272.697 586.13C272.691 583.92 273.352 582.411 274.921 580.89C283.546 572.512 292.063 564.013 300.628 555.562C301.319 554.874 302.046 554.216 303.338 552.99V556.715C303.338 600.629 303.326 644.543 303.387 688.457Z" fill="#A4CAEF" fill-opacity="0.1"/>
<path d="M257.304 736.361C257.298 737.797 256.775 739.632 255.819 740.61C246.828 749.767 237.692 758.779 228.592 767.828C228.201 768.22 227.756 768.558 226.987 769.222C226.921 767.786 226.843 766.826 226.843 765.866C226.837 721.849 226.855 677.833 226.795 633.822C226.789 631.631 227.402 630.11 228.97 628.577C237.571 620.162 246.052 611.633 254.581 603.146C255.278 602.446 256.024 601.794 257.364 600.55V604.015C257.364 648.128 257.382 692.248 257.304 736.361Z" fill="#A4CAEF" fill-opacity="0.1"/>
<path d="M420.585 776.623C419.714 777.697 419.293 778.313 418.776 778.838C411.437 786.238 404.135 793.669 396.688 800.961C395.684 801.945 393.959 802.687 392.564 802.693C358.876 802.79 325.181 802.772 291.492 802.76C290.632 802.76 289.773 802.645 288.294 802.536C293.097 797.726 297.472 793.343 301.842 788.955C305.31 785.478 308.682 781.898 312.294 778.578C313.406 777.558 315.173 776.707 316.64 776.707C350.232 776.599 383.825 776.623 417.412 776.623H420.585Z" fill="#A4CAEF" fill-opacity="0.1"/>
<path d="M461.313 733.047C460.423 733.994 459.918 734.562 459.383 735.099C452.111 742.427 444.868 749.791 437.511 757.029C436.555 757.965 434.993 758.798 433.706 758.804C399.705 758.9 365.703 758.876 331.702 758.87C331.047 758.87 330.392 758.737 329.292 758.616C331.023 756.739 331.684 755.876 333.469 754.488C340.411 749.079 346.518 742.711 351.933 735.757C353.682 733.512 355.335 732.799 357.752 732.799C391.152 732.854 424.558 732.835 457.959 732.842C458.902 732.842 459.846 732.956 461.313 733.047Z" fill="#A4CAEF" fill-opacity="0.1"/>
<path d="M302.166 526.081C300.844 527.928 300.087 529.473 298.915 530.566C283.089 545.336 267.209 560.047 251.342 574.763C228.856 595.619 206.371 616.462 183.886 637.311C182.563 638.537 181.277 639.81 179.865 640.927C177.671 642.666 174.834 642.43 173.139 640.492C171.348 638.446 171.384 635.82 173.541 633.774C180.009 627.629 186.548 621.569 193.088 615.502C226.151 584.838 259.227 554.192 292.273 523.515C294.088 521.831 296.078 520.485 298.392 521.849C299.834 522.706 300.76 524.451 302.166 526.081Z" fill="#A4CAEF" fill-opacity="0.1"/>
<path d="M291.041 498.785C290.512 500.101 289.328 501.223 288.252 502.225C271.825 517.521 255.381 532.787 238.93 548.053C216.45 568.902 193.977 589.751 171.468 610.565C170.212 611.73 168.661 612.575 166.72 613.939C165.067 612.508 163.33 611.585 162.494 610.142C161.346 608.15 162.085 606.068 163.816 604.468C169.544 599.156 175.266 593.832 180.995 588.52C203.408 567.743 225.821 546.978 248.222 526.201C259.684 515.572 271.128 504.93 282.572 494.282C284.604 492.398 286.822 491.547 289.322 493.213C291.329 494.547 291.9 496.654 291.041 498.785Z" fill="#A4CAEF" fill-opacity="0.1"/>
<path d="M485.126 741.099C484.333 742.349 483.203 743.399 482.163 744.48C460.075 767.448 437.992 790.416 415.861 813.341C414.749 814.488 413.241 815.255 411.474 816.523C409.839 815.188 407.861 814.356 407.392 812.991C406.869 811.482 407.17 809.092 408.096 807.794C410.061 805.048 412.646 802.742 415.008 800.291C435.504 778.989 456.005 757.699 476.513 736.403C477.066 735.829 477.613 735.226 478.244 734.743C480.396 733.119 482.548 733.246 484.471 735.081C486.316 736.844 486.437 739.011 485.126 741.099Z" fill="#A4CAEF" fill-opacity="0.1"/>
</svg>
