<svg width="64" height="64" viewBox="0 0 64 64" fill="none" xmlns="http://www.w3.org/2000/svg">
<path d="M0 30C0 13.4315 13.4315 0 30 0H34C50.5685 0 64 13.4315 64 30V34C64 50.5685 50.5685 64 34 64H30C13.4315 64 0 50.5685 0 34V30Z" fill="black"/>
<g clip-path="url(#clip0_1136_2722)">
<path fill-rule="evenodd" clip-rule="evenodd" d="M32 0C49.6736 0 64 14.6878 64 32.8093C64 47.3021 54.8416 59.5966 42.1344 63.939C40.512 64.2622 39.936 63.2376 39.936 62.364C39.936 61.2824 39.9744 57.7497 39.9744 53.3593C39.9744 50.3001 38.9504 48.3035 37.8016 47.2859C44.928 46.4731 52.416 43.6984 52.416 31.0968C52.416 27.5128 51.1744 24.5882 49.12 22.2906C49.4528 21.4618 50.5504 18.1246 48.8064 13.6062C48.8064 13.6062 46.1248 12.7271 40.016 16.9703C37.4592 16.2439 34.72 15.8784 32 15.8656C29.28 15.8784 26.544 16.2439 23.9904 16.9703C17.8752 12.7271 15.1872 13.6062 15.1872 13.6062C13.4496 18.1246 14.5472 21.4618 14.8768 22.2906C12.832 24.5882 11.5808 27.5128 11.5808 31.0968C11.5808 43.6664 19.0528 46.4836 26.16 47.3124C25.2448 48.1316 24.416 49.5768 24.128 51.6984C22.304 52.5368 17.6704 53.9878 14.816 48.9734C14.816 48.9734 13.1232 45.821 9.9104 45.5906C9.9104 45.5906 6.7904 45.5491 9.6928 47.5843C9.6928 47.5843 11.7888 48.5923 13.2448 52.3843C13.2448 52.3843 15.1232 58.2402 24.0256 56.2562C24.0416 58.9986 24.0704 61.5832 24.0704 62.364C24.0704 63.2312 23.4816 64.2461 21.8848 63.9421C9.16799 59.6061 0 47.3053 0 32.8093C0 14.6878 14.3296 0 32 0Z" fill="white"/>
</g>
<defs>
<clipPath id="clip0_1136_2722">
<rect width="64" height="64" fill="white"/>
</clipPath>
</defs>
</svg>
