<svg width="134" height="114" viewBox="0 0 134 114" fill="none" xmlns="http://www.w3.org/2000/svg">
<path d="M108.256 100.696L105.498 97.1842C114.754 89.9489 119.853 80.5113 119.853 70.6115C119.853 62.5856 118.54 52.5002 112.284 50.023C108.201 48.406 104.784 45.7307 101.164 42.8984C97.0567 39.6841 92.8111 36.3592 87.519 34.7494C81.0622 32.7844 74.1599 31.7867 67.0018 31.7867C59.8437 31.7867 53.1292 32.7898 46.685 34.769C41.2927 36.4252 36.3512 40.2463 31.9912 43.6159C28.3826 46.4054 24.9744 49.0396 21.7004 50.1479C17.1364 51.6935 14.6943 57.0708 14.2381 66.5905L9.77075 66.3764C10.0051 61.4827 10.7208 57.5866 11.9588 54.4634C13.6996 50.0712 16.4923 47.1978 20.2637 45.9217C22.8275 45.0543 25.9477 42.6414 29.2521 40.0875C33.9145 36.4841 39.1994 32.3989 45.37 30.5035C52.2419 28.394 59.5199 27.325 67.0036 27.325C74.4873 27.325 81.946 28.3869 88.8269 30.4803C94.9169 32.3347 99.4987 35.9202 103.929 39.3879C107.285 42.015 110.457 44.4975 113.937 45.8753C120.832 48.6041 124.329 56.9281 124.329 70.6115C124.329 81.9141 118.622 92.5974 108.26 100.696H108.256Z" fill="white"/>
<path d="M49.0572 24.2783C48.9982 24.2926 48.9356 24.3069 48.8676 24.3229C48.0822 24.5192 47.2574 24.2212 46.7726 23.5733C42.5575 17.9283 36.3207 9.66502 30.4937 6.17411C30.0786 5.92604 29.2055 6.04026 29.0427 6.49358C26.1104 14.6694 24.994 25.8988 24.5897 34.9277C24.5432 35.9503 24.1317 36.9212 23.4393 37.6762C23.4304 37.6851 23.4232 37.694 23.4143 37.7029C22.8364 38.3419 21.7719 37.926 21.7629 37.0658C21.6323 24.8744 21.8739 14.2535 26.4629 3.02409C27.064 1.63736 28.4577 0.994861 29.7011 1.53742C38.4301 5.17824 44.8046 15.0816 49.8247 22.3222C50.3364 23.0611 49.9339 24.0766 49.0554 24.2783H49.0572Z" fill="white"/>
<path d="M22.7255 39.0844C22.4858 39.0844 22.2407 39.0416 22.0063 38.9523C21.2173 38.6543 20.7003 37.919 20.6913 37.0784C20.5571 24.5086 20.8237 13.9895 25.4717 2.62084L25.4807 2.59942C25.9083 1.61426 26.6525 0.87182 27.5757 0.507738C28.4058 0.181134 29.3147 0.19898 30.1341 0.555923C38.5553 4.06825 44.7277 13.0311 49.6888 20.2324C50.0359 20.7357 50.3758 21.2301 50.7104 21.712C51.1523 22.3491 51.2489 23.1612 50.968 23.884C50.6853 24.6103 50.0609 25.1476 49.2988 25.3207C49.2469 25.3332 49.1914 25.3457 49.1306 25.3617C47.923 25.6651 46.6617 25.2136 45.9138 24.2124C42.1049 19.1134 35.7393 10.586 29.9856 7.11655C29.9785 7.11655 29.9713 7.11655 29.9623 7.11655C27.6741 13.6415 26.1892 23.2629 25.6632 34.976C25.6059 36.2396 25.0978 37.455 24.2319 38.3991L24.214 38.4187C23.824 38.8506 23.2837 39.0826 22.7255 39.0826V39.0844ZM27.4523 3.44181C23.001 14.3393 22.7094 24.555 22.8328 36.7339C23.2461 36.1967 23.4876 35.5489 23.5181 34.8814C24.0673 22.6293 25.5862 12.9561 28.0337 6.13495C28.2019 5.66736 28.5848 5.30684 29.1143 5.11766C29.7602 4.88743 30.5188 4.94276 31.0465 5.25866C37.1742 8.92982 43.7222 17.6981 47.6349 22.9363C47.8621 23.2415 48.2432 23.3789 48.6064 23.2879C48.6815 23.2682 48.7513 23.2522 48.8175 23.2361C48.907 23.2165 48.9463 23.1576 48.9642 23.1112C48.9893 23.0487 48.9821 22.988 48.9428 22.9327C48.6064 22.4491 48.2647 21.9529 47.9176 21.4478C43.1175 14.4767 37.1419 5.80299 29.2879 2.52625C28.9748 2.39061 28.6599 2.38348 28.3593 2.50127C27.9729 2.65297 27.6526 2.98671 27.4523 3.44003V3.44181Z" fill="white"/>
<path d="M84.7513 24.2785C84.8121 24.2928 84.8747 24.3071 84.9427 24.3232C85.7335 24.5195 86.5654 24.2214 87.052 23.5736C91.2975 17.9285 97.579 9.66527 103.447 6.17436C103.866 5.92628 104.744 6.0405 104.907 6.49382C107.859 14.6696 108.984 25.8991 109.392 34.9279C109.439 35.9506 109.854 36.9215 110.552 37.6764C110.561 37.6853 110.568 37.6943 110.577 37.7032C111.158 38.3421 112.232 37.9263 112.241 37.066C112.371 24.8746 112.13 14.2538 107.507 3.02433C106.902 1.6376 105.497 0.995105 104.245 1.53766C95.4554 5.17848 89.0343 15.0819 83.9784 22.3225C83.4631 23.0614 83.8675 24.0769 84.7531 24.2785H84.7513Z" fill="white"/>
<path d="M111.271 39.0844C110.713 39.0844 110.172 38.8542 109.781 38.4241L109.757 38.3991C108.888 37.4585 108.376 36.2431 108.319 34.9778C107.789 23.2647 106.294 13.6415 103.989 7.11834C103.977 7.11834 103.964 7.11834 103.954 7.12012C98.1604 10.5878 91.7448 19.117 87.909 24.2177C87.1594 25.2154 85.8927 25.6651 84.6815 25.3635C84.6207 25.3492 84.5652 25.335 84.5133 25.3225C83.7458 25.1476 83.1178 24.6086 82.8351 23.8804C82.5543 23.1576 82.6527 22.3473 83.0964 21.712C83.4327 21.2301 83.7762 20.7357 84.1251 20.2324C89.1202 13.0311 95.3373 4.06826 103.832 0.550576C105.599 -0.215068 107.652 0.68086 108.489 2.59943L108.498 2.62085C113.178 13.9895 113.446 24.5104 113.312 37.0802C113.303 37.9172 112.788 38.6525 111.999 38.9524C111.761 39.0434 111.514 39.0862 111.271 39.0862V39.0844ZM104 4.97489C104.283 4.97489 104.569 5.02129 104.836 5.11767C105.363 5.30685 105.748 5.66558 105.916 6.13139C108.38 12.9544 109.909 22.6275 110.464 34.8814C110.494 35.556 110.743 36.211 111.169 36.75C111.292 24.564 111.003 14.3447 106.517 3.44361C106.147 2.60479 105.372 2.2175 104.673 2.52091C96.7435 5.80479 90.7268 14.4803 85.8927 21.4496C85.542 21.9547 85.1985 22.4509 84.8604 22.9345C84.8461 22.9541 84.8031 23.0166 84.8389 23.1058C84.8568 23.1522 84.898 23.2111 84.991 23.2326C85.059 23.2468 85.1288 23.2647 85.2039 23.2825C85.5742 23.3753 85.9643 23.2361 86.1933 22.9292C90.1328 17.6892 96.7274 8.9209 102.896 5.25331C103.209 5.0677 103.599 4.97311 104 4.97311V4.97489Z" fill="white"/>
<path d="M71.2794 113.543C70.3903 113.543 69.5744 113.531 68.8409 113.52C68.1557 113.509 67.5653 113.502 67.0554 113.506C58.4374 113.561 49.6279 112.069 41.5681 109.183C33.2542 106.206 26.1086 101.86 20.9006 96.6186C14.3776 90.0508 10.9998 82.1552 11.134 73.7831C11.134 73.7028 11.134 72.9568 11.134 72.8854L12.9231 72.8301C12.9266 72.9086 12.9231 73.7635 12.9231 73.8117C12.7978 81.693 15.9949 89.1442 22.1708 95.3621C32.3096 105.571 49.5098 111.835 67.0429 111.721C67.5707 111.717 68.1718 111.726 68.8678 111.737C74.2869 111.815 84.3702 111.964 95.0099 106.62C98.0835 105.076 98.7973 104.505 100.094 103.47C100.309 103.299 100.538 103.115 100.794 102.915L101.9 104.318C101.647 104.516 101.422 104.696 101.213 104.864C99.8672 105.938 99.055 106.588 95.8132 108.216C86.2326 113.026 77.1512 113.545 71.2794 113.545V113.543Z" fill="white"/>
<path d="M12.1036 73.3243C10.8173 73.3243 9.77246 72.2802 9.77246 70.9988C9.77246 69.7174 10.8191 68.6733 12.1036 68.6733C13.3882 68.6733 14.4348 69.7174 14.4348 70.9988C14.4348 72.2802 13.3882 73.3243 12.1036 73.3243ZM12.1036 69.6942C11.3826 69.6942 10.7976 70.2796 10.7976 70.997C10.7976 71.7145 11.3844 72.2999 12.1036 72.2999C12.8228 72.2999 13.4097 71.7145 13.4097 70.997C13.4097 70.2796 12.8228 69.6942 12.1036 69.6942Z" fill="white"/>
<path d="M103.324 105.025C101.907 105.025 100.756 103.875 100.756 102.463C100.756 101.052 101.909 99.9006 103.324 99.9006C104.739 99.9006 105.891 101.05 105.891 102.463C105.891 103.877 104.739 105.025 103.324 105.025ZM103.324 101.027C102.529 101.027 101.885 101.671 101.885 102.462C101.885 103.252 102.531 103.897 103.324 103.897C104.116 103.897 104.762 103.252 104.762 102.462C104.762 101.671 104.116 101.027 103.324 101.027Z" fill="white"/>
<path d="M70.2327 53.4405C70.2327 52.043 69.2631 50.874 67.9642 50.5581V30.2516C67.9642 29.8679 67.6529 29.5574 67.2682 29.5574C66.8836 29.5574 66.5723 29.8679 66.5723 30.2516V50.5581C65.2734 50.874 64.3037 52.043 64.3037 53.4405C64.3037 55.0806 65.633 56.4138 67.2664 56.4138C68.8999 56.4138 70.2292 55.0788 70.2292 53.4405H70.2327ZM67.27 55.0271C66.4023 55.0271 65.6974 54.3168 65.6974 53.4405C65.6974 52.5642 66.4023 51.8538 67.27 51.8538C68.1377 51.8538 68.8426 52.5642 68.8426 53.4405C68.8426 54.3168 68.1377 55.0271 67.27 55.0271Z" fill="white"/>
<path d="M79.7006 50.2155C79.2909 49.7336 78.7488 49.4124 78.1441 49.2678V46.9155C78.1441 46.655 77.9974 46.4158 77.7648 46.298L72.326 43.5299V30.2516C72.326 29.8679 72.0147 29.5574 71.63 29.5574C71.2454 29.5574 70.9341 29.8679 70.9341 30.2516V43.9547C70.9341 44.2153 71.0808 44.4544 71.3134 44.5722L76.7522 47.3403V49.2696C76.3013 49.3784 75.8773 49.5855 75.5159 49.8978C74.2797 50.9651 74.1365 52.8462 75.1975 54.0865C75.7145 54.6915 76.4337 55.0574 77.2245 55.1163C78.0189 55.1788 78.781 54.9236 79.3804 54.406C80.6166 53.3387 80.7597 51.4576 79.6988 50.2173L79.7006 50.2155ZM78.4733 53.3566C78.1548 53.6314 77.7505 53.7653 77.3336 53.7332C76.915 53.7028 76.5339 53.5083 76.2602 53.1852C75.693 52.5196 75.7682 51.513 76.4302 50.9454C76.7486 50.6706 77.1583 50.5403 77.5698 50.5689C77.9884 50.5992 78.3695 50.7937 78.6433 51.1168C79.2104 51.7825 79.1352 52.789 78.4733 53.3584V53.3566Z" fill="white"/>
<path d="M87.0967 47.3424C88.3347 46.2751 88.4761 44.394 87.4151 43.1537C86.8981 42.5486 86.1789 42.1828 85.3881 42.1221C85.3112 42.1167 85.236 42.1132 85.1591 42.1132C84.4524 42.1132 83.7743 42.3648 83.234 42.8324C83.1016 42.9466 82.9871 43.0751 82.8798 43.2072L76.5876 40.1661V30.2502C76.5876 29.8665 76.2763 29.5559 75.8916 29.5559C75.507 29.5559 75.1957 29.8665 75.1957 30.2502V40.6015C75.1957 40.8674 75.3478 41.1102 75.5893 41.2262L82.2822 44.4619C82.0944 45.34 82.2912 46.2912 82.9156 47.0247C83.4326 47.6297 84.1518 47.9956 84.9426 48.0545C85.7298 48.1134 86.4991 47.8618 87.0985 47.3442L87.0967 47.3424ZM84.1429 43.8818C84.4614 43.607 84.8675 43.4767 85.2825 43.5053C85.7012 43.5356 86.0823 43.7301 86.3542 44.0532C86.9213 44.7189 86.8462 45.7254 86.1842 46.2948C85.898 46.5428 85.5402 46.6767 85.1663 46.6767C85.1269 46.6767 85.0857 46.6767 85.0464 46.6731C84.6277 46.6428 84.2467 46.4483 83.9729 46.1252C83.404 45.4595 83.4809 44.4529 84.1429 43.8836V43.8818Z" fill="white"/>
<path d="M59.0206 49.8944C58.6592 49.5821 58.2352 49.3768 57.7843 49.2662V47.3369L63.2231 44.5688C63.4557 44.451 63.6024 44.2118 63.6024 43.9513V30.2482C63.6024 29.8645 63.2911 29.554 62.9065 29.554C62.5218 29.554 62.2105 29.8645 62.2105 30.2482V43.5265L56.7717 46.2946C56.5391 46.4124 56.3924 46.6515 56.3924 46.9121V49.2644C55.7913 49.4107 55.2474 49.7302 54.8359 50.2121C53.775 51.456 53.9181 53.3353 55.1544 54.4026C55.7537 54.9201 56.5159 55.1754 57.3102 55.1129C58.101 55.054 58.8202 54.6863 59.3372 54.0831C60.3982 52.8392 60.255 50.9599 59.0188 49.8944H59.0206ZM58.2799 53.1854C58.0062 53.5066 57.6251 53.7012 57.2082 53.7315C57.1689 53.7351 57.1277 53.7369 57.0884 53.7369C56.7144 53.7369 56.3566 53.603 56.0704 53.3549C55.4102 52.7838 55.3333 51.779 55.9004 51.1133C56.1741 50.7921 56.5552 50.5976 56.9739 50.5654C57.3836 50.5333 57.7968 50.6672 58.1135 50.942C58.7737 51.5131 58.8506 52.5179 58.2817 53.1836L58.2799 53.1854Z" fill="white"/>
<path d="M49.381 42.113C49.3041 42.113 49.2289 42.1166 49.152 42.1219C48.3612 42.1826 47.642 42.5485 47.125 43.1535C46.064 44.3974 46.2072 46.2768 47.4434 47.3422C48.0445 47.8598 48.8121 48.1097 49.5993 48.0525C50.39 47.9919 51.1093 47.626 51.6263 47.0228C52.2525 46.291 52.4493 45.3398 52.2596 44.4599L58.9526 41.2242C59.1923 41.1082 59.3462 40.8655 59.3462 40.5996V30.2482C59.3462 29.8645 59.0349 29.554 58.6502 29.554C58.2656 29.554 57.9543 29.8645 57.9543 30.2482V40.1641L51.6621 43.2053C51.5547 43.0732 51.4402 42.9447 51.3078 42.8305C50.7657 42.3629 50.0895 42.1112 49.3828 42.1112L49.381 42.113ZM50.5672 46.1233C50.2934 46.4445 49.9124 46.6391 49.4937 46.6712C49.4543 46.6747 49.4132 46.6747 49.3738 46.6747C48.9999 46.6747 48.6421 46.5409 48.3559 46.2928C47.6957 45.7217 47.6187 44.7169 48.1859 44.053C48.4596 43.7317 48.8407 43.5372 49.2576 43.5051C49.6744 43.473 50.0805 43.6068 50.3972 43.8817C51.0592 44.4528 51.1343 45.4576 50.5672 46.1233Z" fill="white"/>
<path d="M37.2242 74.3861C33.2024 73.3331 30.1233 71.2771 28.7762 68.7464C28.0462 67.3722 28.5311 65.6517 29.88 64.8289C33.3687 62.7033 38.4694 61.4844 43.8778 61.4844C45.5023 61.4844 47.1053 61.5932 48.6439 61.8056L48.4024 63.5475C46.9443 63.3458 45.4218 63.2441 43.8778 63.2441C38.7861 63.2441 34.02 64.3685 30.7996 66.3299C30.2432 66.669 30.0393 67.3686 30.3345 67.9218C31.4508 70.0207 34.1255 71.7572 37.6733 72.6853L37.226 74.3861H37.2242Z" fill="white"/>
<path d="M43.1426 74.8431C42.2301 74.8431 41.3427 74.7699 40.5037 74.6146L40.6844 73.6545C41.4555 73.799 42.2766 73.865 43.1229 73.865C48.1126 73.865 54.013 71.5574 56.0043 69.157C56.7128 68.3021 56.9507 67.5347 56.7146 66.8725C56.2011 65.4394 53.5694 64.4507 51.4708 64.0402L51.6586 63.0818C52.8537 63.3156 56.8183 64.2579 57.6359 66.5441C57.9973 67.5525 57.7021 68.6412 56.7575 69.7798C54.5873 72.3962 48.4454 74.8431 43.1426 74.8431Z" fill="white"/>
<path d="M50.5673 64.5363C49.7872 64.5363 49.1521 63.9027 49.1521 63.1246C49.1521 62.3465 49.7872 61.7129 50.5673 61.7129C51.3473 61.7129 51.9824 62.3465 51.9824 63.1246C51.9824 63.9027 51.3473 64.5363 50.5673 64.5363ZM50.5673 62.1198C50.0127 62.1198 49.5618 62.5696 49.5618 63.1228C49.5618 63.6761 50.0127 64.1258 50.5673 64.1258C51.1219 64.1258 51.5727 63.6761 51.5727 63.1228C51.5727 62.5696 51.1219 62.1198 50.5673 62.1198Z" fill="white"/>
<path d="M39.5339 75.3266C38.7539 75.3266 38.1188 74.693 38.1188 73.9149C38.1188 73.1368 38.7539 72.5032 39.5339 72.5032C40.314 72.5032 40.9491 73.1368 40.9491 73.9149C40.9491 74.693 40.314 75.3266 39.5339 75.3266ZM39.5339 72.9101C38.9793 72.9101 38.5285 73.3598 38.5285 73.9131C38.5285 74.4664 38.9793 74.9161 39.5339 74.9161C40.0886 74.9161 40.5394 74.4664 40.5394 73.9131C40.5394 73.3598 40.0886 72.9101 39.5339 72.9101Z" fill="white"/>
<path d="M44.7795 65.9302L44.3376 66.6744C45.0479 67.1866 45.4254 68.0897 45.2196 68.9963C45.1606 69.2587 45.0568 69.505 44.9137 69.7245L45.5953 70.2545C45.8172 69.9315 45.9764 69.571 46.0623 69.1855C46.3521 67.9076 45.8028 66.6298 44.7795 65.932V65.9302ZM44.6739 70.0297C44.597 70.1118 44.5129 70.1903 44.4199 70.2635C44.0245 70.5758 43.5271 70.7489 43.0244 70.7489C42.858 70.7489 42.6916 70.7293 42.527 70.6936C41.3784 70.433 40.6342 69.339 40.7898 68.1968L39.9454 68.0058C39.6842 69.6138 40.7236 71.1719 42.3374 71.5324C42.5628 71.5842 42.7954 71.6092 43.0244 71.6092C43.7204 71.6092 44.4056 71.37 44.9548 70.9381C45.0997 70.8239 45.2339 70.6972 45.3556 70.5597L44.6721 70.0297H44.6739ZM43.7096 65.4662C43.4842 65.4144 43.2516 65.3894 43.0208 65.3894C42.3606 65.3894 41.7112 65.6054 41.1763 65.9944L41.7327 66.6566C42.1102 66.3942 42.5628 66.2496 43.0208 66.2496C43.1872 66.2496 43.3554 66.2675 43.52 66.305C43.6899 66.3424 43.851 66.3996 44.003 66.4727L44.4449 65.7303C44.2177 65.6143 43.9708 65.5233 43.7096 65.4644V65.4662ZM40.8775 66.2443C40.4803 66.6209 40.1869 67.0992 40.0313 67.6257L40.8757 67.8166C40.9848 67.4686 41.1745 67.1598 41.4339 66.9046L40.8775 66.2425V66.2443ZM44.7795 65.9302L44.3376 66.6744C45.0479 67.1866 45.4254 68.0897 45.2196 68.9963C45.1606 69.2587 45.0568 69.505 44.9137 69.7245L45.5953 70.2545C45.8172 69.9315 45.9764 69.571 46.0623 69.1855C46.3521 67.9076 45.8028 66.6298 44.7795 65.932V65.9302ZM44.4199 70.2635C44.0245 70.5758 43.5271 70.7489 43.0244 70.7489C42.858 70.7489 42.6916 70.7293 42.527 70.6936C41.3784 70.433 40.6342 69.339 40.7898 68.1968L39.9454 68.0058C39.6842 69.6138 40.7236 71.1719 42.3374 71.5324C42.5628 71.5842 42.7954 71.6092 43.0244 71.6092C43.7204 71.6092 44.4056 71.37 44.9548 70.9381C45.0997 70.8239 45.2339 70.6972 45.3556 70.5597L44.6721 70.0297C44.5952 70.1118 44.5111 70.1903 44.4181 70.2635H44.4199ZM43.019 66.2514C43.1854 66.2514 43.3536 66.2693 43.5182 66.3068C43.6882 66.3442 43.8492 66.4013 44.0012 66.4745L44.4431 65.7321C44.2159 65.6161 43.969 65.525 43.7078 65.4662C43.4824 65.4144 43.2498 65.3894 43.019 65.3894C42.3589 65.3894 41.7094 65.6054 41.1745 65.9944L41.7309 66.6566C42.1084 66.3942 42.561 66.2496 43.019 66.2496V66.2514ZM41.5359 68.5002C41.5359 69.3354 42.2157 70.0118 43.053 70.0118C43.8903 70.0118 44.5684 69.3354 44.5684 68.5002C44.5684 67.6649 43.8903 66.9867 43.053 66.9867C42.2157 66.9867 41.5359 67.6649 41.5359 68.5002ZM43.5683 68.5252C43.5683 68.8089 43.3375 69.0409 43.0512 69.0409C42.765 69.0409 42.5342 68.8089 42.5342 68.5252C42.5342 68.2414 42.7668 68.0094 43.0512 68.0094C43.3357 68.0094 43.5683 68.2396 43.5683 68.5252ZM42.6988 68.5252C42.6988 68.7197 42.8562 68.8767 43.0512 68.8767C43.2462 68.8767 43.4037 68.7197 43.4037 68.5252C43.4037 68.3306 43.2445 68.1754 43.0512 68.1754C42.858 68.1754 42.6988 68.3324 42.6988 68.5252ZM43.2534 68.5252C43.2534 68.6376 43.1622 68.725 43.053 68.725C42.9439 68.725 42.8526 68.6358 42.8526 68.5252C42.8526 68.4145 42.9439 68.3253 43.053 68.3253C43.1622 68.3253 43.2534 68.4163 43.2534 68.5252ZM41.4321 66.9064L40.8757 66.2443C40.4785 66.6209 40.1851 67.0992 40.0295 67.6257L40.8739 67.8166C40.9831 67.4686 41.1727 67.1598 41.4321 66.9046V66.9064ZM44.7795 65.9302L44.3376 66.6744C45.0479 67.1866 45.4254 68.0897 45.2196 68.9963C45.1606 69.2587 45.0568 69.505 44.9137 69.7245L45.5953 70.2545C45.8172 69.9315 45.9764 69.571 46.0623 69.1855C46.3521 67.9076 45.8028 66.6298 44.7795 65.932V65.9302ZM44.4199 70.2635C44.0245 70.5758 43.5271 70.7489 43.0244 70.7489C42.858 70.7489 42.6916 70.7293 42.527 70.6936C41.3784 70.433 40.6342 69.339 40.7898 68.1968L39.9454 68.0058C39.6842 69.6138 40.7236 71.1719 42.3374 71.5324C42.5628 71.5842 42.7954 71.6092 43.0244 71.6092C43.7204 71.6092 44.4056 71.37 44.9548 70.9381C45.0997 70.8239 45.2339 70.6972 45.3556 70.5597L44.6721 70.0297C44.5952 70.1118 44.5111 70.1903 44.4181 70.2635H44.4199ZM43.019 66.2514C43.1854 66.2514 43.3536 66.2693 43.5182 66.3068C43.6882 66.3442 43.8492 66.4013 44.0012 66.4745L44.4431 65.7321C44.2159 65.6161 43.969 65.525 43.7078 65.4662C43.4824 65.4144 43.2498 65.3894 43.019 65.3894C42.3589 65.3894 41.7094 65.6054 41.1745 65.9944L41.7309 66.6566C42.1084 66.3942 42.561 66.2496 43.019 66.2496V66.2514ZM41.5359 68.5002C41.5359 69.3354 42.2157 70.0118 43.053 70.0118C43.8903 70.0118 44.5684 69.3354 44.5684 68.5002C44.5684 67.6649 43.8903 66.9867 43.053 66.9867C42.2157 66.9867 41.5359 67.6649 41.5359 68.5002ZM43.5683 68.5252C43.5683 68.8089 43.3375 69.0409 43.0512 69.0409C42.765 69.0409 42.5342 68.8089 42.5342 68.5252C42.5342 68.2414 42.7668 68.0094 43.0512 68.0094C43.3357 68.0094 43.5683 68.2396 43.5683 68.5252ZM42.6988 68.5252C42.6988 68.7197 42.8562 68.8767 43.0512 68.8767C43.2462 68.8767 43.4037 68.7197 43.4037 68.5252C43.4037 68.3306 43.2445 68.1754 43.0512 68.1754C42.858 68.1754 42.6988 68.3324 42.6988 68.5252ZM43.2534 68.5252C43.2534 68.6376 43.1622 68.725 43.053 68.725C42.9439 68.725 42.8526 68.6358 42.8526 68.5252C42.8526 68.4145 42.9439 68.3253 43.053 68.3253C43.1622 68.3253 43.2534 68.4163 43.2534 68.5252ZM41.4321 66.9064L40.8757 66.2443C40.4785 66.6209 40.1851 67.0992 40.0295 67.6257L40.8739 67.8166C40.9831 67.4686 41.1727 67.1598 41.4321 66.9046V66.9064ZM43.053 68.1736C42.858 68.1736 42.7006 68.3306 42.7006 68.5234C42.7006 68.7161 42.858 68.875 43.053 68.875C43.248 68.875 43.4055 68.7179 43.4055 68.5234C43.4055 68.3288 43.2462 68.1736 43.053 68.1736ZM43.053 68.725C42.9421 68.725 42.8526 68.6358 42.8526 68.5252C42.8526 68.4145 42.9439 68.3253 43.053 68.3253C43.1622 68.3253 43.2534 68.4163 43.2534 68.5252C43.2534 68.634 43.1622 68.725 43.053 68.725ZM43.053 66.9867C42.2157 66.9867 41.5359 67.6649 41.5359 68.5002C41.5359 69.3354 42.2157 70.0118 43.053 70.0118C43.8903 70.0118 44.5684 69.3354 44.5684 68.5002C44.5684 67.6649 43.8903 66.9867 43.053 66.9867ZM43.053 69.0409C42.7686 69.0409 42.536 68.8089 42.536 68.5252C42.536 68.2414 42.7686 68.0094 43.053 68.0094C43.3375 68.0094 43.5701 68.2396 43.5701 68.5252C43.5701 68.8107 43.3393 69.0409 43.053 69.0409ZM43.053 68.1736C42.858 68.1736 42.7006 68.3306 42.7006 68.5234C42.7006 68.7161 42.858 68.875 43.053 68.875C43.248 68.875 43.4055 68.7179 43.4055 68.5234C43.4055 68.3288 43.2462 68.1736 43.053 68.1736ZM43.053 68.725C42.9421 68.725 42.8526 68.6358 42.8526 68.5252C42.8526 68.4145 42.9439 68.3253 43.053 68.3253C43.1622 68.3253 43.2534 68.4163 43.2534 68.5252C43.2534 68.634 43.1622 68.725 43.053 68.725ZM43.053 68.1736C42.858 68.1736 42.7006 68.3306 42.7006 68.5234C42.7006 68.7161 42.858 68.875 43.053 68.875C43.248 68.875 43.4055 68.7179 43.4055 68.5234C43.4055 68.3288 43.2462 68.1736 43.053 68.1736ZM43.053 68.725C42.9421 68.725 42.8526 68.6358 42.8526 68.5252C42.8526 68.4145 42.9439 68.3253 43.053 68.3253C43.1622 68.3253 43.2534 68.4163 43.2534 68.5252C43.2534 68.634 43.1622 68.725 43.053 68.725Z" fill="white"/>
<path d="M96.7794 74.3861L96.3321 72.6853C99.878 71.7554 102.555 70.0207 103.671 67.9218C103.964 67.3686 103.76 66.669 103.204 66.3299C99.9854 64.3685 95.2193 63.2441 90.1257 63.2441C88.5818 63.2441 87.0593 63.3458 85.6012 63.5475L85.3596 61.8056C86.8964 61.5932 88.5013 61.4844 90.1257 61.4844C95.5324 61.4844 100.635 62.7033 104.122 64.8289C105.471 65.6517 105.956 67.3722 105.226 68.7446C103.878 71.2771 100.798 73.3313 96.7776 74.3843L96.7794 74.3861Z" fill="white"/>
<path d="M90.8592 74.8431C85.5546 74.8431 79.4127 72.3962 77.2443 69.7798C76.3014 68.6412 76.0044 67.5525 76.3658 66.5441C77.1834 64.2579 81.1481 63.3156 82.3432 63.0818L82.531 64.0402C80.4324 64.4507 77.7989 65.4394 77.2872 66.8725C77.0511 67.5347 77.289 68.3039 77.9975 69.157C80.3251 71.9643 88.0038 74.645 93.3174 73.6545L93.4981 74.6146C92.6608 74.7717 91.7716 74.8431 90.8592 74.8431Z" fill="white"/>
<path d="M83.4363 64.5363C82.6562 64.5363 82.0211 63.9027 82.0211 63.1246C82.0211 62.3465 82.6562 61.7129 83.4363 61.7129C84.2163 61.7129 84.8515 62.3465 84.8515 63.1246C84.8515 63.9027 84.2163 64.5363 83.4363 64.5363ZM83.4363 62.1198C82.8817 62.1198 82.4308 62.5696 82.4308 63.1228C82.4308 63.6761 82.8817 64.1258 83.4363 64.1258C83.9909 64.1258 84.4417 63.6761 84.4417 63.1228C84.4417 62.5696 83.9909 62.1198 83.4363 62.1198Z" fill="white"/>
<path d="M94.4678 75.3266C93.6877 75.3266 93.0526 74.693 93.0526 73.9149C93.0526 73.1368 93.6877 72.5032 94.4678 72.5032C95.2478 72.5032 95.8829 73.1368 95.8829 73.9149C95.8829 74.693 95.2478 75.3266 94.4678 75.3266ZM94.4678 72.9101C93.9132 72.9101 93.4623 73.3598 93.4623 73.9131C93.4623 74.4664 93.9132 74.9161 94.4678 74.9161C95.0224 74.9161 95.4733 74.4664 95.4733 73.9131C95.4733 73.3598 95.0224 72.9101 94.4678 72.9101Z" fill="white"/>
<path d="M87.9394 69.1837C88.0253 69.5692 88.1845 69.9315 88.4063 70.2528L89.088 69.7227C88.9466 69.5014 88.8429 69.2569 88.782 68.9945C88.5763 68.0879 88.9538 67.1848 89.6641 66.6726L89.2222 65.9284C88.1988 66.628 87.6496 67.9041 87.9394 69.1819V69.1837ZM88.6461 70.5597C88.7677 70.6972 88.9019 70.8239 89.0468 70.9381C89.5961 71.37 90.2813 71.6092 90.9773 71.6092C91.2063 71.6092 91.4388 71.5824 91.6643 71.5324C93.278 71.1701 94.3157 69.612 94.0563 68.0058L93.2118 68.1968C93.3693 69.3408 92.6232 70.4348 91.4746 70.6936C91.31 70.7293 91.1436 70.7489 90.9773 70.7489C90.4745 70.7489 89.9772 70.5758 89.5818 70.2635C89.4887 70.1903 89.4046 70.1118 89.3277 70.0297L88.6443 70.5597H88.6461ZM89.5585 65.7321L90.0004 66.4745C90.1525 66.4013 90.3135 66.3442 90.4835 66.3068C90.6481 66.2693 90.8162 66.2514 90.9826 66.2514C91.4406 66.2514 91.8933 66.3942 92.2708 66.6583L92.8272 65.9962C92.2922 65.6071 91.6428 65.3912 90.9826 65.3912C90.7518 65.3912 90.5192 65.418 90.2938 65.4679C90.0308 65.5268 89.7857 65.6179 89.5585 65.7339V65.7321ZM92.5695 66.9064C92.829 67.1616 93.0186 67.4704 93.1277 67.8184L93.9722 67.6274C93.8165 67.1009 93.5231 66.6226 93.1259 66.2461L92.5695 66.9082V66.9064ZM87.9394 69.1837C88.0253 69.5692 88.1845 69.9315 88.4063 70.2528L89.088 69.7227C88.9466 69.5014 88.8429 69.2569 88.782 68.9945C88.5763 68.0879 88.9538 67.1848 89.6641 66.6726L89.2222 65.9284C88.1988 66.628 87.6496 67.9041 87.9394 69.1819V69.1837ZM89.3277 70.0297L88.6443 70.5597C88.7659 70.6972 88.9001 70.8239 89.045 70.9381C89.5943 71.37 90.2795 71.6092 90.9755 71.6092C91.2045 71.6092 91.437 71.5824 91.6625 71.5324C93.2762 71.1701 94.3139 69.612 94.0545 68.0058L93.21 68.1968C93.3675 69.3408 92.6214 70.4348 91.4728 70.6936C91.3082 70.7293 91.1418 70.7489 90.9755 70.7489C90.4727 70.7489 89.9754 70.5758 89.58 70.2635C89.4869 70.1903 89.4029 70.1118 89.3259 70.0297H89.3277ZM92.2708 66.6566L92.8272 65.9944C92.2922 65.6054 91.6428 65.3894 90.9826 65.3894C90.7518 65.3894 90.5192 65.4162 90.2938 65.4662C90.0308 65.525 89.7857 65.6161 89.5585 65.7321L90.0004 66.4745C90.1525 66.4013 90.3135 66.3442 90.4835 66.3068C90.6481 66.2693 90.8162 66.2514 90.9826 66.2514C91.4406 66.2514 91.8933 66.3942 92.2708 66.6583V66.6566ZM90.9504 66.9867C90.1131 66.9867 89.4351 67.6649 89.4351 68.5002C89.4351 69.3354 90.1131 70.0118 90.9504 70.0118C91.7877 70.0118 92.4676 69.3354 92.4676 68.5002C92.4676 67.6649 91.7877 66.9867 90.9504 66.9867ZM90.9504 68.0094C91.2349 68.0094 91.4675 68.2396 91.4675 68.5252C91.4675 68.8089 91.2349 69.0409 90.9504 69.0409C90.666 69.0409 90.4334 68.8089 90.4334 68.5252C90.4334 68.2414 90.6642 68.0094 90.9504 68.0094ZM90.9504 68.1736C90.7554 68.1736 90.598 68.3306 90.598 68.5234C90.598 68.7161 90.7572 68.875 90.9504 68.875C91.1454 68.875 91.3029 68.7179 91.3029 68.5234C91.3029 68.3288 91.1454 68.1736 90.9504 68.1736ZM90.9504 68.3235C91.0613 68.3235 91.1508 68.4145 91.1508 68.5234C91.1508 68.6358 91.0595 68.7233 90.9504 68.7233C90.8413 68.7233 90.75 68.634 90.75 68.5234C90.75 68.4127 90.8413 68.3235 90.9504 68.3235ZM93.1259 67.8166L93.9704 67.6257C93.8147 67.0992 93.5213 66.6209 93.1242 66.2443L92.5677 66.9064C92.8272 67.1616 93.0168 67.4704 93.1259 67.8184V67.8166ZM87.9394 69.1837C88.0253 69.5692 88.1845 69.9315 88.4063 70.2528L89.088 69.7227C88.9466 69.5014 88.8429 69.2569 88.782 68.9945C88.5763 68.0879 88.9538 67.1848 89.6641 66.6726L89.2222 65.9284C88.1988 66.628 87.6496 67.9041 87.9394 69.1819V69.1837ZM89.3277 70.0297L88.6443 70.5597C88.7659 70.6972 88.9001 70.8239 89.045 70.9381C89.5943 71.37 90.2795 71.6092 90.9755 71.6092C91.2045 71.6092 91.437 71.5824 91.6625 71.5324C93.2762 71.1701 94.3139 69.612 94.0545 68.0058L93.21 68.1968C93.3675 69.3408 92.6214 70.4348 91.4728 70.6936C91.3082 70.7293 91.1418 70.7489 90.9755 70.7489C90.4727 70.7489 89.9754 70.5758 89.58 70.2635C89.4869 70.1903 89.4029 70.1118 89.3259 70.0297H89.3277ZM92.2708 66.6566L92.8272 65.9944C92.2922 65.6054 91.6428 65.3894 90.9826 65.3894C90.7518 65.3894 90.5192 65.4162 90.2938 65.4662C90.0308 65.525 89.7857 65.6161 89.5585 65.7321L90.0004 66.4745C90.1525 66.4013 90.3135 66.3442 90.4835 66.3068C90.6481 66.2693 90.8162 66.2514 90.9826 66.2514C91.4406 66.2514 91.8933 66.3942 92.2708 66.6583V66.6566ZM90.9504 66.9867C90.1131 66.9867 89.4351 67.6649 89.4351 68.5002C89.4351 69.3354 90.1131 70.0118 90.9504 70.0118C91.7877 70.0118 92.4676 69.3354 92.4676 68.5002C92.4676 67.6649 91.7877 66.9867 90.9504 66.9867ZM90.9504 68.0094C91.2349 68.0094 91.4675 68.2396 91.4675 68.5252C91.4675 68.8089 91.2349 69.0409 90.9504 69.0409C90.666 69.0409 90.4334 68.8089 90.4334 68.5252C90.4334 68.2414 90.6642 68.0094 90.9504 68.0094ZM90.9504 68.1736C90.7554 68.1736 90.598 68.3306 90.598 68.5234C90.598 68.7161 90.7572 68.875 90.9504 68.875C91.1454 68.875 91.3029 68.7179 91.3029 68.5234C91.3029 68.3288 91.1454 68.1736 90.9504 68.1736ZM90.9504 68.3235C91.0613 68.3235 91.1508 68.4145 91.1508 68.5234C91.1508 68.6358 91.0595 68.7233 90.9504 68.7233C90.8413 68.7233 90.75 68.634 90.75 68.5234C90.75 68.4127 90.8413 68.3235 90.9504 68.3235ZM93.1259 67.8166L93.9704 67.6257C93.8147 67.0992 93.5213 66.6209 93.1242 66.2443L92.5677 66.9064C92.8272 67.1616 93.0168 67.4704 93.1259 67.8184V67.8166ZM90.5962 68.5252C90.5962 68.7197 90.7554 68.8767 90.9486 68.8767C91.1436 68.8767 91.3011 68.7197 91.3011 68.5252C91.3011 68.3306 91.1436 68.1754 90.9486 68.1754C90.7536 68.1754 90.5962 68.3324 90.5962 68.5252ZM90.7482 68.5252C90.7482 68.4145 90.8395 68.3253 90.9486 68.3253C91.0578 68.3253 91.149 68.4163 91.149 68.5252C91.149 68.6376 91.0578 68.725 90.9486 68.725C90.8395 68.725 90.7482 68.6358 90.7482 68.5252ZM89.4333 68.5002C89.4333 69.3354 90.1113 70.0118 90.9486 70.0118C91.7859 70.0118 92.4658 69.3354 92.4658 68.5002C92.4658 67.6649 91.7859 66.9867 90.9486 66.9867C90.1113 66.9867 89.4333 67.6649 89.4333 68.5002ZM90.4334 68.5252C90.4334 68.2414 90.6642 68.0094 90.9504 68.0094C91.2367 68.0094 91.4675 68.2396 91.4675 68.5252C91.4675 68.8089 91.2349 69.0409 90.9504 69.0409C90.666 69.0409 90.4334 68.8089 90.4334 68.5252ZM90.5962 68.5252C90.5962 68.7197 90.7554 68.8767 90.9486 68.8767C91.1436 68.8767 91.3011 68.7197 91.3011 68.5252C91.3011 68.3306 91.1436 68.1754 90.9486 68.1754C90.7536 68.1754 90.5962 68.3324 90.5962 68.5252ZM90.7482 68.5252C90.7482 68.4145 90.8395 68.3253 90.9486 68.3253C91.0578 68.3253 91.149 68.4163 91.149 68.5252C91.149 68.6376 91.0578 68.725 90.9486 68.725C90.8395 68.725 90.7482 68.6358 90.7482 68.5252ZM90.5962 68.5252C90.5962 68.7197 90.7554 68.8767 90.9486 68.8767C91.1436 68.8767 91.3011 68.7197 91.3011 68.5252C91.3011 68.3306 91.1436 68.1754 90.9486 68.1754C90.7536 68.1754 90.5962 68.3324 90.5962 68.5252ZM90.7482 68.5252C90.7482 68.4145 90.8395 68.3253 90.9486 68.3253C91.0578 68.3253 91.149 68.4163 91.149 68.5252C91.149 68.6376 91.0578 68.725 90.9486 68.725C90.8395 68.725 90.7482 68.6358 90.7482 68.5252Z" fill="white"/>
<path d="M131.312 100.104C127.804 98.4835 126.992 98.214 123.097 96.9255L121.744 96.4775C115.998 94.5696 112.649 94.202 108.408 93.7344L108.235 93.7148L108.412 92.1174L108.586 92.1371C112.92 92.6136 116.343 92.9902 122.252 94.9534L123.603 95.4013C127.571 96.7149 128.396 96.9879 131.989 98.6459L131.312 100.104Z" fill="white"/>
<path d="M108.684 89.0602L108.648 87.4539C113.806 87.3397 119.027 87.2505 124.169 87.1916C126.097 87.1684 127.196 87.1505 128.076 87.1345C129.55 87.1095 130.441 87.0934 133.667 87.0898V88.6961C130.455 88.6997 129.62 88.7139 128.103 88.7407C127.221 88.755 126.119 88.7746 124.186 88.7978C119.052 88.8585 113.835 88.9459 108.684 89.0602Z" fill="white"/>
<path d="M108.755 84.8643L108.578 83.267L108.752 83.2473C112.992 82.7815 116.341 82.4121 122.088 80.5042L123.44 80.0563C127.337 78.7677 128.147 78.5 131.656 76.8777L132.332 78.3358C128.74 79.9956 127.915 80.2687 123.947 81.5804L122.596 82.0284C116.686 83.9898 113.264 84.3664 108.929 84.8447L108.755 84.8643Z" fill="white"/>
<path d="M2.68958 100.104L2.01331 98.6459C5.60579 96.9861 6.43056 96.7131 10.3987 95.3995L11.7477 94.9534C17.6571 92.9919 21.0796 92.6154 25.4145 92.1371L25.5881 92.1174L25.7652 93.7148L25.5917 93.7344C21.3515 94.2002 18.0024 94.5696 12.2558 96.4775L10.9051 96.9255C7.00843 98.214 6.19798 98.4835 2.68958 100.104Z" fill="white"/>
<path d="M25.3179 89.0602C20.1672 88.9459 14.9502 88.8585 9.81552 88.7978C7.88331 88.7746 6.78124 88.7568 5.89922 88.7407C4.38208 88.7139 3.54657 88.6997 0.333374 88.6961V87.0898C3.56267 87.0934 4.45185 87.1095 5.92785 87.1345C6.80807 87.1487 7.90657 87.1684 9.83521 87.1916C14.977 87.2523 20.1976 87.3397 25.3555 87.4539L25.3197 89.0602H25.3179Z" fill="white"/>
<path d="M25.2482 84.8643L25.0746 84.8447C20.7397 84.3682 17.3172 83.9916 11.4078 82.0284L10.0571 81.5804C6.08888 80.2669 5.26411 79.9938 1.67163 78.3358L2.3479 76.8777C5.8563 78.4982 6.66675 78.7677 10.5634 80.0563L11.9159 80.5042C17.6625 82.4121 21.0116 82.7797 25.2518 83.2473L25.4253 83.267L25.2482 84.8643Z" fill="white"/>
</svg>
