<svg width="200" height="200" viewBox="0 0 200 200" fill="none" xmlns="http://www.w3.org/2000/svg">
<path d="M0 100C0 44.7715 44.7715 0 100 0C155.228 0 200 44.7715 200 100C200 155.228 155.228 200 100 200C44.7715 200 0 155.228 0 100Z" fill="url(#paint0_linear_297_2744)"/>
<path d="M141.256 143.698L138.498 140.185C147.754 132.95 152.853 123.513 152.853 113.613C152.853 105.587 151.54 95.5014 145.284 93.0242C141.201 91.4073 137.784 88.732 134.164 85.8996C130.057 82.6853 125.811 79.3604 120.519 77.7506C114.062 75.7856 107.16 74.788 100.002 74.788C92.8437 74.788 86.1292 75.791 79.685 77.7702C74.2926 79.4264 69.3512 83.2475 64.9912 86.6171C61.3826 89.4066 57.9744 92.0408 54.7004 93.1491C50.1364 94.6947 47.6943 100.072 47.2381 109.592L42.7708 109.378C43.0051 104.484 43.7208 100.588 44.9588 97.4646C46.6996 93.0724 49.4923 90.199 53.2637 88.9229C55.8275 88.0556 58.9477 85.6426 62.2521 83.0887C66.9145 79.4853 72.1994 75.4001 78.37 73.5048C85.2418 71.3952 92.5199 70.3262 100.004 70.3262C107.487 70.3262 114.946 71.3881 121.827 73.4816C127.917 75.3359 132.499 78.9214 136.929 82.3891C140.285 85.0162 143.457 87.4987 146.937 88.8765C153.832 91.6054 157.329 99.9293 157.329 113.613C157.329 124.915 151.622 135.599 141.26 143.698H141.256Z" fill="white"/>
<path d="M82.0572 67.2785C81.9982 67.2928 81.9356 67.3071 81.8676 67.3232C81.0822 67.5195 80.2574 67.2214 79.7726 66.5736C75.5575 60.9285 69.3207 52.6653 63.4937 49.1744C63.0786 48.9263 62.2055 49.0405 62.0427 49.4938C59.1104 57.6696 57.994 68.8991 57.5897 77.9279C57.5432 78.9506 57.1317 79.9215 56.4393 80.6764C56.4304 80.6853 56.4232 80.6943 56.4143 80.7032C55.8364 81.3421 54.7719 80.9263 54.7629 80.066C54.6323 67.8746 54.8739 57.2538 59.4629 46.0243C60.064 44.6376 61.4577 43.9951 62.7011 44.5377C71.4301 48.1785 77.8046 58.0819 82.8247 65.3225C83.3364 66.0614 82.9339 67.0769 82.0554 67.2785H82.0572Z" fill="white"/>
<path d="M55.7255 82.0849C55.4858 82.0849 55.2407 82.0421 55.0063 81.9528C54.2173 81.6548 53.7003 80.9195 53.6913 80.0789C53.5571 67.5091 53.8237 56.99 58.4717 45.6213L58.4807 45.5999C58.9083 44.6147 59.6525 43.8723 60.5757 43.5082C61.4058 43.1816 62.3147 43.1995 63.1341 43.5564C71.5553 47.0687 77.7277 56.0316 82.6888 63.2329C83.0359 63.7362 83.3758 64.2306 83.7104 64.7125C84.1523 65.3496 84.2489 66.1616 83.968 66.8845C83.6853 67.6108 83.0609 68.148 82.2988 68.3212C82.2469 68.3337 82.1914 68.3461 82.1306 68.3622C80.923 68.6656 79.6617 68.2141 78.9138 67.2129C75.1049 62.1139 68.7393 53.5865 62.9856 50.117C62.9785 50.117 62.9713 50.117 62.9623 50.117C60.6741 56.642 59.1892 66.2634 58.6632 77.9765C58.6059 79.2401 58.0978 80.4555 57.2319 81.3996L57.214 81.4192C56.824 81.8511 56.2837 82.0831 55.7255 82.0831V82.0849ZM60.4523 46.4423C56.001 57.3398 55.7094 67.5555 55.8328 79.7344C56.2461 79.1972 56.4876 78.5494 56.5181 77.8819C57.0673 65.6298 58.5862 55.9566 61.0337 49.1354C61.2019 48.6678 61.5848 48.3073 62.1143 48.1181C62.7602 47.8879 63.5188 47.9432 64.0465 48.2591C70.1742 51.9303 76.7222 60.6986 80.6349 65.9368C80.8621 66.242 81.2432 66.3794 81.6064 66.2884C81.6815 66.2687 81.7513 66.2527 81.8175 66.2366C81.907 66.217 81.9463 66.1581 81.9642 66.1117C81.9893 66.0492 81.9821 65.9885 81.9428 65.9332C81.6064 65.4495 81.2647 64.9534 80.9176 64.4483C76.1175 57.4772 70.1419 48.8035 62.2879 45.5267C61.9748 45.3911 61.6599 45.384 61.3593 45.5018C60.9729 45.6535 60.6526 45.9872 60.4523 46.4405V46.4423Z" fill="white"/>
<path d="M117.751 67.2785C117.812 67.2928 117.875 67.3071 117.943 67.3232C118.733 67.5195 119.565 67.2214 120.052 66.5736C124.298 60.9285 130.579 52.6653 136.447 49.1744C136.866 48.9263 137.744 49.0405 137.907 49.4938C140.859 57.6696 141.984 68.8991 142.392 77.9279C142.439 78.9506 142.854 79.9215 143.552 80.6764C143.561 80.6853 143.568 80.6943 143.577 80.7032C144.158 81.3421 145.232 80.9263 145.241 80.066C145.371 67.8746 145.13 57.2538 140.507 46.0243C139.902 44.6376 138.497 43.9951 137.245 44.5377C128.455 48.1785 122.034 58.0819 116.978 65.3225C116.463 66.0614 116.867 67.0769 117.753 67.2785H117.751Z" fill="white"/>
<path d="M144.271 82.0842C143.713 82.0842 143.172 81.8539 142.781 81.4238L142.757 81.3988C141.888 80.4583 141.376 79.2429 141.319 77.9775C140.789 66.2644 139.294 56.6412 136.989 50.1181C136.977 50.1181 136.964 50.1181 136.954 50.1199C131.161 53.5876 124.745 62.1168 120.909 67.2175C120.159 68.2151 118.893 68.6649 117.682 68.3633C117.621 68.349 117.565 68.3347 117.513 68.3222C116.746 68.1473 116.118 67.6083 115.835 66.8802C115.554 66.1574 115.653 65.3471 116.096 64.7117C116.433 64.2299 116.776 63.7355 117.125 63.2322C122.12 56.0309 128.337 47.068 136.832 43.5503C138.6 42.7847 140.652 43.6806 141.489 45.5992L141.498 45.6206C146.178 56.9893 146.446 67.5102 146.312 80.0799C146.303 80.917 145.788 81.6523 144.999 81.9521C144.761 82.0431 144.514 82.086 144.271 82.086V82.0842ZM137 47.9746C137.283 47.9746 137.569 48.021 137.836 48.1174C138.363 48.3066 138.748 48.6653 138.916 49.1311C141.38 55.9541 142.909 65.6273 143.464 77.8812C143.494 78.5558 143.743 79.2108 144.169 79.7498C144.292 67.5637 144.003 57.3444 139.517 46.4434C139.147 45.6045 138.372 45.2173 137.673 45.5207C129.744 48.8045 123.727 57.4801 118.893 64.4494C118.542 64.9545 118.199 65.4506 117.86 65.9343C117.846 65.9539 117.803 66.0164 117.839 66.1056C117.857 66.152 117.898 66.2109 117.991 66.2323C118.059 66.2466 118.129 66.2644 118.204 66.2823C118.574 66.3751 118.964 66.2359 119.193 65.9289C123.133 60.689 129.727 51.9207 135.896 48.2531C136.209 48.0675 136.599 47.9729 137 47.9729V47.9746Z" fill="white"/>
<path d="M104.279 156.543C103.39 156.543 102.574 156.531 101.841 156.52C101.156 156.509 100.565 156.502 100.055 156.506C91.4374 156.561 82.628 155.069 74.5682 152.183C66.2543 149.206 59.1087 144.86 53.9007 139.619C47.3777 133.051 43.9999 125.155 44.134 116.783C44.134 116.703 44.134 115.957 44.134 115.885L45.9231 115.83C45.9267 115.909 45.9231 116.763 45.9231 116.812C45.7979 124.693 48.995 132.144 55.1709 138.362C65.3096 148.571 82.5099 154.835 100.043 154.721C100.571 154.717 101.172 154.726 101.868 154.737C107.287 154.815 117.37 154.964 128.01 149.62C131.084 148.076 131.797 147.505 133.094 146.47C133.309 146.299 133.538 146.115 133.794 145.915L134.9 147.318C134.647 147.516 134.422 147.696 134.213 147.864C132.867 148.938 132.055 149.588 128.813 151.216C119.233 156.026 110.151 156.545 104.279 156.545V156.543Z" fill="white"/>
<path d="M45.1037 116.325C43.8173 116.325 42.7725 115.281 42.7725 113.999C42.7725 112.718 43.8191 111.674 45.1037 111.674C46.3883 111.674 47.4349 112.718 47.4349 113.999C47.4349 115.281 46.3883 116.325 45.1037 116.325ZM45.1037 112.695C44.3827 112.695 43.7977 113.28 43.7977 113.998C43.7977 114.715 44.3845 115.3 45.1037 115.3C45.8229 115.3 46.4097 114.715 46.4097 113.998C46.4097 113.28 45.8229 112.695 45.1037 112.695Z" fill="white"/>
<path d="M136.324 148.024C134.907 148.024 133.756 146.875 133.756 145.463C133.756 144.052 134.909 142.9 136.324 142.9C137.739 142.9 138.891 144.05 138.891 145.463C138.891 146.877 137.739 148.024 136.324 148.024ZM136.324 144.027C135.529 144.027 134.885 144.671 134.885 145.461C134.885 146.252 135.531 146.896 136.324 146.896C137.116 146.896 137.762 146.252 137.762 145.461C137.762 144.671 137.116 144.027 136.324 144.027Z" fill="white"/>
<path d="M103.233 96.4417C103.233 95.0442 102.263 93.8753 100.964 93.5594V73.2529C100.964 72.8691 100.653 72.5586 100.268 72.5586C99.8837 72.5586 99.5724 72.8691 99.5724 73.2529V93.5594C98.2735 93.8753 97.3038 95.0442 97.3038 96.4417C97.3038 98.0818 98.6331 99.415 100.267 99.415C101.9 99.415 103.229 98.08 103.229 96.4417H103.233ZM100.27 98.0283C99.4024 98.0283 98.6975 97.318 98.6975 96.4417C98.6975 95.5654 99.4024 94.8551 100.27 94.8551C101.138 94.8551 101.843 95.5654 101.843 96.4417C101.843 97.318 101.138 98.0283 100.27 98.0283Z" fill="white"/>
<path d="M112.701 93.2167C112.291 92.7348 111.749 92.4136 111.144 92.269V89.9168C111.144 89.6562 110.997 89.417 110.765 89.2992L105.326 86.5311V73.2529C105.326 72.8691 105.015 72.5586 104.63 72.5586C104.245 72.5586 103.934 72.8691 103.934 73.2529V86.9559C103.934 87.2165 104.081 87.4556 104.313 87.5734L109.752 90.3415V92.2708C109.301 92.3797 108.877 92.5867 108.516 92.899C107.28 93.9663 107.137 95.8474 108.198 97.0878C108.715 97.6928 109.434 98.0586 110.225 98.1175C111.019 98.18 111.781 97.9248 112.38 97.4072C113.617 96.34 113.76 94.4589 112.699 93.2185L112.701 93.2167ZM111.473 96.3578C111.155 96.6326 110.751 96.7665 110.334 96.7344C109.915 96.704 109.534 96.5095 109.26 96.1865C108.693 95.5208 108.768 94.5142 109.43 93.9466C109.749 93.6718 110.158 93.5415 110.57 93.5701C110.989 93.6004 111.37 93.795 111.643 94.118C112.21 94.7837 112.135 95.7903 111.473 96.3596V96.3578Z" fill="white"/>
<path d="M120.097 90.3431C121.335 89.2759 121.476 87.3948 120.415 86.1544C119.898 85.5494 119.179 85.1835 118.388 85.1228C118.311 85.1175 118.236 85.1139 118.159 85.1139C117.452 85.1139 116.774 85.3656 116.234 85.8332C116.102 85.9474 115.987 86.0759 115.88 86.2079L109.588 83.1668V73.2509C109.588 72.8672 109.276 72.5566 108.892 72.5566C108.507 72.5566 108.196 72.8672 108.196 73.2509V83.6023C108.196 83.8682 108.348 84.1109 108.589 84.2269L115.282 87.4626C115.094 88.3407 115.291 89.2919 115.916 90.0255C116.433 90.6305 117.152 90.9963 117.943 91.0552C118.73 91.1141 119.499 90.8625 120.099 90.3449L120.097 90.3431ZM117.143 86.8826C117.461 86.6077 117.868 86.4774 118.283 86.506C118.701 86.5363 119.082 86.7309 119.354 87.0539C119.921 87.7196 119.846 88.7262 119.184 89.2955C118.898 89.5436 118.54 89.6774 118.166 89.6774C118.127 89.6774 118.086 89.6774 118.046 89.6739C117.628 89.6435 117.247 89.449 116.973 89.126C116.404 88.4603 116.481 87.4537 117.143 86.8843V86.8826Z" fill="white"/>
<path d="M92.0207 92.8951C91.6593 92.5828 91.2353 92.3775 90.7844 92.2669V90.3376L96.2233 87.5695C96.4558 87.4517 96.6025 87.2126 96.6025 86.952V73.2489C96.6025 72.8652 96.2912 72.5547 95.9066 72.5547C95.5219 72.5547 95.2106 72.8652 95.2106 73.2489V86.5272L89.7718 89.2953C89.5392 89.4131 89.3925 89.6523 89.3925 89.9128V92.2651C88.7914 92.4115 88.2475 92.7309 87.836 93.2128C86.7751 94.4567 86.9182 96.336 88.1545 97.4033C88.7538 97.9209 89.516 98.1761 90.3103 98.1136C91.1011 98.0547 91.8203 97.6871 92.3374 97.0838C93.3983 95.8399 93.2552 93.9606 92.0189 92.8951H92.0207ZM91.28 96.1861C91.0063 96.5074 90.6252 96.7019 90.2083 96.7323C90.169 96.7358 90.1278 96.7376 90.0885 96.7376C89.7146 96.7376 89.3567 96.6038 89.0705 96.3557C88.4103 95.7846 88.3334 94.7798 88.9005 94.1141C89.1743 93.7928 89.5553 93.5983 89.974 93.5662C90.3837 93.534 90.797 93.6679 91.1136 93.9427C91.7738 94.5139 91.8507 95.5186 91.2818 96.1843L91.28 96.1861Z" fill="white"/>
<path d="M82.3811 85.1137C82.3041 85.1137 82.229 85.1173 82.1521 85.1227C81.3613 85.1833 80.6421 85.5492 80.125 86.1542C79.0641 87.3982 79.2072 89.2775 80.4435 90.343C81.0446 90.8605 81.8121 91.1104 82.5993 91.0533C83.3901 90.9926 84.1093 90.6267 84.6264 90.0235C85.2525 89.2918 85.4493 88.3405 85.2597 87.4606L91.9527 84.2249C92.1924 84.1089 92.3463 83.8662 92.3463 83.6003V73.2489C92.3463 72.8652 92.035 72.5547 91.6503 72.5547C91.2657 72.5547 90.9544 72.8652 90.9544 73.2489V83.1648L84.6621 86.206C84.5548 86.0739 84.4403 85.9454 84.3079 85.8312C83.7658 85.3636 83.0895 85.112 82.3828 85.112L82.3811 85.1137ZM83.5672 89.124C83.2935 89.4452 82.9124 89.6398 82.4938 89.6719C82.4544 89.6755 82.4133 89.6755 82.3739 89.6755C82 89.6755 81.6422 89.5416 81.3559 89.2935C80.6957 88.7224 80.6188 87.7176 81.1859 87.0537C81.4597 86.7325 81.8408 86.5379 82.2576 86.5058C82.6745 86.4737 83.0806 86.6075 83.3973 86.8824C84.0592 87.4535 84.1344 88.4583 83.5672 89.124Z" fill="white"/>
<path d="M70.2242 117.386C66.2024 116.333 63.1233 114.277 61.7762 111.746C61.0462 110.372 61.5311 108.652 62.88 107.829C66.3687 105.703 71.4694 104.484 76.8778 104.484C78.5023 104.484 80.1053 104.593 81.6439 104.806L81.4024 106.548C79.9443 106.346 78.4218 106.244 76.8778 106.244C71.7861 106.244 67.02 107.368 63.7996 109.33C63.2432 109.669 63.0393 110.369 63.3345 110.922C64.4508 113.021 67.1255 114.757 70.6733 115.685L70.226 117.386H70.2242Z" fill="white"/>
<path d="M76.1426 117.843C75.2301 117.843 74.3427 117.77 73.5037 117.615L73.6844 116.655C74.4555 116.799 75.2766 116.865 76.1229 116.865C81.1126 116.865 87.013 114.558 89.0043 112.157C89.7128 111.302 89.9507 110.535 89.7146 109.873C89.2011 108.44 86.5694 107.451 84.4708 107.04L84.6586 106.082C85.8537 106.316 89.8183 107.258 90.6359 109.544C90.9973 110.553 90.7021 111.641 89.7575 112.78C87.5873 115.396 81.4454 117.843 76.1426 117.843Z" fill="white"/>
<path d="M83.5672 107.536C82.7872 107.536 82.152 106.903 82.152 106.125C82.152 105.346 82.7872 104.713 83.5672 104.713C84.3473 104.713 84.9824 105.346 84.9824 106.125C84.9824 106.903 84.3473 107.536 83.5672 107.536ZM83.5672 105.12C83.0126 105.12 82.5617 105.57 82.5617 106.123C82.5617 106.676 83.0126 107.126 83.5672 107.126C84.1218 107.126 84.5727 106.676 84.5727 106.123C84.5727 105.57 84.1218 105.12 83.5672 105.12Z" fill="white"/>
<path d="M72.5339 118.327C71.7539 118.327 71.1188 117.694 71.1188 116.916C71.1188 116.137 71.7539 115.504 72.5339 115.504C73.314 115.504 73.9491 116.137 73.9491 116.916C73.9491 117.694 73.314 118.327 72.5339 118.327ZM72.5339 115.911C71.9793 115.911 71.5285 116.361 71.5285 116.914C71.5285 117.467 71.9793 117.917 72.5339 117.917C73.0886 117.917 73.5394 117.467 73.5394 116.914C73.5394 116.361 73.0886 115.911 72.5339 115.911Z" fill="white"/>
<path d="M77.7796 108.929L77.3377 109.674C78.0479 110.186 78.4254 111.089 78.2197 111.996C78.1606 112.258 78.0569 112.504 77.9137 112.724L78.5954 113.254C78.8172 112.931 78.9765 112.57 79.0623 112.185C79.3522 110.907 78.8029 109.629 77.7796 108.931V108.929ZM77.674 113.029C77.5971 113.111 77.513 113.19 77.4199 113.263C77.0246 113.575 76.5272 113.748 76.0245 113.748C75.8581 113.748 75.6917 113.729 75.5271 113.693C74.3785 113.432 73.6342 112.338 73.7899 111.196L72.9454 111.005C72.6842 112.613 73.7237 114.171 75.3375 114.532C75.5629 114.583 75.7955 114.608 76.0245 114.608C76.7204 114.608 77.4056 114.369 77.9549 113.937C78.0998 113.823 78.234 113.696 78.3556 113.559L77.6722 113.029H77.674ZM76.7097 108.465C76.4843 108.414 76.2517 108.389 76.0209 108.389C75.3607 108.389 74.7113 108.605 74.1763 108.994L74.7327 109.656C75.1102 109.393 75.5629 109.249 76.0209 109.249C76.1873 109.249 76.3554 109.267 76.52 109.304C76.69 109.342 76.851 109.399 77.0031 109.472L77.445 108.73C77.2178 108.614 76.9709 108.523 76.7097 108.464V108.465ZM73.8776 109.244C73.4804 109.62 73.187 110.098 73.0313 110.625L73.8758 110.816C73.9849 110.468 74.1745 110.159 74.434 109.904L73.8776 109.242V109.244ZM77.7796 108.929L77.3377 109.674C78.0479 110.186 78.4254 111.089 78.2197 111.996C78.1606 112.258 78.0569 112.504 77.9137 112.724L78.5954 113.254C78.8172 112.931 78.9765 112.57 79.0623 112.185C79.3522 110.907 78.8029 109.629 77.7796 108.931V108.929ZM77.4199 113.263C77.0246 113.575 76.5272 113.748 76.0245 113.748C75.8581 113.748 75.6917 113.729 75.5271 113.693C74.3785 113.432 73.6342 112.338 73.7899 111.196L72.9454 111.005C72.6842 112.613 73.7237 114.171 75.3375 114.532C75.5629 114.583 75.7955 114.608 76.0245 114.608C76.7204 114.608 77.4056 114.369 77.9549 113.937C78.0998 113.823 78.234 113.696 78.3556 113.559L77.6722 113.029C77.5953 113.111 77.5112 113.19 77.4182 113.263H77.4199ZM76.0191 109.251C76.1855 109.251 76.3537 109.269 76.5182 109.306C76.6882 109.343 76.8492 109.401 77.0013 109.474L77.4432 108.731C77.216 108.615 76.9691 108.524 76.7079 108.465C76.4825 108.414 76.2499 108.389 76.0191 108.389C75.3589 108.389 74.7095 108.605 74.1745 108.994L74.731 109.656C75.1085 109.393 75.5611 109.249 76.0191 109.249V109.251ZM74.5359 111.499C74.5359 112.335 75.2158 113.011 76.0531 113.011C76.8904 113.011 77.5684 112.335 77.5684 111.499C77.5684 110.664 76.8904 109.986 76.0531 109.986C75.2158 109.986 74.5359 110.664 74.5359 111.499ZM76.5683 111.524C76.5683 111.808 76.3376 112.04 76.0513 112.04C75.765 112.04 75.5343 111.808 75.5343 111.524C75.5343 111.241 75.7668 111.009 76.0513 111.009C76.3358 111.009 76.5683 111.239 76.5683 111.524ZM75.6988 111.524C75.6988 111.719 75.8563 111.876 76.0513 111.876C76.2463 111.876 76.4037 111.719 76.4037 111.524C76.4037 111.33 76.2445 111.175 76.0513 111.175C75.8581 111.175 75.6988 111.332 75.6988 111.524ZM76.2535 111.524C76.2535 111.637 76.1622 111.724 76.0531 111.724C75.944 111.724 75.8527 111.635 75.8527 111.524C75.8527 111.414 75.944 111.325 76.0531 111.325C76.1622 111.325 76.2535 111.416 76.2535 111.524ZM74.4322 109.906L73.8758 109.244C73.4786 109.62 73.1852 110.098 73.0295 110.625L73.874 110.816C73.9831 110.468 74.1728 110.159 74.4322 109.904V109.906ZM77.7796 108.929L77.3377 109.674C78.0479 110.186 78.4254 111.089 78.2197 111.996C78.1606 112.258 78.0569 112.504 77.9137 112.724L78.5954 113.254C78.8172 112.931 78.9765 112.57 79.0623 112.185C79.3522 110.907 78.8029 109.629 77.7796 108.931V108.929ZM77.4199 113.263C77.0246 113.575 76.5272 113.748 76.0245 113.748C75.8581 113.748 75.6917 113.729 75.5271 113.693C74.3785 113.432 73.6342 112.338 73.7899 111.196L72.9454 111.005C72.6842 112.613 73.7237 114.171 75.3375 114.532C75.5629 114.583 75.7955 114.608 76.0245 114.608C76.7204 114.608 77.4056 114.369 77.9549 113.937C78.0998 113.823 78.234 113.696 78.3556 113.559L77.6722 113.029C77.5953 113.111 77.5112 113.19 77.4182 113.263H77.4199ZM76.0191 109.251C76.1855 109.251 76.3537 109.269 76.5182 109.306C76.6882 109.343 76.8492 109.401 77.0013 109.474L77.4432 108.731C77.216 108.615 76.9691 108.524 76.7079 108.465C76.4825 108.414 76.2499 108.389 76.0191 108.389C75.3589 108.389 74.7095 108.605 74.1745 108.994L74.731 109.656C75.1085 109.393 75.5611 109.249 76.0191 109.249V109.251ZM74.5359 111.499C74.5359 112.335 75.2158 113.011 76.0531 113.011C76.8904 113.011 77.5684 112.335 77.5684 111.499C77.5684 110.664 76.8904 109.986 76.0531 109.986C75.2158 109.986 74.5359 110.664 74.5359 111.499ZM76.5683 111.524C76.5683 111.808 76.3376 112.04 76.0513 112.04C75.765 112.04 75.5343 111.808 75.5343 111.524C75.5343 111.241 75.7668 111.009 76.0513 111.009C76.3358 111.009 76.5683 111.239 76.5683 111.524ZM75.6988 111.524C75.6988 111.719 75.8563 111.876 76.0513 111.876C76.2463 111.876 76.4037 111.719 76.4037 111.524C76.4037 111.33 76.2445 111.175 76.0513 111.175C75.8581 111.175 75.6988 111.332 75.6988 111.524ZM76.2535 111.524C76.2535 111.637 76.1622 111.724 76.0531 111.724C75.944 111.724 75.8527 111.635 75.8527 111.524C75.8527 111.414 75.944 111.325 76.0531 111.325C76.1622 111.325 76.2535 111.416 76.2535 111.524ZM74.4322 109.906L73.8758 109.244C73.4786 109.62 73.1852 110.098 73.0295 110.625L73.874 110.816C73.9831 110.468 74.1728 110.159 74.4322 109.904V109.906ZM76.0531 111.173C75.8581 111.173 75.7006 111.33 75.7006 111.523C75.7006 111.715 75.8581 111.874 76.0531 111.874C76.2481 111.874 76.4055 111.717 76.4055 111.523C76.4055 111.328 76.2463 111.173 76.0531 111.173ZM76.0531 111.724C75.9422 111.724 75.8527 111.635 75.8527 111.524C75.8527 111.414 75.944 111.325 76.0531 111.325C76.1622 111.325 76.2535 111.416 76.2535 111.524C76.2535 111.633 76.1622 111.724 76.0531 111.724ZM76.0531 109.986C75.2158 109.986 74.5359 110.664 74.5359 111.499C74.5359 112.335 75.2158 113.011 76.0531 113.011C76.8904 113.011 77.5684 112.335 77.5684 111.499C77.5684 110.664 76.8904 109.986 76.0531 109.986ZM76.0531 112.04C75.7686 112.04 75.536 111.808 75.536 111.524C75.536 111.241 75.7686 111.009 76.0531 111.009C76.3375 111.009 76.5701 111.239 76.5701 111.524C76.5701 111.81 76.3393 112.04 76.0531 112.04ZM76.0531 111.173C75.8581 111.173 75.7006 111.33 75.7006 111.523C75.7006 111.715 75.8581 111.874 76.0531 111.874C76.2481 111.874 76.4055 111.717 76.4055 111.523C76.4055 111.328 76.2463 111.173 76.0531 111.173ZM76.0531 111.724C75.9422 111.724 75.8527 111.635 75.8527 111.524C75.8527 111.414 75.944 111.325 76.0531 111.325C76.1622 111.325 76.2535 111.416 76.2535 111.524C76.2535 111.633 76.1622 111.724 76.0531 111.724ZM76.0531 111.173C75.8581 111.173 75.7006 111.33 75.7006 111.523C75.7006 111.715 75.8581 111.874 76.0531 111.874C76.2481 111.874 76.4055 111.717 76.4055 111.523C76.4055 111.328 76.2463 111.173 76.0531 111.173ZM76.0531 111.724C75.9422 111.724 75.8527 111.635 75.8527 111.524C75.8527 111.414 75.944 111.325 76.0531 111.325C76.1622 111.325 76.2535 111.416 76.2535 111.524C76.2535 111.633 76.1622 111.724 76.0531 111.724Z" fill="white"/>
<path d="M129.779 117.386L129.332 115.685C132.878 114.755 135.554 113.021 136.671 110.922C136.964 110.369 136.76 109.669 136.204 109.33C132.985 107.368 128.219 106.244 123.126 106.244C121.582 106.244 120.059 106.346 118.601 106.548L118.36 104.806C119.896 104.593 121.501 104.484 123.126 104.484C128.532 104.484 133.635 105.703 137.122 107.829C138.471 108.652 138.955 110.372 138.226 111.745C136.878 114.277 133.798 116.331 129.777 117.384L129.779 117.386Z" fill="white"/>
<path d="M123.859 117.843C118.555 117.843 112.413 115.396 110.244 112.78C109.301 111.641 109.004 110.553 109.366 109.544C110.183 107.258 114.148 106.316 115.343 106.082L115.531 107.04C113.432 107.451 110.799 108.44 110.287 109.873C110.051 110.535 110.289 111.304 110.997 112.157C113.325 114.965 121.004 117.645 126.317 116.655L126.498 117.615C125.661 117.772 124.772 117.843 123.859 117.843Z" fill="white"/>
<path d="M116.436 107.536C115.656 107.536 115.021 106.903 115.021 106.125C115.021 105.346 115.656 104.713 116.436 104.713C117.216 104.713 117.852 105.346 117.852 106.125C117.852 106.903 117.216 107.536 116.436 107.536ZM116.436 105.12C115.882 105.12 115.431 105.57 115.431 106.123C115.431 106.676 115.882 107.126 116.436 107.126C116.991 107.126 117.442 106.676 117.442 106.123C117.442 105.57 116.991 105.12 116.436 105.12Z" fill="white"/>
<path d="M127.468 118.327C126.688 118.327 126.053 117.694 126.053 116.916C126.053 116.137 126.688 115.504 127.468 115.504C128.248 115.504 128.883 116.137 128.883 116.916C128.883 117.694 128.248 118.327 127.468 118.327ZM127.468 115.911C126.913 115.911 126.462 116.361 126.462 116.914C126.462 117.467 126.913 117.917 127.468 117.917C128.022 117.917 128.473 117.467 128.473 116.914C128.473 116.361 128.022 115.911 127.468 115.911Z" fill="white"/>
<path d="M120.939 112.183C121.025 112.568 121.185 112.931 121.406 113.252L122.088 112.722C121.947 112.501 121.843 112.256 121.782 111.994C121.576 111.087 121.954 110.184 122.664 109.672L122.222 108.928C121.199 109.627 120.65 110.903 120.939 112.181V112.183ZM121.646 113.559C121.768 113.696 121.902 113.823 122.047 113.937C122.596 114.369 123.281 114.608 123.977 114.608C124.206 114.608 124.439 114.582 124.664 114.532C126.278 114.169 127.316 112.611 127.056 111.005L126.212 111.196C126.369 112.34 125.623 113.434 124.475 113.693C124.31 113.729 124.144 113.748 123.977 113.748C123.475 113.748 122.977 113.575 122.582 113.263C122.489 113.19 122.405 113.111 122.328 113.029L121.644 113.559H121.646ZM122.559 108.731L123 109.474C123.153 109.401 123.314 109.343 123.484 109.306C123.648 109.269 123.816 109.251 123.983 109.251C124.441 109.251 124.893 109.393 125.271 109.658L125.827 108.995C125.292 108.606 124.643 108.39 123.983 108.39C123.752 108.39 123.519 108.417 123.294 108.467C123.031 108.526 122.786 108.617 122.559 108.733V108.731ZM125.57 109.906C125.829 110.161 126.019 110.47 126.128 110.818L126.972 110.627C126.817 110.1 126.523 109.622 126.126 109.245L125.57 109.907V109.906ZM120.939 112.183C121.025 112.568 121.185 112.931 121.406 113.252L122.088 112.722C121.947 112.501 121.843 112.256 121.782 111.994C121.576 111.087 121.954 110.184 122.664 109.672L122.222 108.928C121.199 109.627 120.65 110.903 120.939 112.181V112.183ZM122.328 113.029L121.644 113.559C121.766 113.696 121.9 113.823 122.045 113.937C122.594 114.369 123.28 114.608 123.976 114.608C124.205 114.608 124.437 114.582 124.663 114.532C126.276 114.169 127.314 112.611 127.055 111.005L126.21 111.196C126.368 112.34 125.621 113.434 124.473 113.693C124.308 113.729 124.142 113.748 123.976 113.748C123.473 113.748 122.975 113.575 122.58 113.263C122.487 113.19 122.403 113.111 122.326 113.029H122.328ZM125.271 109.656L125.827 108.994C125.292 108.605 124.643 108.389 123.983 108.389C123.752 108.389 123.519 108.415 123.294 108.465C123.031 108.524 122.786 108.615 122.559 108.731L123 109.474C123.153 109.401 123.314 109.343 123.484 109.306C123.648 109.269 123.816 109.251 123.983 109.251C124.441 109.251 124.893 109.393 125.271 109.658V109.656ZM123.95 109.986C123.113 109.986 122.435 110.664 122.435 111.499C122.435 112.335 123.113 113.011 123.95 113.011C124.788 113.011 125.468 112.335 125.468 111.499C125.468 110.664 124.788 109.986 123.95 109.986ZM123.95 111.009C124.235 111.009 124.468 111.239 124.468 111.524C124.468 111.808 124.235 112.04 123.95 112.04C123.666 112.04 123.433 111.808 123.433 111.524C123.433 111.241 123.664 111.009 123.95 111.009ZM123.95 111.173C123.755 111.173 123.598 111.33 123.598 111.523C123.598 111.715 123.757 111.874 123.95 111.874C124.145 111.874 124.303 111.717 124.303 111.523C124.303 111.328 124.145 111.173 123.95 111.173ZM123.95 111.323C124.061 111.323 124.151 111.414 124.151 111.523C124.151 111.635 124.06 111.723 123.95 111.723C123.841 111.723 123.75 111.633 123.75 111.523C123.75 111.412 123.841 111.323 123.95 111.323ZM126.126 110.816L126.97 110.625C126.815 110.098 126.521 109.62 126.124 109.244L125.568 109.906C125.827 110.161 126.017 110.47 126.126 110.818V110.816ZM120.939 112.183C121.025 112.568 121.185 112.931 121.406 113.252L122.088 112.722C121.947 112.501 121.843 112.256 121.782 111.994C121.576 111.087 121.954 110.184 122.664 109.672L122.222 108.928C121.199 109.627 120.65 110.903 120.939 112.181V112.183ZM122.328 113.029L121.644 113.559C121.766 113.696 121.9 113.823 122.045 113.937C122.594 114.369 123.28 114.608 123.976 114.608C124.205 114.608 124.437 114.582 124.663 114.532C126.276 114.169 127.314 112.611 127.055 111.005L126.21 111.196C126.368 112.34 125.621 113.434 124.473 113.693C124.308 113.729 124.142 113.748 123.976 113.748C123.473 113.748 122.975 113.575 122.58 113.263C122.487 113.19 122.403 113.111 122.326 113.029H122.328ZM125.271 109.656L125.827 108.994C125.292 108.605 124.643 108.389 123.983 108.389C123.752 108.389 123.519 108.415 123.294 108.465C123.031 108.524 122.786 108.615 122.559 108.731L123 109.474C123.153 109.401 123.314 109.343 123.484 109.306C123.648 109.269 123.816 109.251 123.983 109.251C124.441 109.251 124.893 109.393 125.271 109.658V109.656ZM123.95 109.986C123.113 109.986 122.435 110.664 122.435 111.499C122.435 112.335 123.113 113.011 123.95 113.011C124.788 113.011 125.468 112.335 125.468 111.499C125.468 110.664 124.788 109.986 123.95 109.986ZM123.95 111.009C124.235 111.009 124.468 111.239 124.468 111.524C124.468 111.808 124.235 112.04 123.95 112.04C123.666 112.04 123.433 111.808 123.433 111.524C123.433 111.241 123.664 111.009 123.95 111.009ZM123.95 111.173C123.755 111.173 123.598 111.33 123.598 111.523C123.598 111.715 123.757 111.874 123.95 111.874C124.145 111.874 124.303 111.717 124.303 111.523C124.303 111.328 124.145 111.173 123.95 111.173ZM123.95 111.323C124.061 111.323 124.151 111.414 124.151 111.523C124.151 111.635 124.06 111.723 123.95 111.723C123.841 111.723 123.75 111.633 123.75 111.523C123.75 111.412 123.841 111.323 123.95 111.323ZM126.126 110.816L126.97 110.625C126.815 110.098 126.521 109.62 126.124 109.244L125.568 109.906C125.827 110.161 126.017 110.47 126.126 110.818V110.816ZM123.596 111.524C123.596 111.719 123.755 111.876 123.949 111.876C124.144 111.876 124.301 111.719 124.301 111.524C124.301 111.33 124.144 111.175 123.949 111.175C123.754 111.175 123.596 111.332 123.596 111.524ZM123.748 111.524C123.748 111.414 123.84 111.325 123.949 111.325C124.058 111.325 124.149 111.416 124.149 111.524C124.149 111.637 124.058 111.724 123.949 111.724C123.84 111.724 123.748 111.635 123.748 111.524ZM122.433 111.499C122.433 112.335 123.111 113.011 123.949 113.011C124.786 113.011 125.466 112.335 125.466 111.499C125.466 110.664 124.786 109.986 123.949 109.986C123.111 109.986 122.433 110.664 122.433 111.499ZM123.433 111.524C123.433 111.241 123.664 111.009 123.95 111.009C124.237 111.009 124.468 111.239 124.468 111.524C124.468 111.808 124.235 112.04 123.95 112.04C123.666 112.04 123.433 111.808 123.433 111.524ZM123.596 111.524C123.596 111.719 123.755 111.876 123.949 111.876C124.144 111.876 124.301 111.719 124.301 111.524C124.301 111.33 124.144 111.175 123.949 111.175C123.754 111.175 123.596 111.332 123.596 111.524ZM123.748 111.524C123.748 111.414 123.84 111.325 123.949 111.325C124.058 111.325 124.149 111.416 124.149 111.524C124.149 111.637 124.058 111.724 123.949 111.724C123.84 111.724 123.748 111.635 123.748 111.524ZM123.596 111.524C123.596 111.719 123.755 111.876 123.949 111.876C124.144 111.876 124.301 111.719 124.301 111.524C124.301 111.33 124.144 111.175 123.949 111.175C123.754 111.175 123.596 111.332 123.596 111.524ZM123.748 111.524C123.748 111.414 123.84 111.325 123.949 111.325C124.058 111.325 124.149 111.416 124.149 111.524C124.149 111.637 124.058 111.724 123.949 111.724C123.84 111.724 123.748 111.635 123.748 111.524Z" fill="white"/>
<path d="M164.312 143.106C160.804 141.485 159.991 141.216 156.097 139.927L154.744 139.479C148.998 137.571 145.648 137.204 141.408 136.736L141.235 136.716L141.412 135.119L141.585 135.139C145.92 135.615 149.343 135.992 155.252 137.955L156.603 138.403C160.571 139.717 161.396 139.99 164.988 141.648L164.312 143.106Z" fill="white"/>
<path d="M141.684 132.062L141.648 130.456C146.806 130.342 152.027 130.252 157.168 130.194C159.097 130.17 160.196 130.152 161.076 130.136C162.55 130.111 163.441 130.095 166.667 130.092V131.698C163.455 131.702 162.62 131.716 161.103 131.743C160.221 131.757 159.118 131.777 157.186 131.8C152.052 131.86 146.835 131.948 141.684 132.062Z" fill="white"/>
<path d="M141.755 127.866L141.578 126.268L141.752 126.249C145.992 125.783 149.341 125.413 155.088 123.505L156.44 123.057C160.337 121.769 161.147 121.501 164.656 119.879L165.332 121.337C161.739 122.997 160.915 123.27 156.947 124.582L155.596 125.03C149.686 126.991 146.264 127.368 141.929 127.846L141.755 127.866Z" fill="white"/>
<path d="M35.6895 143.106L35.0132 141.648C38.6057 139.988 39.4305 139.715 43.3987 138.401L44.7477 137.955C50.657 135.994 54.0795 135.617 58.4145 135.139L58.588 135.119L58.7651 136.716L58.5916 136.736C54.3515 137.202 51.0023 137.571 45.2558 139.479L43.905 139.927C40.0084 141.216 39.1979 141.485 35.6895 143.106Z" fill="white"/>
<path d="M58.3179 132.062C53.1671 131.948 47.9501 131.86 42.8155 131.8C40.8833 131.777 39.7812 131.759 38.8992 131.743C37.382 131.716 36.5465 131.702 33.3333 131.698V130.092C36.5626 130.095 37.4518 130.111 38.9278 130.136C39.808 130.151 40.9065 130.17 42.8351 130.194C47.977 130.254 53.1975 130.342 58.3555 130.456L58.3197 132.062H58.3179Z" fill="white"/>
<path d="M58.2481 127.866L58.0745 127.846C53.7396 127.369 50.317 126.993 44.4077 125.03L43.0569 124.582C39.0888 123.268 38.264 122.995 34.6715 121.337L35.3478 119.879C38.8562 121.499 39.6666 121.769 43.5633 123.057L44.9158 123.505C50.6623 125.413 54.0115 125.781 58.2516 126.249L58.4252 126.268L58.2481 127.866Z" fill="white"/>
<defs>
<linearGradient id="paint0_linear_297_2744" x1="185.158" y1="185.158" x2="14.8422" y2="14.8422" gradientUnits="userSpaceOnUse">
<stop stop-color="#EE4392"/>
<stop offset="0.253798" stop-color="#004E99"/>
<stop offset="0.930017" stop-color="#05203D"/>
</linearGradient>
</defs>
</svg>
