<svg width="300" height="300" viewBox="0 0 300 300" fill="none" xmlns="http://www.w3.org/2000/svg">
<path d="M0 150C0 67.1573 67.1573 0 150 0C232.843 0 300 67.1573 300 150C300 232.843 232.843 300 150 300C67.1573 300 0 232.843 0 150Z" fill="url(#paint0_linear_297_2850)"/>
<path d="M211.884 215.544L207.746 210.275C221.631 199.422 229.28 185.266 229.28 170.416C229.28 158.377 227.31 143.249 217.925 139.533C211.801 137.108 206.676 133.095 201.247 128.846C195.085 124.025 188.717 119.038 180.779 116.623C171.093 113.676 160.74 112.179 150.003 112.179C139.266 112.179 129.194 113.684 119.527 116.652C111.439 119.137 104.027 124.868 97.4868 129.923C92.0739 134.107 86.9616 138.058 82.0506 139.721C75.2046 142.039 71.5415 150.105 70.8571 164.385L64.1561 164.063C64.5077 156.723 65.5811 150.879 67.4382 146.194C70.0494 139.606 74.2385 135.296 79.8956 133.381C83.7412 132.08 88.4215 128.461 93.3782 124.63C100.372 119.225 108.299 113.097 117.555 110.254C127.863 107.09 138.78 105.486 150.005 105.486C161.231 105.486 172.419 107.079 182.74 110.219C191.875 113.001 198.748 118.379 205.393 123.581C210.427 127.521 215.185 131.245 220.405 133.312C230.748 137.405 235.994 149.891 235.994 170.416C235.994 187.37 227.433 203.395 211.89 215.544H211.884Z" fill="white"/>
<path d="M123.086 100.917C122.997 100.938 122.903 100.96 122.801 100.984C121.623 101.278 120.386 100.831 119.659 99.8594C113.336 91.3918 103.981 78.9969 95.2405 73.7606C94.6179 73.3884 93.3083 73.5598 93.0641 74.2398C88.6656 86.5034 86.9911 103.348 86.3846 116.891C86.3148 118.425 85.6975 119.881 84.659 121.014C84.6456 121.027 84.6348 121.04 84.6214 121.054C83.7546 122.012 82.1578 121.388 82.1444 120.098C81.9485 101.811 82.3108 85.8797 89.1943 69.0355C90.096 66.9554 92.1866 65.9917 94.0517 66.8055C107.145 72.2667 116.707 87.1218 124.237 97.9827C125.005 99.0911 124.401 100.614 123.083 100.917H123.086Z" fill="white"/>
<path d="M83.5882 123.126C83.2286 123.126 82.861 123.062 82.5094 122.928C81.326 122.481 80.5504 121.378 80.537 120.117C80.3357 101.263 80.7356 85.484 87.7076 68.431L87.721 68.3989C88.3624 66.9211 89.4788 65.8075 90.8636 65.2614C92.1088 64.7715 93.472 64.7982 94.7011 65.3336C107.333 70.6021 116.591 84.0464 124.033 94.8484C124.554 95.6033 125.064 96.3449 125.566 97.0677C126.228 98.0234 126.373 99.2415 125.952 100.326C125.528 101.415 124.591 102.221 123.448 102.481C123.37 102.5 123.287 102.518 123.196 102.542C121.384 102.997 119.493 102.32 118.371 100.818C112.657 93.1699 103.109 80.3788 94.4784 75.1746C94.4677 75.1746 94.4569 75.1746 94.4435 75.1746C91.0112 84.962 88.7838 99.3941 87.9948 116.964C87.9089 118.859 87.1467 120.682 85.8479 122.098L85.821 122.128C85.236 122.776 84.4255 123.124 83.5882 123.124V123.126ZM90.6784 69.6625C84.0015 86.0087 83.5641 101.332 83.7493 119.601C84.3692 118.795 84.7315 117.823 84.7771 116.822C85.601 98.4437 87.8794 83.934 91.5506 73.7022C91.8028 73.0008 92.3771 72.46 93.1715 72.1762C94.1403 71.8309 95.2781 71.9139 96.0698 72.3877C105.261 77.8945 115.083 91.047 120.952 98.9042C121.293 99.362 121.865 99.5681 122.41 99.4316C122.522 99.4021 122.627 99.378 122.726 99.3539C122.86 99.3245 122.919 99.2361 122.946 99.1665C122.984 99.0728 122.973 98.9818 122.914 98.8988C122.41 98.1733 121.897 97.4291 121.376 96.6715C114.176 86.2148 105.213 73.2042 93.4318 68.2891C92.9622 68.0857 92.4898 68.075 92.039 68.2517C91.4593 68.4792 90.979 68.9798 90.6784 69.6598V69.6625Z" fill="white"/>
<path d="M176.627 100.917C176.718 100.938 176.812 100.96 176.914 100.984C178.1 101.278 179.348 100.831 180.078 99.8594C186.446 91.3918 195.869 78.9969 204.671 73.7606C205.299 73.3884 206.616 73.5598 206.861 74.2398C211.289 86.5034 212.977 103.348 213.588 116.891C213.658 118.425 214.281 119.881 215.327 121.014C215.341 121.027 215.352 121.04 215.365 121.054C216.237 122.012 217.847 121.388 217.861 120.098C218.057 101.811 217.694 85.8797 210.76 69.0355C209.853 66.9554 207.746 65.9917 205.868 66.8055C192.683 72.2667 183.052 87.1218 175.468 97.9827C174.695 99.0911 175.301 100.614 176.63 100.917H176.627Z" fill="white"/>
<path d="M216.406 123.126C215.569 123.126 214.759 122.781 214.171 122.136L214.136 122.098C212.832 120.687 212.064 118.864 211.978 116.966C211.184 99.3967 208.941 84.9619 205.484 75.1771C205.465 75.1771 205.446 75.1771 205.43 75.1798C196.741 80.3814 187.117 93.1751 181.364 100.826C180.239 102.323 178.339 102.997 176.522 102.545C176.431 102.523 176.348 102.502 176.27 102.483C175.119 102.221 174.177 101.412 173.753 100.32C173.331 99.236 173.479 98.0206 174.145 97.0676C174.649 96.3448 175.164 95.6032 175.688 94.8483C183.18 84.0463 192.506 70.602 205.248 65.3255C207.899 64.177 210.977 65.5209 212.233 68.3988L212.247 68.4309C219.267 85.4839 219.67 101.265 219.468 120.12C219.455 121.375 218.682 122.478 217.499 122.928C217.142 123.065 216.771 123.129 216.406 123.129V123.126ZM205.5 71.962C205.924 71.962 206.353 72.0316 206.753 72.1761C207.545 72.4599 208.122 72.998 208.374 73.6967C212.07 83.9312 214.364 98.4409 215.196 116.822C215.242 117.834 215.615 118.816 216.253 119.625C216.439 101.346 216.004 86.0166 209.276 69.665C208.72 68.4068 207.558 67.8259 206.509 68.281C194.615 73.2068 185.59 86.2201 178.339 96.6741C177.813 97.4317 177.298 98.1759 176.791 98.9014C176.769 98.9308 176.705 99.0245 176.758 99.1584C176.785 99.228 176.847 99.3163 176.987 99.3485C177.089 99.3699 177.193 99.3967 177.306 99.4234C177.861 99.5626 178.446 99.3538 178.79 98.8934C184.699 91.0335 194.591 77.881 203.844 72.3796C204.314 72.1012 204.899 71.9593 205.5 71.9593V71.962Z" fill="white"/>
<path d="M156.419 234.814C155.086 234.814 153.862 234.795 152.761 234.779C151.734 234.763 150.848 234.752 150.083 234.757C137.156 234.84 123.942 232.602 111.852 228.274C99.3815 223.808 88.6631 217.289 80.851 209.427C71.0665 199.575 65.9998 187.732 66.2011 175.174C66.2011 175.053 66.2011 173.934 66.2011 173.827L68.8847 173.744C68.8901 173.862 68.8847 175.144 68.8847 175.217C68.6969 187.039 73.4925 198.215 82.7564 207.542C97.9645 222.855 123.765 232.252 150.064 232.08C150.856 232.075 151.758 232.088 152.802 232.104C160.93 232.222 176.055 232.444 192.015 224.429C196.625 222.114 197.696 221.257 199.642 219.704C199.964 219.447 200.307 219.171 200.691 218.872L202.35 220.976C201.971 221.273 201.633 221.543 201.319 221.795C199.301 223.407 198.083 224.381 193.22 226.823C178.849 234.037 165.227 234.816 156.419 234.816V234.814Z" fill="white"/>
<path d="M67.6556 174.486C65.7261 174.486 64.1588 172.92 64.1588 170.998C64.1588 169.076 65.7287 167.51 67.6556 167.51C69.5824 167.51 71.1523 169.076 71.1523 170.998C71.1523 172.92 69.5824 174.486 67.6556 174.486ZM67.6556 169.041C66.5741 169.041 65.6965 169.919 65.6965 170.995C65.6965 172.072 66.5768 172.95 67.6556 172.95C68.7344 172.95 69.6146 172.072 69.6146 170.995C69.6146 169.919 68.7344 169.041 67.6556 169.041Z" fill="white"/>
<path d="M204.486 222.036C202.36 222.036 200.635 220.311 200.635 218.194C200.635 216.076 202.363 214.35 204.486 214.35C206.608 214.35 208.337 216.074 208.337 218.194C208.337 220.314 206.608 222.036 204.486 222.036ZM204.486 216.039C203.294 216.039 202.328 217.005 202.328 218.191C202.328 219.377 203.297 220.344 204.486 220.344C205.675 220.344 206.643 219.377 206.643 218.191C206.643 217.005 205.675 216.039 204.486 216.039Z" fill="white"/>
<path d="M154.849 144.661C154.849 142.564 153.395 140.811 151.446 140.337V109.877C151.446 109.302 150.98 108.836 150.403 108.836C149.826 108.836 149.359 109.302 149.359 109.877V140.337C147.41 140.811 145.956 142.564 145.956 144.661C145.956 147.121 147.95 149.121 150.4 149.121C152.85 149.121 154.844 147.118 154.844 144.661H154.849ZM150.405 147.04C149.104 147.04 148.046 145.975 148.046 144.661C148.046 143.346 149.104 142.281 150.405 142.281C151.707 142.281 152.764 143.346 152.764 144.661C152.764 145.975 151.707 147.04 150.405 147.04Z" fill="white"/>
<path d="M169.051 139.823C168.436 139.1 167.623 138.618 166.716 138.402V134.873C166.716 134.482 166.496 134.124 166.147 133.947L157.989 129.795V109.877C157.989 109.302 157.522 108.836 156.945 108.836C156.368 108.836 155.901 109.302 155.901 109.877V130.432C155.901 130.823 156.121 131.181 156.47 131.358L164.628 135.51V138.404C163.952 138.568 163.316 138.878 162.774 139.347C160.92 140.947 160.705 143.769 162.296 145.63C163.072 146.537 164.151 147.086 165.337 147.174C166.528 147.268 167.672 146.885 168.571 146.109C170.425 144.508 170.64 141.686 169.048 139.826L169.051 139.823ZM167.21 144.535C166.732 144.947 166.126 145.148 165.501 145.1C164.873 145.054 164.301 144.762 163.89 144.278C163.04 143.279 163.152 141.769 164.145 140.918C164.623 140.506 165.238 140.31 165.855 140.353C166.483 140.399 167.054 140.69 167.465 141.175C168.316 142.174 168.203 143.683 167.21 144.537V144.535Z" fill="white"/>
<path d="M180.145 135.512C182.002 133.911 182.214 131.089 180.623 129.229C179.847 128.321 178.769 127.772 177.582 127.681C177.467 127.673 177.354 127.668 177.239 127.668C176.179 127.668 175.162 128.045 174.351 128.747C174.153 128.918 173.981 129.111 173.82 129.309L164.382 124.747V109.873C164.382 109.298 163.915 108.832 163.338 108.832C162.761 108.832 162.294 109.298 162.294 109.873V125.4C162.294 125.799 162.522 126.163 162.884 126.337L172.924 131.191C172.642 132.508 172.937 133.935 173.874 135.035C174.649 135.943 175.728 136.492 176.914 136.58C178.095 136.668 179.249 136.291 180.148 135.514L180.145 135.512ZM175.715 130.321C176.192 129.909 176.801 129.713 177.424 129.756C178.052 129.802 178.624 130.093 179.031 130.578C179.882 131.576 179.769 133.086 178.777 133.94C178.347 134.312 177.81 134.513 177.25 134.513C177.191 134.513 177.129 134.513 177.07 134.508C176.442 134.462 175.87 134.171 175.46 133.686C174.606 132.687 174.722 131.178 175.715 130.324V130.321Z" fill="white"/>
<path d="M138.031 139.341C137.489 138.872 136.853 138.564 136.177 138.398V135.504L144.335 131.352C144.684 131.176 144.904 130.817 144.904 130.426V109.871C144.904 109.296 144.437 108.83 143.86 108.83C143.283 108.83 142.816 109.296 142.816 109.871V129.789L134.658 133.941C134.309 134.118 134.089 134.476 134.089 134.867V138.396C133.187 138.615 132.371 139.094 131.754 139.817C130.163 141.683 130.377 144.502 132.232 146.103C133.131 146.879 134.274 147.262 135.465 147.168C136.652 147.08 137.73 146.529 138.506 145.624C140.097 143.758 139.883 140.939 138.028 139.341H138.031ZM136.92 144.277C136.509 144.759 135.938 145.051 135.313 145.096C135.253 145.102 135.192 145.104 135.133 145.104C134.572 145.104 134.035 144.904 133.606 144.532C132.615 143.675 132.5 142.168 133.351 141.169C133.761 140.687 134.333 140.395 134.961 140.347C135.576 140.299 136.195 140.5 136.67 140.912C137.661 141.769 137.776 143.276 136.923 144.275L136.92 144.277Z" fill="white"/>
<path d="M123.572 127.669C123.456 127.669 123.344 127.674 123.228 127.682C122.042 127.773 120.963 128.322 120.188 129.229C118.596 131.095 118.811 133.914 120.665 135.512C121.567 136.289 122.718 136.664 123.899 136.578C125.085 136.487 126.164 135.938 126.94 135.033C127.879 133.936 128.174 132.509 127.89 131.189L137.929 126.335C138.289 126.161 138.519 125.797 138.519 125.398V109.871C138.519 109.296 138.052 108.83 137.475 108.83C136.899 108.83 136.432 109.296 136.432 109.871V124.745L126.993 129.307C126.832 129.109 126.66 128.916 126.462 128.745C125.649 128.043 124.634 127.666 123.574 127.666L123.572 127.669ZM125.351 133.684C124.94 134.166 124.369 134.458 123.741 134.506C123.682 134.511 123.62 134.511 123.561 134.511C123 134.511 122.463 134.31 122.034 133.938C121.044 133.082 120.928 131.575 121.779 130.579C122.19 130.097 122.761 129.805 123.386 129.757C124.012 129.709 124.621 129.909 125.096 130.322C126.089 131.178 126.202 132.686 125.351 133.684Z" fill="white"/>
<path d="M105.336 176.079C99.3036 174.5 94.6851 171.416 92.6643 167.62C91.5694 165.558 92.2966 162.978 94.3201 161.743C99.5532 158.555 107.204 156.727 115.317 156.727C117.754 156.727 120.158 156.89 122.466 157.208L122.104 159.821C119.917 159.519 117.633 159.366 115.317 159.366C107.679 159.366 100.53 161.053 95.6995 163.995C94.8649 164.503 94.5589 165.553 95.0017 166.383C96.6763 169.531 100.688 172.136 106.01 173.528L105.339 176.079H105.336Z" fill="white"/>
<path d="M114.214 176.765C112.845 176.765 111.514 176.655 110.255 176.422L110.527 174.982C111.683 175.199 112.915 175.298 114.184 175.298C121.669 175.298 130.52 171.836 133.506 168.236C134.569 166.953 134.926 165.802 134.572 164.809C133.802 162.659 129.854 161.176 126.706 160.561L126.988 159.123C128.781 159.474 134.727 160.887 135.954 164.317C136.496 165.829 136.053 167.462 134.636 169.17C131.381 173.095 122.168 176.765 114.214 176.765Z" fill="white"/>
<path d="M125.351 161.303C124.181 161.303 123.228 160.353 123.228 159.186C123.228 158.019 124.181 157.068 125.351 157.068C126.521 157.068 127.474 158.019 127.474 159.186C127.474 160.353 126.521 161.303 125.351 161.303ZM125.351 157.679C124.519 157.679 123.843 158.353 123.843 159.183C123.843 160.013 124.519 160.688 125.351 160.688C126.183 160.688 126.859 160.013 126.859 159.183C126.859 158.353 126.183 157.679 125.351 157.679Z" fill="white"/>
<path d="M108.801 177.489C107.631 177.489 106.678 176.539 106.678 175.371C106.678 174.204 107.631 173.254 108.801 173.254C109.971 173.254 110.924 174.204 110.924 175.371C110.924 176.539 109.971 177.489 108.801 177.489ZM108.801 173.864C107.969 173.864 107.293 174.539 107.293 175.369C107.293 176.199 107.969 176.873 108.801 176.873C109.633 176.873 110.309 176.199 110.309 175.369C110.309 174.539 109.633 173.864 108.801 173.864Z" fill="white"/>
<path d="M116.669 163.395L116.007 164.511C117.072 165.28 117.638 166.634 117.33 167.994C117.241 168.388 117.085 168.757 116.871 169.087L117.893 169.882C118.226 169.397 118.465 168.856 118.594 168.278C119.028 166.361 118.204 164.445 116.669 163.398V163.395ZM116.511 169.544C116.396 169.668 116.27 169.785 116.13 169.895C115.537 170.364 114.791 170.623 114.037 170.623C113.787 170.623 113.538 170.594 113.291 170.54C111.568 170.149 110.451 168.508 110.685 166.795L109.418 166.509C109.026 168.921 110.586 171.258 113.006 171.798C113.344 171.876 113.693 171.914 114.037 171.914C115.081 171.914 116.108 171.555 116.932 170.907C117.15 170.736 117.351 170.546 117.533 170.339L116.508 169.544H116.511ZM115.065 162.699C114.726 162.621 114.378 162.584 114.031 162.584C113.041 162.584 112.067 162.908 111.265 163.492L112.099 164.485C112.665 164.091 113.344 163.874 114.031 163.874C114.281 163.874 114.533 163.901 114.78 163.957C115.035 164.014 115.277 164.099 115.505 164.209L116.168 163.095C115.827 162.921 115.456 162.785 115.065 162.696V162.699ZM110.816 163.866C110.221 164.431 109.78 165.149 109.547 165.938L110.814 166.225C110.977 165.703 111.262 165.24 111.651 164.857L110.816 163.864V163.866ZM116.669 163.395L116.007 164.511C117.072 165.28 117.638 166.634 117.33 167.994C117.241 168.388 117.085 168.757 116.871 169.087L117.893 169.882C118.226 169.397 118.465 168.856 118.594 168.278C119.028 166.361 118.204 164.445 116.669 163.398V163.395ZM116.13 169.895C115.537 170.364 114.791 170.623 114.037 170.623C113.787 170.623 113.538 170.594 113.291 170.54C111.568 170.149 110.451 168.508 110.685 166.795L109.418 166.509C109.026 168.921 110.586 171.258 113.006 171.798C113.344 171.876 113.693 171.914 114.037 171.914C115.081 171.914 116.108 171.555 116.932 170.907C117.15 170.736 117.351 170.546 117.533 170.339L116.508 169.544C116.393 169.668 116.267 169.785 116.127 169.895H116.13ZM114.029 163.877C114.278 163.877 114.531 163.904 114.777 163.96C115.032 164.016 115.274 164.102 115.502 164.212L116.165 163.098C115.824 162.924 115.454 162.787 115.062 162.699C114.724 162.621 114.375 162.584 114.029 162.584C113.038 162.584 112.064 162.908 111.262 163.492L112.096 164.485C112.663 164.091 113.342 163.874 114.029 163.874V163.877ZM111.804 167.25C111.804 168.503 112.824 169.518 114.08 169.518C115.336 169.518 116.353 168.503 116.353 167.25C116.353 165.997 115.336 164.98 114.08 164.98C112.824 164.98 111.804 165.997 111.804 167.25ZM114.853 167.288C114.853 167.713 114.506 168.061 114.077 168.061C113.648 168.061 113.301 167.713 113.301 167.288C113.301 166.862 113.65 166.514 114.077 166.514C114.504 166.514 114.853 166.859 114.853 167.288ZM113.548 167.288C113.548 167.579 113.784 167.815 114.077 167.815C114.369 167.815 114.606 167.579 114.606 167.288C114.606 166.996 114.367 166.763 114.077 166.763C113.787 166.763 113.548 166.998 113.548 167.288ZM114.38 167.288C114.38 167.456 114.243 167.587 114.08 167.587C113.916 167.587 113.779 167.454 113.779 167.288C113.779 167.122 113.916 166.988 114.08 166.988C114.243 166.988 114.38 167.124 114.38 167.288ZM111.648 164.859L110.814 163.866C110.218 164.431 109.778 165.149 109.544 165.938L110.811 166.225C110.975 165.703 111.259 165.24 111.648 164.857V164.859ZM116.669 163.395L116.007 164.511C117.072 165.28 117.638 166.634 117.33 167.994C117.241 168.388 117.085 168.757 116.871 169.087L117.893 169.882C118.226 169.397 118.465 168.856 118.594 168.278C119.028 166.361 118.204 164.445 116.669 163.398V163.395ZM116.13 169.895C115.537 170.364 114.791 170.623 114.037 170.623C113.787 170.623 113.538 170.594 113.291 170.54C111.568 170.149 110.451 168.508 110.685 166.795L109.418 166.509C109.026 168.921 110.586 171.258 113.006 171.798C113.344 171.876 113.693 171.914 114.037 171.914C115.081 171.914 116.108 171.555 116.932 170.907C117.15 170.736 117.351 170.546 117.533 170.339L116.508 169.544C116.393 169.668 116.267 169.785 116.127 169.895H116.13ZM114.029 163.877C114.278 163.877 114.531 163.904 114.777 163.96C115.032 164.016 115.274 164.102 115.502 164.212L116.165 163.098C115.824 162.924 115.454 162.787 115.062 162.699C114.724 162.621 114.375 162.584 114.029 162.584C113.038 162.584 112.064 162.908 111.262 163.492L112.096 164.485C112.663 164.091 113.342 163.874 114.029 163.874V163.877ZM111.804 167.25C111.804 168.503 112.824 169.518 114.08 169.518C115.336 169.518 116.353 168.503 116.353 167.25C116.353 165.997 115.336 164.98 114.08 164.98C112.824 164.98 111.804 165.997 111.804 167.25ZM114.853 167.288C114.853 167.713 114.506 168.061 114.077 168.061C113.648 168.061 113.301 167.713 113.301 167.288C113.301 166.862 113.65 166.514 114.077 166.514C114.504 166.514 114.853 166.859 114.853 167.288ZM113.548 167.288C113.548 167.579 113.784 167.815 114.077 167.815C114.369 167.815 114.606 167.579 114.606 167.288C114.606 166.996 114.367 166.763 114.077 166.763C113.787 166.763 113.548 166.998 113.548 167.288ZM114.38 167.288C114.38 167.456 114.243 167.587 114.08 167.587C113.916 167.587 113.779 167.454 113.779 167.288C113.779 167.122 113.916 166.988 114.08 166.988C114.243 166.988 114.38 167.124 114.38 167.288ZM111.648 164.859L110.814 163.866C110.218 164.431 109.778 165.149 109.544 165.938L110.811 166.225C110.975 165.703 111.259 165.24 111.648 164.857V164.859ZM114.08 166.76C113.787 166.76 113.551 166.996 113.551 167.285C113.551 167.574 113.787 167.812 114.08 167.812C114.372 167.812 114.608 167.577 114.608 167.285C114.608 166.993 114.369 166.76 114.08 166.76ZM114.08 167.587C113.913 167.587 113.779 167.454 113.779 167.288C113.779 167.122 113.916 166.988 114.08 166.988C114.243 166.988 114.38 167.124 114.38 167.288C114.38 167.451 114.243 167.587 114.08 167.587ZM114.08 164.98C112.824 164.98 111.804 165.997 111.804 167.25C111.804 168.503 112.824 169.518 114.08 169.518C115.336 169.518 116.353 168.503 116.353 167.25C116.353 165.997 115.336 164.98 114.08 164.98ZM114.08 168.061C113.653 168.061 113.304 167.713 113.304 167.288C113.304 166.862 113.653 166.514 114.08 166.514C114.506 166.514 114.855 166.859 114.855 167.288C114.855 167.716 114.509 168.061 114.08 168.061ZM114.08 166.76C113.787 166.76 113.551 166.996 113.551 167.285C113.551 167.574 113.787 167.812 114.08 167.812C114.372 167.812 114.608 167.577 114.608 167.285C114.608 166.993 114.369 166.76 114.08 166.76ZM114.08 167.587C113.913 167.587 113.779 167.454 113.779 167.288C113.779 167.122 113.916 166.988 114.08 166.988C114.243 166.988 114.38 167.124 114.38 167.288C114.38 167.451 114.243 167.587 114.08 167.587ZM114.08 166.76C113.787 166.76 113.551 166.996 113.551 167.285C113.551 167.574 113.787 167.812 114.08 167.812C114.372 167.812 114.608 167.577 114.608 167.285C114.608 166.993 114.369 166.76 114.08 166.76ZM114.08 167.587C113.913 167.587 113.779 167.454 113.779 167.288C113.779 167.122 113.916 166.988 114.08 166.988C114.243 166.988 114.38 167.124 114.38 167.288C114.38 167.451 114.243 167.587 114.08 167.587Z" fill="white"/>
<path d="M194.669 176.079L193.998 173.528C199.317 172.133 203.332 169.531 205.006 166.383C205.446 165.553 205.141 164.503 204.306 163.995C199.478 161.053 192.329 159.366 184.689 159.366C182.373 159.366 180.089 159.519 177.902 159.821L177.539 157.208C179.845 156.89 182.252 156.727 184.689 156.727C192.799 156.727 200.452 158.555 205.683 161.743C207.706 162.978 208.433 165.558 207.338 167.617C205.318 171.416 200.696 174.497 194.666 176.076L194.669 176.079Z" fill="white"/>
<path d="M185.789 176.765C177.832 176.765 168.619 173.095 165.366 169.17C163.952 167.462 163.507 165.829 164.049 164.317C165.275 160.887 171.222 159.474 173.015 159.123L173.297 160.561C170.149 161.176 166.198 162.659 165.431 164.809C165.077 165.802 165.434 166.956 166.496 168.236C169.988 172.447 181.506 176.468 189.476 174.982L189.747 176.422C188.491 176.658 187.158 176.765 185.789 176.765Z" fill="white"/>
<path d="M174.655 161.303C173.484 161.303 172.532 160.353 172.532 159.186C172.532 158.019 173.484 157.068 174.655 157.068C175.825 157.068 176.777 158.019 176.777 159.186C176.777 160.353 175.825 161.303 174.655 161.303ZM174.655 157.679C173.823 157.679 173.146 158.353 173.146 159.183C173.146 160.013 173.823 160.688 174.655 160.688C175.486 160.688 176.163 160.013 176.163 159.183C176.163 158.353 175.486 157.679 174.655 157.679Z" fill="white"/>
<path d="M191.202 177.489C190.032 177.489 189.079 176.539 189.079 175.371C189.079 174.204 190.032 173.254 191.202 173.254C192.372 173.254 193.324 174.204 193.324 175.371C193.324 176.539 192.372 177.489 191.202 177.489ZM191.202 173.864C190.37 173.864 189.694 174.539 189.694 175.369C189.694 176.199 190.37 176.873 191.202 176.873C192.034 176.873 192.71 176.199 192.71 175.369C192.71 174.539 192.034 173.864 191.202 173.864Z" fill="white"/>
<path d="M181.409 168.275C181.538 168.854 181.777 169.397 182.11 169.879L183.132 169.084C182.92 168.752 182.764 168.385 182.673 167.992C182.365 166.632 182.931 165.277 183.996 164.509L183.333 163.392C181.798 164.442 180.974 166.356 181.409 168.273V168.275ZM182.469 170.339C182.652 170.546 182.853 170.736 183.07 170.907C183.894 171.555 184.922 171.914 185.966 171.914C186.31 171.914 186.658 171.873 186.997 171.798C189.417 171.255 190.974 168.918 190.585 166.509L189.318 166.795C189.554 168.511 188.435 170.152 186.712 170.54C186.465 170.594 186.216 170.623 185.966 170.623C185.212 170.623 184.466 170.364 183.873 169.895C183.733 169.785 183.607 169.668 183.492 169.544L182.467 170.339H182.469ZM183.838 163.098L184.501 164.212C184.729 164.102 184.97 164.016 185.225 163.96C185.472 163.904 185.724 163.877 185.974 163.877C186.661 163.877 187.34 164.091 187.906 164.487L188.741 163.494C187.938 162.911 186.964 162.587 185.974 162.587C185.628 162.587 185.279 162.627 184.941 162.702C184.546 162.79 184.179 162.927 183.838 163.101V163.098ZM188.354 164.859C188.744 165.242 189.028 165.705 189.192 166.227L190.458 165.941C190.225 165.151 189.785 164.434 189.189 163.869L188.354 164.862V164.859ZM181.409 168.275C181.538 168.854 181.777 169.397 182.11 169.879L183.132 169.084C182.92 168.752 182.764 168.385 182.673 167.992C182.365 166.632 182.931 165.277 183.996 164.509L183.333 163.392C181.798 164.442 180.974 166.356 181.409 168.273V168.275ZM183.492 169.544L182.467 170.339C182.649 170.546 182.85 170.736 183.068 170.907C183.892 171.555 184.919 171.914 185.963 171.914C186.307 171.914 186.656 171.873 186.994 171.798C189.414 171.255 190.971 168.918 190.582 166.509L189.315 166.795C189.551 168.511 188.432 170.152 186.709 170.54C186.462 170.594 186.213 170.623 185.963 170.623C185.209 170.623 184.463 170.364 183.87 169.895C183.731 169.785 183.604 169.668 183.489 169.544H183.492ZM187.906 164.485L188.741 163.492C187.938 162.908 186.964 162.584 185.974 162.584C185.628 162.584 185.279 162.624 184.941 162.699C184.546 162.787 184.179 162.924 183.838 163.098L184.501 164.212C184.729 164.102 184.97 164.016 185.225 163.96C185.472 163.904 185.724 163.877 185.974 163.877C186.661 163.877 187.34 164.091 187.906 164.487V164.485ZM185.926 164.98C184.67 164.98 183.653 165.997 183.653 167.25C183.653 168.503 184.67 169.518 185.926 169.518C187.182 169.518 188.201 168.503 188.201 167.25C188.201 165.997 187.182 164.98 185.926 164.98ZM185.926 166.514C186.352 166.514 186.701 166.859 186.701 167.288C186.701 167.713 186.352 168.061 185.926 168.061C185.499 168.061 185.15 167.713 185.15 167.288C185.15 166.862 185.496 166.514 185.926 166.514ZM185.926 166.76C185.633 166.76 185.397 166.996 185.397 167.285C185.397 167.574 185.636 167.812 185.926 167.812C186.218 167.812 186.454 167.577 186.454 167.285C186.454 166.993 186.218 166.76 185.926 166.76ZM185.926 166.985C186.092 166.985 186.226 167.122 186.226 167.285C186.226 167.454 186.089 167.585 185.926 167.585C185.762 167.585 185.625 167.451 185.625 167.285C185.625 167.119 185.762 166.985 185.926 166.985ZM189.189 166.225L190.456 165.938C190.222 165.149 189.782 164.431 189.186 163.866L188.352 164.859C188.741 165.242 189.025 165.705 189.189 166.227V166.225ZM181.409 168.275C181.538 168.854 181.777 169.397 182.11 169.879L183.132 169.084C182.92 168.752 182.764 168.385 182.673 167.992C182.365 166.632 182.931 165.277 183.996 164.509L183.333 163.392C181.798 164.442 180.974 166.356 181.409 168.273V168.275ZM183.492 169.544L182.467 170.339C182.649 170.546 182.85 170.736 183.068 170.907C183.892 171.555 184.919 171.914 185.963 171.914C186.307 171.914 186.656 171.873 186.994 171.798C189.414 171.255 190.971 168.918 190.582 166.509L189.315 166.795C189.551 168.511 188.432 170.152 186.709 170.54C186.462 170.594 186.213 170.623 185.963 170.623C185.209 170.623 184.463 170.364 183.87 169.895C183.731 169.785 183.604 169.668 183.489 169.544H183.492ZM187.906 164.485L188.741 163.492C187.938 162.908 186.964 162.584 185.974 162.584C185.628 162.584 185.279 162.624 184.941 162.699C184.546 162.787 184.179 162.924 183.838 163.098L184.501 164.212C184.729 164.102 184.97 164.016 185.225 163.96C185.472 163.904 185.724 163.877 185.974 163.877C186.661 163.877 187.34 164.091 187.906 164.487V164.485ZM185.926 164.98C184.67 164.98 183.653 165.997 183.653 167.25C183.653 168.503 184.67 169.518 185.926 169.518C187.182 169.518 188.201 168.503 188.201 167.25C188.201 165.997 187.182 164.98 185.926 164.98ZM185.926 166.514C186.352 166.514 186.701 166.859 186.701 167.288C186.701 167.713 186.352 168.061 185.926 168.061C185.499 168.061 185.15 167.713 185.15 167.288C185.15 166.862 185.496 166.514 185.926 166.514ZM185.926 166.76C185.633 166.76 185.397 166.996 185.397 167.285C185.397 167.574 185.636 167.812 185.926 167.812C186.218 167.812 186.454 167.577 186.454 167.285C186.454 166.993 186.218 166.76 185.926 166.76ZM185.926 166.985C186.092 166.985 186.226 167.122 186.226 167.285C186.226 167.454 186.089 167.585 185.926 167.585C185.762 167.585 185.625 167.451 185.625 167.285C185.625 167.119 185.762 166.985 185.926 166.985ZM189.189 166.225L190.456 165.938C190.222 165.149 189.782 164.431 189.186 163.866L188.352 164.859C188.741 165.242 189.025 165.705 189.189 166.227V166.225ZM185.394 167.288C185.394 167.579 185.633 167.815 185.923 167.815C186.216 167.815 186.452 167.579 186.452 167.288C186.452 166.996 186.216 166.763 185.923 166.763C185.631 166.763 185.394 166.998 185.394 167.288ZM185.622 167.288C185.622 167.122 185.759 166.988 185.923 166.988C186.087 166.988 186.224 167.124 186.224 167.288C186.224 167.456 186.087 167.587 185.923 167.587C185.759 167.587 185.622 167.454 185.622 167.288ZM183.65 167.25C183.65 168.503 184.667 169.518 185.923 169.518C187.179 169.518 188.199 168.503 188.199 167.25C188.199 165.997 187.179 164.98 185.923 164.98C184.667 164.98 183.65 165.997 183.65 167.25ZM185.15 167.288C185.15 166.862 185.496 166.514 185.926 166.514C186.355 166.514 186.701 166.859 186.701 167.288C186.701 167.713 186.352 168.061 185.926 168.061C185.499 168.061 185.15 167.713 185.15 167.288ZM185.394 167.288C185.394 167.579 185.633 167.815 185.923 167.815C186.216 167.815 186.452 167.579 186.452 167.288C186.452 166.996 186.216 166.763 185.923 166.763C185.631 166.763 185.394 166.998 185.394 167.288ZM185.622 167.288C185.622 167.122 185.759 166.988 185.923 166.988C186.087 166.988 186.224 167.124 186.224 167.288C186.224 167.456 186.087 167.587 185.923 167.587C185.759 167.587 185.622 167.454 185.622 167.288ZM185.394 167.288C185.394 167.579 185.633 167.815 185.923 167.815C186.216 167.815 186.452 167.579 186.452 167.288C186.452 166.996 186.216 166.763 185.923 166.763C185.631 166.763 185.394 166.998 185.394 167.288ZM185.622 167.288C185.622 167.122 185.759 166.988 185.923 166.988C186.087 166.988 186.224 167.124 186.224 167.288C186.224 167.456 186.087 167.587 185.923 167.587C185.759 167.587 185.622 167.454 185.622 167.288Z" fill="white"/>
<path d="M246.468 214.656C241.206 212.225 239.987 211.821 234.145 209.888L232.116 209.216C223.496 206.354 218.473 205.803 212.113 205.101L211.852 205.072L212.118 202.676L212.378 202.705C218.881 203.42 224.014 203.985 232.878 206.93L234.905 207.602C240.857 209.572 242.094 209.982 247.483 212.469L246.468 214.656Z" fill="white"/>
<path d="M212.526 198.09L212.472 195.681C220.209 195.51 228.04 195.376 235.753 195.287C238.646 195.253 240.293 195.226 241.614 195.202C243.825 195.164 245.161 195.14 250 195.135V197.544C245.183 197.549 243.93 197.571 241.654 197.611C240.331 197.632 238.678 197.662 235.779 197.697C228.077 197.788 220.252 197.919 212.526 198.09Z" fill="white"/>
<path d="M212.633 191.796L212.367 189.4L212.628 189.371C218.988 188.672 224.012 188.118 232.632 185.256L234.66 184.584C240.505 182.651 241.721 182.25 246.984 179.816L247.998 182.004C242.609 184.493 241.372 184.903 235.42 186.871L233.394 187.542C224.53 190.485 219.396 191.049 212.893 191.767L212.633 191.796Z" fill="white"/>
<path d="M53.5343 214.656L52.5199 212.469C57.9086 209.979 59.1458 209.569 65.0981 207.599L67.1215 206.93C75.9855 203.988 81.1193 203.423 87.6218 202.705L87.8821 202.676L88.1477 205.072L87.8874 205.101C81.5272 205.8 76.5035 206.354 67.8837 209.216L65.8575 209.888C60.0126 211.821 58.7969 212.225 53.5343 214.656Z" fill="white"/>
<path d="M87.4768 198.09C79.7507 197.919 71.9252 197.788 64.2232 197.697C61.3249 197.662 59.6718 197.635 58.3488 197.611C56.0731 197.571 54.8198 197.549 50 197.544V195.135C54.8439 195.14 56.1777 195.164 58.3917 195.202C59.7121 195.223 61.3598 195.253 64.2527 195.287C71.9655 195.378 79.7963 195.51 87.5332 195.681L87.4795 198.09H87.4768Z" fill="white"/>
<path d="M87.3722 191.796L87.1118 191.767C80.6094 191.052 75.4756 190.487 66.6116 187.542L64.5855 186.871C58.6332 184.9 57.396 184.491 52.0073 182.004L53.0217 179.816C58.2843 182.247 59.5 182.651 65.3449 184.584L67.3738 185.256C75.9936 188.118 81.0173 188.67 87.3775 189.371L87.6378 189.4L87.3722 191.796Z" fill="white"/>
<defs>
<linearGradient id="paint0_linear_297_2850" x1="277.737" y1="277.737" x2="22.2633" y2="22.2633" gradientUnits="userSpaceOnUse">
<stop stop-color="#EE4392"/>
<stop offset="0.253798" stop-color="#004E99"/>
<stop offset="0.930017" stop-color="#05203D"/>
</linearGradient>
</defs>
</svg>
